<svg width="21" height="18" xmlns="http://www.w3.org/2000/svg"><g fill="#141827" fill-rule="nonzero"><path d="M19.883 3.272c.342 0 .622-.21.622-.467v-.464c0-.257-.28-.467-.622-.467H7.127c-.342 0-.622.21-.622.467v.464c0 .257.28.467.622.467h12.756zM1.838 4.207a1.75 1.75 0 1 0 0-3.5 1.75 1.75 0 0 0 0 3.5zM19.883 9.98c.342 0 .622-.21.622-.466v-.465c0-.257-.28-.467-.622-.467H7.127c-.342 0-.622.21-.622.467v.465c0 .256.28.466.622.466h12.756zM1.838 10.916a1.75 1.75 0 1 0 0-3.5 1.75 1.75 0 0 0 0 3.5z"/><g><path d="M19.883 16.689c.342 0 .622-.21.622-.467v-.465c0-.256-.28-.466-.622-.466H7.127c-.342 0-.622.21-.622.466v.465c0 .257.28.467.622.467h12.756zM1.838 17.624a1.75 1.75 0 1 0 0-3.5 1.75 1.75 0 0 0 0 3.5z"/></g></g></svg>