<svg width="20" height="17" xmlns="http://www.w3.org/2000/svg"><g fill="#141827" fill-rule="nonzero"><path d="M19.348.11H.634a.509.509 0 0 0-.52.508v15.017c0 .284.23.508.52.508h18.714c.29 0 .52-.224.52-.508V.618a.509.509 0 0 0-.52-.508zm-.54 1.035v10.837l-2.87-3.084c-.583-.61-1.664-.61-2.246 0l-1.393 1.481-4.034-4.525a1.625 1.625 0 0 0-1.227-.528 1.6 1.6 0 0 0-1.206.548l-4.657 5.175V1.145h17.632zM1.174 15.108v-2.496l5.448-6.089a.529.529 0 0 1 .415-.182c.146 0 .333.06.437.182l4.429 4.972c.104.102.25.183.395.183.166.02.291-.06.395-.162l1.788-1.908c.167-.183.5-.183.686 0l3.66 3.917v1.603H1.175v-.02z"/><path d="M14.19 5.757c1.044 0 1.91-.872 1.91-1.968s-.846-1.969-1.91-1.969c-1.062 0-1.909.873-1.909 1.969s.866 1.968 1.91 1.968zm0-2.902c.493 0 .907.427.907.934 0 .507-.414.933-.906.933-.492 0-.906-.426-.906-.933 0-.507.414-.934.906-.934z"/></g></svg>