<svg xmlns="http://www.w3.org/2000/svg" width="32" height="22"><g fill="none" fill-rule="evenodd"><path fill="#141827" fill-rule="nonzero" d="M30.128 21.41c.22.221.554.247.743.058l.6-.6c.19-.189.163-.524-.057-.744l-6.557-6.557c-.55-.55-1.83.743-1.278 1.295l6.549 6.549z"/><circle cx="18.777" cy="8.777" r="7.564" stroke="#141827" stroke-width="1.5" transform="rotate(4 18.777 8.777)"/><path fill="#141827" fill-rule="nonzero" d="M7.442 9.533C7.75 9.533 8 9.293 8 9v-.467A.547.547 0 0 0 7.442 8H.558A.547.547 0 0 0 0 8.533V9c0 .293.25.533.558.533h6.884zM9.533 2.5c.257 0 .467-.24.467-.533v-.434C10 1.24 9.79 1 9.533 1H.467C.21 1 0 1.24 0 1.533v.434c0 .293.21.533.467.533h9.066zM.535 16.533h3.93c.294 0 .535-.24.535-.533v-.467A.536.536 0 0 0 4.465 15H.535a.536.536 0 0 0-.535.533V16c0 .293.24.533.535.533z"/></g></svg>