<?xml version="1.0" encoding="UTF-8"?>
<svg width="772px" height="250px" viewBox="0 0 772 250" version="1.1" xmlns="http://www.w3.org/2000/svg" xmlns:xlink="http://www.w3.org/1999/xlink">
    <!-- Generator: Sketch 43.2 (39069) - http://www.bohemiancoding.com/sketch -->
    <title>banner</title>
    <desc>Created with Sketch.</desc>
    <defs>
        <path d="M0.100068182,33.1864865 C0.100068182,51.4995495 14.9579394,66.3454955 33.285517,66.3454955 L33.285517,66.3454955 C46.767,66.3454955 58.3708523,58.3130631 63.5651572,46.7765766 L63.5651572,46.7765766 C62.1184508,42.359009 60.8664716,34.5869369 65.859964,26.8182432 L65.859964,26.8182432 C65.6463049,25.7209459 65.3785549,24.6432432 65.0596439,23.5878378 L65.0596439,23.5878378 C49.7474091,38.7835586 37.3847064,40.2067568 28.0767879,39.959009 L28.0767879,39.959009 C27.9906932,39.9563063 27.677642,39.9056306 27.5944773,39.718018 L27.5944773,39.718018 C27.5944773,39.718018 27.4587992,39.1103604 27.8554659,39.1103604 L27.8554659,39.1103604 C45.6881117,39.1103604 55.8443561,28.625 64.1419015,20.9583333 L64.1419015,20.9583333 C63.6893409,19.8184685 63.1750265,18.7101351 62.6034659,17.6362613 L62.6034659,17.6362613 C53.6586326,15.1772523 50.2211553,7.85608108 49.0009545,3.97364865 L49.0009545,3.97364865 C44.3232178,1.45563063 38.9713731,0.0268018018 33.285517,0.0268018018 L33.285517,0.0268018018 C14.9579394,0.0268018018 0.100068182,14.8727477 0.100068182,33.1864865 L0.100068182,33.1864865 Z M42.319375,10.0193694 C42.319375,10.0193694 54.9885928,8.64166667 58.7197386,24.2858108 L58.7197386,24.2858108 C44.8753958,23.3317568 42.319375,10.0193694 42.319375,10.0193694 L42.319375,10.0193694 Z M37.2503807,16.602027 C37.2503807,16.602027 48.4825833,16.2272523 51.0395057,30.2635135 L51.0395057,30.2635135 C38.8800947,28.5054054 37.2503807,16.602027 37.2503807,16.602027 L37.2503807,16.602027 Z M31.0806364,22.1804054 C31.0806364,22.1804054 41.188875,21.5211712 43.7755473,34.0896396 L43.7755473,34.0896396 C32.7878807,32.854955 31.0806364,22.1804054 31.0806364,22.1804054 L31.0806364,22.1804054 Z M58.7197386,24.2858108 C58.7341629,24.2867117 58.7472348,24.2876126 58.7616591,24.2887387 L58.7616591,24.2887387 L58.731233,24.3344595 C58.7274015,24.3182432 58.7235701,24.302027 58.7197386,24.2858108 L58.7197386,24.2858108 Z M25.7017462,26.6135135 C25.7017462,26.6135135 34.5834735,26.0331081 36.8568693,37.077027 L36.8568693,37.077027 C27.2020928,35.9927928 25.7017462,26.6135135 25.7017462,26.6135135 L25.7017462,26.6135135 Z M18.5856364,27.6963964 C18.5856364,27.6963964 27.1178011,27.1400901 29.3010455,37.7481982 L29.3010455,37.7481982 C20.0276098,36.7065315 18.5856364,27.6963964 18.5856364,27.6963964 L18.5856364,27.6963964 Z M11.5420985,28.1844595 C11.5420985,28.1844595 19.2854375,27.679955 21.2671932,37.3072072 L21.2671932,37.3072072 C12.850197,36.3614865 11.5420985,28.1844595 11.5420985,28.1844595 L11.5420985,28.1844595 Z M3.88372727,29.5936937 C3.88372727,29.5936937 10.3798201,27.8869369 13.1785739,35.7101351 L13.1785739,35.7101351 C12.8740871,35.7349099 12.5788409,35.7468468 12.2923845,35.7468468 L12.2923845,35.7468468 C5.77488068,35.7466216 3.88372727,29.5936937 3.88372727,29.5936937 L3.88372727,29.5936937 Z M59.1732008,30.245045 C59.1682424,30.2306306 59.1630587,30.2155405 59.1585511,30.2013514 L59.1585511,30.2013514 L59.2036269,30.2137387 C59.1934848,30.2240991 59.1833428,30.2344595 59.1732008,30.245045 L59.1732008,30.245045 C64.008928,44.8105856 55.3960777,52.7382883 55.3960777,52.7382883 L55.3960777,52.7382883 C55.3960777,52.7382883 49.3442064,40.3094595 59.1732008,30.245045 L59.1732008,30.245045 Z M51.0395057,30.2635135 C51.0514508,30.2650901 51.0636212,30.2668919 51.0755663,30.2686937 L51.0755663,30.2686937 L51.0473939,30.3065315 C51.0449148,30.2918919 51.0424356,30.2781532 51.0395057,30.2635135 L51.0395057,30.2635135 Z M43.7755473,34.0896396 C43.7863655,34.090991 43.7978598,34.0921171 43.8084527,34.0934685 L43.8084527,34.0934685 L43.783661,34.1279279 C43.7809564,34.1146396 43.7784773,34.1027027 43.7755473,34.0896396 L43.7755473,34.0896396 Z M52.0532595,35.3527027 C52.0516818,35.3385135 52.0501042,35.3234234 52.0487519,35.309009 L52.0487519,35.309009 L52.0870663,35.3331081 C52.0757973,35.3398649 52.0647538,35.3461712 52.0532595,35.3527027 L52.0532595,35.3527027 C53.5664527,50.0002252 44.1345758,54.8072072 44.1345758,54.8072072 L44.1345758,54.8072072 C44.1345758,54.8072072 41.0867784,41.7648649 52.0532595,35.3527027 L52.0532595,35.3527027 Z M13.1995341,35.7083333 L13.1869129,35.7335586 C13.1842083,35.7256757 13.181053,35.7175676 13.1785739,35.7101351 L13.1785739,35.7101351 C13.1855606,35.7094595 13.1925473,35.709009 13.1995341,35.7083333 L13.1995341,35.7083333 Z M36.8568693,37.077027 C36.8663352,37.0779279 36.8753504,37.0790541 36.8850417,37.079955 L36.8850417,37.079955 L36.8638561,37.1112613 C36.8613769,37.0997748 36.8591231,37.0882883 36.8568693,37.077027 L36.8568693,37.077027 Z M21.2671932,37.3072072 C21.2755322,37.3083333 21.284322,37.3092342 21.292661,37.3101351 L21.292661,37.3101351 L21.2732784,37.3364865 C21.27125,37.3265766 21.269447,37.3171171 21.2671932,37.3072072 L21.2671932,37.3072072 Z M9.81141477,39.7004505 C9.81141477,39.7004505 15.2745966,34.5024775 22.1853864,40.2981982 L22.1853864,40.2981982 C20.074714,42.1004505 18.0771818,42.7207207 16.3273409,42.7207207 L16.3273409,42.7207207 C12.4659261,42.7207207 9.81141477,39.7004505 9.81141477,39.7004505 L9.81141477,39.7004505 Z M29.3010455,37.7481982 C29.310286,37.7490991 29.3195265,37.7502252 29.328767,37.7511261 L29.328767,37.7511261 L29.3080322,37.7815315 C29.3057784,37.7707207 29.3032992,37.759009 29.3010455,37.7481982 L29.3010455,37.7481982 Z M43.6603788,39.4317568 C43.6606042,39.4189189 43.6606042,39.4051802 43.6608295,39.3923423 L43.6608295,39.3923423 L43.6923826,39.4191441 C43.6815644,39.4234234 43.671197,39.4274775 43.6603788,39.4317568 L43.6603788,39.4317568 C43.530786,52.563964 34.731322,55.4673423 34.731322,55.4673423 L34.731322,55.4673423 C34.731322,55.4673423 33.3474962,43.5335586 43.6603788,39.4317568 L43.6603788,39.4317568 Z M22.2052197,40.2810811 L22.2052197,40.3148649 C22.1984583,40.3092342 22.1919223,40.3038288 22.1853864,40.2981982 L22.1853864,40.2981982 C22.191697,40.2923423 22.1984583,40.2867117 22.2052197,40.2810811 L22.2052197,40.2810811 Z M17.7154489,47.4047297 C17.7154489,47.4047297 20.6275682,39.836036 28.9909242,41.3103604 L28.9909242,41.3103604 C26.5998807,46.7576577 22.8387595,47.7932432 20.3262367,47.7932432 L20.3262367,47.7932432 C18.7862235,47.7932432 17.7154489,47.4047297 17.7154489,47.4047297 L17.7154489,47.4047297 Z M29.0026439,41.2835586 L29.0150398,41.3146396 C29.0069261,41.3132883 28.9990379,41.3117117 28.9909242,41.3103604 L28.9909242,41.3103604 C28.9949811,41.3013514 28.9988125,41.2925676 29.0026439,41.2835586 L29.0026439,41.2835586 Z M35.8627235,41.7463964 C35.8647519,41.7353604 35.8667803,41.7238739 35.8688087,41.7128378 L35.8688087,41.7128378 L35.8924735,41.7418919 C35.8825568,41.7434685 35.8726402,41.745045 35.8627235,41.7463964 L35.8627235,41.7463964 C33.8618106,53.0371622 25.8606383,53.7477477 25.8606383,53.7477477 L25.8606383,53.7477477 C25.8606383,53.7477477 26.3850947,43.1808559 35.8627235,41.7463964 L35.8627235,41.7463964 Z" id="path-1"></path>
    </defs>
    <g id="Pods" stroke="none" stroke-width="1" fill="none" fill-rule="evenodd">
        <g id="banner">
            <polygon id="Fill-172" fill="#95BF3B" points="1185.977 925 -414 925 -414 -675 1185.977 -675"></polygon>
            <g id="Pods-Frond" opacity="0.1" style="mix-blend-mode: screen;" transform="translate(-14.000000, -378.000000)" fill="#BFBF9B">
                <path d="M1019.34984,315.705141 C1019.34984,315.705141 716.636167,354.192649 541.752346,461.607286 C464.375451,509.135067 377.552645,603.769679 201.02566,603.769679 C197.701779,603.769679 198.838496,607.706687 198.838496,607.706687 C199.535749,608.922767 202.161361,609.25119 202.882973,609.265425 C283.29551,610.918725 390.891809,601.088406 524.711749,494.071334 C641.905182,400.343698 1011.54709,345.170678 1011.54709,345.170678 L1019.34984,315.705141 Z" id="Fill-1"></path>
                <path d="M535.721051,507.386291 C447.26117,589.125982 513.591618,677.379224 513.591618,677.379224 C513.591618,677.379224 591.463797,612.295559 535.281588,507.327317" id="Fill-4"></path>
                <path d="M626.281319,459.526223 C517.754334,551.480578 600.9772,657.592708 600.9772,657.592708 C600.9772,657.592708 696.597379,584.6879 625.7292,459.431662" id="Fill-6"></path>
                <path d="M720.739713,421.176693 C608.681803,520.298397 693.415893,632.484825 693.415893,632.484825 C693.415893,632.484825 792.092012,553.796519 720.175415,421.080098" id="Fill-8"></path>
                <path d="M821.704997,386.581455 C702.429952,505.710521 795.379863,630.759334 795.379863,630.759334 C795.379863,630.759334 900.536281,535.742409 821.100101,386.497061" id="Fill-10"></path>
                <path d="M463.910107,546.143452 C381.124675,611.369467 431.982585,692.043562 431.982585,692.043562 C431.982585,692.043562 504.340675,640.58589 463.52951,546.063125" id="Fill-12"></path>
                <path d="M404.233713,579.303797 C311.926251,620.789817 337.538907,705.442608 337.538907,705.442608 C337.538907,705.442608 416.7924,674.237345 403.908937,579.146195" id="Fill-14"></path>
                <path d="M333.831182,605.770619 C247.053033,632.260013 258.687122,709.719021 258.687122,709.719021 C258.687122,709.719021 332.623421,690.872831 333.568316,605.598781" id="Fill-16"></path>
                <path d="M268.424012,620.814931 C188.704669,629.993488 184.293803,698.582026 184.293803,698.582026 C184.293803,698.582026 251.529564,693.965803 268.222042,620.626825" id="Fill-19"></path>
                <path d="M153.644275,611.352487 C96.8114985,648.985892 49.7118567,607.5924 49.7118567,607.5924 C49.7118567,607.5924 95.6088119,573.856348 153.644275,611.57313" id="Fill-21"></path>
                <path d="M210.648573,617.84794 C178.333349,674.964044 115.990543,657.494588 115.990543,657.494588 C115.990543,657.494588 140.459379,608.375531 210.751081,618.048248" id="Fill-23"></path>
                <path d="M655.041158,399.696511 C637.903128,248.114582 485.63083,231.713771 485.63083,231.713771 C485.63083,231.713771 493.135188,359.185593 655.479606,399.352837" id="Fill-32"></path>
                <path d="M571.9412,436.93591 C556.668603,301.849354 420.969021,287.235041 420.969021,287.235041 C420.969021,287.235041 427.659409,400.829723 572.327887,436.629857" id="Fill-34"></path>
                <path d="M517.063881,468.873363 C489.859821,356.329025 373.221552,360.107414 373.221552,360.107414 C373.221552,360.107414 390.886328,455.474114 517.364299,468.566293" id="Fill-36"></path>
                <path d="M459.949463,508.06449 C428.785164,406.400813 322.320507,415.344492 322.320507,415.344492 C322.320507,415.344492 343.786179,501.750228 460.203194,507.768604" id="Fill-38"></path>
                <path d="M395.510633,546.747628 C374.19923,455.539596 279.80914,457.97989 279.80914,457.97989 C279.80914,457.97989 293.502513,535.230456 395.74711,546.502582" id="Fill-40"></path>
                <path d="M334.598263,571.497092 C313.01283,489.82756 228.073725,494.11231 228.073725,494.11231 C228.073725,494.11231 242.42071,563.387181 334.808352,571.274415" id="Fill-42"></path>
                <path d="M276.567164,590.822088 C257.601254,519.061167 182.964657,522.825321 182.964657,522.825321 C182.964657,522.825321 195.571045,583.695412 276.746806,590.619747" id="Fill-44"></path>
                <path d="M213.205678,595.162761 C194.988782,526.230549 123.290394,529.841167 123.290394,529.841167 C123.290394,529.841167 135.408603,588.315702 213.380245,594.968554" id="Fill-46"></path>
                <path d="M145.827116,592.281282 C129.293982,529.721288 64.2220418,533.000433 64.2220418,533.000433 C64.2220418,533.000433 75.2187582,586.069716 145.987475,592.109445" id="Fill-48"></path>
                <path d="M78.0154866,581.896915 C54.5818746,531.055417 0.000202985075,542.130286 0.000202985075,542.130286 C0.000202985075,542.130286 17.3138149,585.646834 78.1200239,581.735245" id="Fill-50"></path>
            </g>
            <g id="Group-2" transform="translate(121.000000, 70.000000)">
                <text id="Grow-Beyond-Posts-&amp;" font-family="Lato-BlackItalic, Lato" font-size="40" font-style="italic" font-weight="700" fill="#CCED40">
                    <tspan x="99.8" y="106">Grow Beyond Posts &amp; Pages</tspan>
                </text>
                <text id="A-Content-Developmen" font-family="Lato-Regular, Lato" font-size="24" font-weight="normal" fill="#FFFFFF">
                    <tspan x="310.82885" y="37.5">A Content Development</tspan>
                    <tspan x="286.44485" y="66.5">Framework for WordPress</tspan>
                </text>
                <g id="Group">
                    <g id="pods-logo-white">
                        <g id="pods-circle" stroke-width="1">
                            <g id="Group-3" transform="translate(4.282197, 4.279279)">
                                <mask id="mask-2" fill="white">
                                    <use xlink:href="#path-1"></use>
                                </mask>
                                <g id="Clip-2"></g>
                                <polygon id="Fill-1" fill="#FFFFFF" mask="url(#mask-2)" points="-2.1537197 -2.22545045 68.1135265 -2.22545045 68.1135265 68.5977477 -2.1537197 68.5977477"></polygon>
                            </g>
                            <path d="M37.4875017,2.41148649 C18.143015,2.41148649 2.40571572,18.1367117 2.40571572,37.4655405 C2.40571572,56.7945946 18.143015,72.5198198 37.4875017,72.5198198 C56.8319884,72.5198198 72.5697384,56.7945946 72.5697384,37.4655405 C72.5697384,18.1367117 56.8319884,2.41148649 37.4875017,2.41148649 M37.4875017,74.8292793 C16.8689487,74.8292793 0.0946816288,58.0677928 0.0946816288,37.4655405 C0.0946816288,16.8630631 16.8689487,0.101801802 37.4875017,0.101801802 C58.1060547,0.101801802 74.8807725,16.8630631 74.8807725,37.4655405 C74.8807725,58.0677928 58.1060547,74.8292793 37.4875017,74.8292793" id="Fill-4" fill="#FFFFFF"></path>
                        </g>
                        <path d="M96.1908685,48.1965778 L93.8386021,67.432842 L81.1363636,67.432842 L88.1147539,10.3508929 L107.011294,10.3508929 C110.409029,10.3508929 113.316662,10.7622549 115.734282,11.5849913 C118.151901,12.4077277 120.138239,13.5438704 121.693357,14.9934536 C123.248474,16.4430368 124.391925,18.1537804 125.123745,20.1257359 C125.855565,22.0976914 126.221469,24.2197971 126.221469,26.4921167 C126.221469,29.6002319 125.744487,32.4797661 124.790507,35.1308056 C123.836528,37.7818451 122.379444,40.0737192 120.419212,42.0064968 C118.45898,43.9392744 115.976057,45.4541314 112.970369,46.5511132 C109.96468,47.6480951 106.41018,48.1965778 102.306761,48.1965778 L96.1908685,48.1965778 Z M99.7192681,19.8710807 L97.4062061,38.5980345 L103.561303,38.5980345 C105.390853,38.5980345 106.926345,38.3303227 108.167825,37.7948911 C109.409305,37.2594595 110.415542,36.502031 111.186567,35.5225829 C111.957591,34.5431348 112.512982,33.3743443 112.852755,32.0161763 C113.192529,30.6580082 113.362413,29.1692695 113.362413,27.5499153 C113.362413,26.4268148 113.212131,25.395145 112.911562,24.4548748 C112.610993,23.5146047 112.147079,22.7049397 111.519804,22.0258557 C110.89253,21.3467717 110.101915,20.8178777 109.147936,20.4391578 C108.193956,20.0604378 107.063573,19.8710807 105.756752,19.8710807 L99.7192681,19.8710807 Z M141.293491,59.0488083 C142.652585,59.0488083 143.867911,58.6374463 144.939504,57.8147099 C146.011097,56.9919735 146.919324,55.8688899 147.664212,54.4454253 C148.409101,53.0219608 148.984093,51.3634536 149.389208,49.4698539 C149.794322,47.5762543 149.996877,45.5586215 149.996877,43.416895 C149.996877,40.4654914 149.598302,38.3564448 148.801141,37.089692 C148.00398,35.8229391 146.703713,35.1895722 144.900299,35.1895722 C143.541205,35.1895722 142.32588,35.6009342 141.254287,36.4236706 C140.182693,37.246407 139.274466,38.3629611 138.529578,39.7733663 C137.78469,41.1837716 137.209697,42.8422788 136.804583,44.7489377 C136.399468,46.6555967 136.196914,48.679759 136.196914,50.8214855 C136.196914,53.7206519 136.595488,55.8166393 137.392649,57.1095108 C138.18981,58.4023823 139.490078,59.0488083 141.293491,59.0488083 L141.293491,59.0488083 Z M140.195767,68.0596857 C137.921898,68.0596857 135.798345,67.6809714 133.825045,66.9235316 C131.851745,66.1660917 130.139835,65.0625968 128.689264,63.6130136 C127.238692,62.1634304 126.101775,60.3743321 125.278477,58.2456649 C124.45518,56.1169977 124.043538,53.6684142 124.043538,50.899841 C124.043538,47.295472 124.638132,43.9849871 125.82734,40.968287 C127.016547,37.9515869 128.617379,35.3462941 130.629883,33.1523304 C132.642388,30.9583666 134.975029,29.247623 137.627876,28.020048 C140.280723,26.7924731 143.070744,26.1786948 145.998024,26.1786948 C148.271893,26.1786948 150.388911,26.5574091 152.349143,27.3148489 C154.309375,28.0722888 156.014751,29.1757838 157.465322,30.6253669 C158.915894,32.0749501 160.059345,33.8640484 160.895711,35.9927156 C161.732076,38.1213828 162.150253,40.5699663 162.150253,43.3385395 C162.150253,46.8906713 161.555658,50.1750379 160.366451,53.191738 C159.177244,56.2084382 157.576412,58.8202605 155.563907,61.0272836 C153.551402,63.2343066 151.218762,64.9581094 148.565915,66.1987436 C145.913068,67.4393779 143.123046,68.0596857 140.195767,68.0596857 L140.195767,68.0596857 Z M193.356987,67.432842 C192.599031,67.432842 191.965232,67.3348987 191.455572,67.1390091 C190.945911,66.9431195 190.540803,66.6754077 190.240234,66.3358657 C189.939665,65.9963237 189.730577,65.5914912 189.612963,65.1213561 C189.495349,64.651221 189.436543,64.1419157 189.436543,63.5934247 L189.436543,60.1849624 C187.580857,62.6401123 185.529178,64.5663313 183.281446,65.9636772 C181.033714,67.3610232 178.642267,68.0596857 176.107033,68.0596857 C174.434302,68.0596857 172.905345,67.7658557 171.520114,67.1781868 C170.134884,66.5905179 168.93916,65.6698506 167.932908,64.416157 C166.926655,63.1624635 166.142575,61.5627222 165.580641,59.6168854 C165.018708,57.6710485 164.737746,55.339997 164.737746,52.623661 C164.737746,50.2729856 164.986038,47.9811114 165.48263,45.7479698 C165.979222,43.5148282 166.671827,41.4188407 167.560466,39.4599445 C168.449104,37.5010483 169.507613,35.7054204 170.736025,34.073007 C171.964437,32.4405935 173.316977,31.0432685 174.793685,29.8809901 C176.270393,28.7187117 177.832021,27.8111034 179.478615,27.158138 C181.12521,26.5051726 182.824052,26.1786948 184.575192,26.1786948 C186.247924,26.1786948 187.757279,26.4594658 189.103305,27.021016 C190.449331,27.5825662 191.631987,28.3204061 192.651307,29.2345576 L195.2388,8.78378378 L207.15695,8.78378378 L199.864924,67.432842 L193.356987,67.432842 Z M180.968384,58.813742 C181.80475,58.813742 182.673773,58.5003233 183.575479,57.8734765 C184.477186,57.2466297 185.352743,56.3847283 186.202177,55.2877465 C187.05161,54.1907646 187.842225,52.9044421 188.574045,51.4287403 C189.305865,49.9530385 189.93313,48.3663564 190.455858,46.6686464 L191.7104,36.795859 C190.952444,36.1951309 190.109557,35.7641802 189.181714,35.502994 C188.253871,35.2418079 187.37178,35.1112167 186.535414,35.1112167 C185.124048,35.1112167 183.82378,35.5813448 182.634573,36.5216149 C181.445365,37.4618851 180.419526,38.6959712 179.557024,40.2239102 C178.694522,41.7518492 178.021519,43.4952407 177.537996,45.4541368 C177.054472,47.413033 176.812713,49.4110771 176.812713,51.4483292 C176.812713,54.0340721 177.191686,55.9080547 177.949642,57.0703331 C178.707598,58.2326115 179.713836,58.813742 180.968384,58.813742 L180.968384,58.813742 Z M234.863645,35.3462831 C234.497735,35.8164182 234.157966,36.1559551 233.844329,36.364904 C233.530692,36.573853 233.112516,36.6783258 232.589787,36.6783258 C232.067059,36.6783258 231.550872,36.5607938 231.041212,36.3257263 C230.531552,36.0906588 229.982695,35.822947 229.394625,35.5225829 C228.806556,35.2222188 228.140087,34.954507 227.395199,34.7194395 C226.650311,34.4843719 225.794356,34.3668399 224.827308,34.3668399 C223.023895,34.3668399 221.736695,34.7129064 220.965671,35.4050497 C220.194646,36.097193 219.80914,36.9917422 219.80914,38.088724 C219.80914,38.7939267 220.024762,39.3946458 220.456013,39.8908995 C220.887264,40.3871532 221.455723,40.831163 222.161406,41.2229423 C222.86709,41.6147215 223.670773,41.9738471 224.572479,42.3003298 C225.474186,42.6268125 226.395481,42.9924676 227.336392,43.3973061 C228.277304,43.8021447 229.198599,44.2657432 230.100305,44.7881155 C231.002012,45.3104878 231.805695,45.9503843 232.511378,46.7078241 C233.217062,47.465264 233.785521,48.3663427 234.216772,49.4110873 C234.648023,50.455832 234.863645,51.6964476 234.863645,53.1329714 C234.863645,55.1702235 234.458536,57.0964425 233.648307,58.9116863 C232.838078,60.7269301 231.675025,62.3070826 230.159112,63.6521913 C228.643199,64.9973 226.807143,66.0681472 224.650888,66.864765 C222.494633,67.6613828 220.070516,68.0596857 217.378465,68.0596857 C216.09778,68.0596857 214.830182,67.9290946 213.575634,67.6679084 C212.321086,67.4067222 211.13843,67.0541262 210.027632,66.6101098 C208.916834,66.1660933 207.904063,65.6371993 206.989288,65.0234118 C206.074513,64.4096243 205.329636,63.7501392 204.754635,63.0449365 L207.734173,58.5786756 C208.100082,58.0563033 208.524793,57.6449412 209.008317,57.3445772 C209.491841,57.0442131 210.086435,56.8940333 210.792119,56.8940333 C211.445529,56.8940333 212.007454,57.0507426 212.47791,57.364166 C212.948365,57.6775894 213.458018,58.0171263 214.006883,58.382787 C214.555748,58.7484476 215.209149,59.0879845 215.967105,59.4014079 C216.725061,59.7148313 217.71823,59.8715406 218.946642,59.8715406 C220.671646,59.8715406 221.952312,59.4862968 222.788677,58.7157976 C223.625043,57.9452985 224.043219,57.0376902 224.043219,55.9929456 C224.043219,55.1832685 223.827597,54.5172538 223.396346,53.9948815 C222.965095,53.4725091 222.396637,53.0219698 221.690953,52.6432499 C220.98527,52.2645299 220.188121,51.924993 219.299482,51.6246289 C218.410844,51.3242649 217.496083,50.9912575 216.555171,50.6255969 C215.61426,50.2599363 214.699499,49.8355151 213.810861,49.3523207 C212.922222,48.8691263 212.125073,48.2618776 211.41939,47.5305564 C210.713706,46.7992352 210.145248,45.8981564 209.713997,44.8272932 C209.282746,43.75643 209.067123,42.4635779 209.067123,40.9486982 C209.067123,39.0681578 209.413426,37.2398822 210.106041,35.4638163 C210.798656,33.6877504 211.83103,32.1141274 213.203192,30.7429001 C214.575354,29.3716728 216.28073,28.2681778 218.319371,27.4323821 C220.358012,26.5965864 222.736391,26.1786948 225.454579,26.1786948 C228.172767,26.1786948 230.596884,26.6488229 232.727003,27.589093 C234.857121,28.5293632 236.61477,29.6785651 238,31.0367331 L234.863645,35.3462831 Z" id="Pods" fill="#FFFFFF"></path>
                    </g>
                </g>
            </g>
        </g>
    </g>
</svg>