<?xml version="1.0" encoding="UTF-8"?>
<svg width="250px" height="250px" viewBox="0 0 250 250" version="1.1" xmlns="http://www.w3.org/2000/svg" xmlns:xlink="http://www.w3.org/1999/xlink">
    <!-- Generator: Sketch 43.2 (39069) - http://www.bohemiancoding.com/sketch -->
    <title>icon</title>
    <desc>Created with Sketch.</desc>
    <defs>
        <path d="M0.256530467,84.4802511 C0.256530467,131.098388 38.3455272,168.890555 85.3293134,168.890555 L85.3293134,168.890555 C119.889861,168.890555 149.636995,148.443018 162.952891,119.075484 L162.952891,119.075484 C159.244176,107.830026 156.034657,88.0452686 168.835758,68.2691108 L168.835758,68.2691108 C168.288031,65.4758066 167.601639,62.7323829 166.784092,60.0457196 L166.784092,60.0457196 C127.530309,98.728281 95.8378182,102.351206 71.9764403,101.720534 L71.9764403,101.720534 C71.7557317,101.713654 70.9532073,101.584652 70.7400097,101.107062 L70.7400097,101.107062 C70.7400097,101.107062 70.3921914,99.5601949 71.4090689,99.5601949 L71.4090689,99.5601949 C117.124069,99.5601949 143.160178,72.8684306 164.431407,53.351995 L164.431407,53.351995 C163.271243,50.4503299 161.952768,47.6289322 160.48754,44.8952552 L160.48754,44.8952552 C137.556952,38.6355477 128.744784,19.9986131 125.61673,10.1154075 L125.61673,10.1154075 C113.625086,3.7054854 99.9053283,0.0682272571 85.3293134,0.0682272571 L85.3293134,0.0682272571 C38.3455272,0.0682272571 0.256530467,37.8603943 0.256530467,84.4802511 L0.256530467,84.4802511 Z M108.488121,25.5055274 C108.488121,25.5055274 140.966381,21.998417 150.531385,61.822495 L150.531385,61.822495 C115.040626,59.393834 108.488121,25.5055274 108.488121,25.5055274 L108.488121,25.5055274 Z M95.4934665,42.2624857 C95.4934665,42.2624857 124.287856,41.3084508 130.842672,77.0394667 L130.842672,77.0394667 C99.6713309,72.563988 95.4934665,42.2624857 95.4934665,42.2624857 L95.4934665,42.2624857 Z M79.6769765,56.4629286 C79.6769765,56.4629286 105.59002,54.7847674 112.221102,86.7793376 L112.221102,86.7793376 C84.0535943,83.6362971 79.6769765,56.4629286 79.6769765,56.4629286 L79.6769765,56.4629286 Z M150.531385,61.822495 C150.568362,61.8247884 150.601873,61.8270817 150.63885,61.8299484 L150.63885,61.8299484 L150.560851,61.9463361 C150.551029,61.9050557 150.541207,61.8637754 150.531385,61.822495 L150.531385,61.822495 Z M65.8878861,67.7479463 C65.8878861,67.7479463 88.6566984,66.2704535 94.4846778,94.3840968 L94.4846778,94.3840968 C69.7341098,91.6240462 65.8878861,67.7479463 65.8878861,67.7479463 L65.8878861,67.7479463 Z M47.6453344,70.5045568 C47.6453344,70.5045568 69.5180233,69.0884112 75.1148942,96.0926449 L75.1148942,96.0926449 C51.3419153,93.4409553 47.6453344,70.5045568 47.6453344,70.5045568 L47.6453344,70.5045568 Z M29.588825,71.7469809 C29.588825,71.7469809 49.4393143,70.4627031 54.5196576,94.9700485 L54.5196576,94.9700485 C32.9422097,92.562601 29.588825,71.7469809 29.588825,71.7469809 L29.588825,71.7469809 Z M9.95615544,75.3343586 C9.95615544,75.3343586 26.6092583,70.989601 33.7840226,90.9045067 L33.7840226,90.9045067 C33.0034535,90.9675739 32.2465731,90.9979608 31.5122257,90.9979608 L31.5122257,90.9979608 C14.8042346,90.9973875 9.95615544,75.3343586 9.95615544,75.3343586 L9.95615544,75.3343586 Z M151.693861,76.9924529 C151.68115,76.9557593 151.667861,76.9173456 151.656306,76.8812253 L151.656306,76.8812253 L151.77186,76.9127589 C151.74586,76.9391325 151.719861,76.965506 151.693861,76.9924529 L151.693861,76.9924529 C164.090522,114.070814 142.010991,134.251748 142.010991,134.251748 L142.010991,134.251748 C142.010991,134.251748 126.496676,102.612648 151.693861,76.9924529 L151.693861,76.9924529 Z M130.842672,77.0394667 C130.873293,77.04348 130.904493,77.0480668 130.935115,77.0526535 L130.935115,77.0526535 L130.862894,77.1489743 C130.856538,77.1117073 130.850183,77.0767337 130.842672,77.0394667 L130.842672,77.0394667 Z M112.221102,86.7793376 C112.248835,86.7827777 112.278301,86.7856444 112.305456,86.7890844 L112.305456,86.7890844 L112.241902,86.8768051 C112.234968,86.8429782 112.228613,86.8125913 112.221102,86.7793376 L112.221102,86.7793376 Z M133.441487,89.9946188 C133.437443,89.9584985 133.433398,89.9200848 133.429932,89.8833912 L133.429932,89.8833912 L133.528153,89.9447384 C133.499264,89.9619385 133.470953,89.977992 133.441487,89.9946188 L133.441487,89.9946188 C137.320644,127.281675 113.141492,139.518434 113.141492,139.518434 L113.141492,139.518434 C113.141492,139.518434 105.32829,106.31756 133.441487,89.9946188 L133.441487,89.9946188 Z M33.8377553,90.89992 L33.8054001,90.9641338 C33.7984668,90.944067 33.790378,90.9234268 33.7840226,90.9045067 L33.7840226,90.9045067 C33.8019335,90.9027867 33.8198444,90.90164 33.8377553,90.89992 L33.8377553,90.89992 Z M94.4846778,94.3840968 C94.5089441,94.3863901 94.532055,94.3892568 94.5568992,94.3915502 L94.5568992,94.3915502 L94.5025887,94.4712442 C94.4962332,94.4420039 94.4904555,94.4127637 94.4846778,94.3840968 L94.4846778,94.3840968 Z M54.5196576,94.9700485 C54.5410351,94.9729152 54.5635682,94.9752086 54.5849457,94.9775019 L54.5849457,94.9775019 L54.5352574,95.0445825 C54.5300575,95.0193556 54.5254353,94.9952754 54.5196576,94.9700485 L54.5196576,94.9700485 Z M25.152119,101.062341 C25.152119,101.062341 39.1572959,87.8302667 56.8734979,102.583981 L56.8734979,102.583981 C51.4626695,107.171834 46.3418823,108.750808 41.8560657,108.750808 L41.8560657,108.750808 C31.9571096,108.750808 25.152119,101.062341 25.152119,101.062341 L25.152119,101.062341 Z M75.1148942,96.0926449 C75.1385828,96.0949382 75.1622714,96.0978049 75.18596,96.1000983 L75.18596,96.1000983 L75.1328051,96.177499 C75.1270273,96.1499787 75.1206719,96.1201651 75.1148942,96.0926449 L75.1148942,96.0926449 Z M111.925861,100.378349 C111.926438,100.345668 111.926438,100.310695 111.927016,100.278014 L111.927016,100.278014 L112.007904,100.346242 C111.980171,100.357135 111.953594,100.367455 111.925861,100.378349 L111.925861,100.378349 C111.593642,133.807985 89.0357164,141.198889 89.0357164,141.198889 L89.0357164,141.198889 C89.0357164,141.198889 85.4882005,110.819986 111.925861,100.378349 L111.925861,100.378349 Z M56.9243418,102.540407 L56.9243418,102.626408 C56.9070087,102.612075 56.8902533,102.598315 56.8734979,102.583981 L56.8734979,102.583981 C56.8896755,102.569074 56.9070087,102.554741 56.9243418,102.540407 L56.9243418,102.540407 Z M45.4145593,120.674524 C45.4145593,120.674524 52.8799426,101.407491 74.3198808,105.160563 L74.3198808,105.160563 C68.1903048,119.027323 58.548457,121.663533 52.1074623,121.663533 L52.1074623,121.663533 C48.1595509,121.663533 45.4145593,120.674524 45.4145593,120.674524 L45.4145593,120.674524 Z M74.3499249,105.092336 L74.3817023,105.171457 C74.3609026,105.168017 74.3406806,105.164003 74.3198808,105.160563 L74.3198808,105.160563 C74.3302807,105.13763 74.3401028,105.11527 74.3499249,105.092336 L74.3499249,105.092336 Z M91.9361284,106.270546 C91.9413284,106.242453 91.9465283,106.213212 91.9517283,106.185119 L91.9517283,106.185119 L92.0123943,106.25908 C91.9869723,106.263093 91.9615504,106.267106 91.9361284,106.270546 L91.9361284,106.270546 C86.8066746,135.012568 66.2952149,136.821451 66.2952149,136.821451 L66.2952149,136.821451 C66.2952149,136.821451 67.6396888,109.922138 91.9361284,106.270546 L91.9361284,106.270546 Z" id="path-1"></path>
    </defs>
    <g id="Pods" stroke="none" stroke-width="1" fill="none" fill-rule="evenodd">
        <g id="icon">
            <rect id="Rectangle" fill="#95BF3B" x="0" y="0" width="250" height="250"></rect>
            <g id="pods-circle-white" transform="translate(28.000000, 28.000000)">
                <g id="pods-circle" transform="translate(1.523438, 1.523438)">
                    <g id="inner-logo" transform="translate(10.813910, 10.797884)">
                        <mask id="mask-2" fill="white">
                            <use xlink:href="#path-1"></use>
                        </mask>
                        <g id="Clip-2"></g>
                        <polygon id="Fill-1" fill="#FFFFFF" mask="url(#mask-2)" points="-5.52118276 -5.66515569 174.612894 -5.66515569 174.612894 174.623938 -5.52118276 174.623938"></polygon>
                    </g>
                    <path d="M95.9375941,6.00700773 C46.3469037,6.00700773 6.00344329,46.3509567 6.00344329,95.9401531 C6.00344329,145.529927 46.3469037,185.873876 95.9375941,185.873876 C145.528285,185.873876 185.8729,145.529927 185.8729,95.9401531 C185.8729,46.3509567 145.528285,6.00700773 95.9375941,6.00700773 M95.9375941,191.798924 C43.0807624,191.798924 0.0789761467,148.796389 0.0789761467,95.9401531 C0.0789761467,43.0833395 43.0807624,0.0813818884 95.9375941,0.0813818884 C148.794426,0.0813818884 191.797368,43.0833395 191.797368,95.9401531 C191.797368,148.796389 148.794426,191.798924 95.9375941,191.798924" id="Fill-4" fill="#FFFFFF"></path>
                </g>
            </g>
        </g>
    </g>
</svg>