<svg fill="none" height="46" viewBox="0 0 37 46" width="37" xmlns="http://www.w3.org/2000/svg"><g stroke="#0f1031" stroke-linecap="round" stroke-width="2.25"><path d="m27.2161 19.5106c.1047-4.2905-1.1512-6.0698-3.7676-6.0698-2.6163 0-3.827 2.5473-3.5357 5.9545"/><path d="m27.6405 20.0339c0-3.2122.3778-15.48837 3.8955-15.50929 2.9087-.01763 4.1759 5.78649 4.1759 16.38229 0 10.5955-1.0247 19.9527-12.5277 23.128-11.2161 3.0959-21.14822-5.3731-18.32276-13.8498 3.23374-9.7018 23.18836-13.412 24.72666-8.3688 1.0523 3.4503-8.4009 10.2174-13.4245 9.9386-3.4856-.1937-4.2208-3.4538.1047-3.7673 4.3256-.3141 7.5349 1.779 5.8607 8.0582"/><path d="m19.2975 20.1038c.3254-3.9173-1.0116-8.5991-4.766-8.1375-3.3532.4121-3.5758 5.2963-2.6292 10.0038"/><path d="m2.48356 24.2201c-1.92733-9.6366-2.638836-22.75983 1.81843-23.228818 4.06506-.427867 6.44271 11.667118 7.18151 17.996118"/></g></svg>