<svg height="18" width="21" xmlns="http://www.w3.org/2000/svg"><g fill="#141827"><path d="m19.883 3.272c.342 0 .622-.21.622-.467v-.464c0-.257-.28-.467-.622-.467h-12.756c-.342 0-.622.21-.622.467v.464c0 .257.28.467.622.467zm-18.045.935a1.75 1.75 0 1 0 0-3.5 1.75 1.75 0 0 0 0 3.5zm18.045 5.773c.342 0 .622-.21.622-.466v-.465c0-.257-.28-.467-.622-.467h-12.756c-.342 0-.622.21-.622.467v.465c0 .256.28.466.622.466zm-18.045.936a1.75 1.75 0 1 0 0-3.5 1.75 1.75 0 0 0 0 3.5z"/><path d="m19.883 16.689c.342 0 .622-.21.622-.467v-.465c0-.256-.28-.466-.622-.466h-12.756c-.342 0-.622.21-.622.466v.465c0 .257.28.467.622.467zm-18.045.935a1.75 1.75 0 1 0 0-3.5 1.75 1.75 0 0 0 0 3.5z"/></g></svg>