<svg width="20" height="20" xmlns="http://www.w3.org/2000/svg"><path d="M13.333 3.826c0 .065 0 .13-.02.174 0 .022-.02.065-.02.087a.9.9 0 0 1-.197.37L10.45 7.37a.797.797 0 0 1-.592.26.797.797 0 0 1-.593-.26c-.316-.348-.316-.935 0-1.305l1.225-1.348H6.3C3.753 4.717 1.66 7 1.66 9.827c0 1.369.474 2.651 1.363 3.608.316.348.316.935 0 1.304A.797.797 0 0 1 2.43 15a.797.797 0 0 1-.593-.26C.652 13.434 0 11.695 0 9.847c0-3.826 2.825-6.935 6.301-6.935h4.208L9.284 1.565c-.316-.348-.316-.935 0-1.304.316-.348.85-.348 1.185 0l2.647 2.913c.099.109.158.239.198.37 0 .021.02.065.02.086v.196zM20 10.152c0 3.826-2.825 6.935-6.301 6.935H9.49l1.225 1.348c.336.348.336.935 0 1.304a.797.797 0 0 1-.593.261.83.83 0 0 1-.592-.26l-2.627-2.936a.948.948 0 0 1-.198-.37c0-.021-.02-.064-.02-.086-.02-.065-.02-.109-.02-.174 0-.065 0-.13.02-.174 0-.022.02-.065.02-.087a.9.9 0 0 1 .198-.37L9.55 12.63c.316-.347.849-.347 1.185 0 .336.348.336.935 0 1.305L9.51 15.283h4.208c2.548 0 4.641-2.283 4.641-5.11 0-1.369-.474-2.651-1.362-3.608a.97.97 0 0 1 0-1.304c.316-.348.849-.348 1.185 0C19.348 6.543 20 8.283 20 10.152z"/></svg>