<svg width="20" height="20" xmlns="http://www.w3.org/2000/svg"><path d="M20 18.711l-6.044-6.044a7.782 7.782 0 0 0 1.688-4.845c0-2.089-.822-4.044-2.288-5.533C11.866.822 9.91 0 7.822 0S3.778.822 2.29 2.289A7.801 7.801 0 0 0 0 7.822c0 2.09.822 4.045 2.289 5.534a7.801 7.801 0 0 0 5.533 2.288c1.778 0 3.467-.6 4.845-1.688L18.71 20 20 18.711zM3.578 12.067c-2.334-2.334-2.334-6.156 0-8.49a5.968 5.968 0 0 1 4.244-1.755c1.6 0 3.111.622 4.245 1.756 2.333 2.333 2.333 6.155 0 8.489a5.968 5.968 0 0 1-4.245 1.755c-1.6 0-3.11-.622-4.244-1.755z"/></svg>