<svg width="21" height="21" xmlns="http://www.w3.org/2000/svg"><path d="M0 .503v19.994c0 .278.19.503.424.503h20.152c.234 0 .424-.225.424-.503V.503C21 .225 20.81 0 20.576 0H.424C.19 0 0 .225 0 .503zm1.156.943h18.66v2.7H1.157v-2.7zm0 4.023h18.66V19.55H1.157V5.469zm6.25 6.537v1.006c0 .278.224.503.502.503h1.006a.503.503 0 0 0 .503-.503v-1.006a.503.503 0 0 0-.503-.502H7.908a.503.503 0 0 0-.503.502zm4.022 0v1.006c0 .278.225.503.503.503h1.006a.503.503 0 0 0 .503-.503v-1.006a.503.503 0 0 0-.503-.502H11.93a.503.503 0 0 0-.503.502zm4.023 0v1.006c0 .278.225.503.503.503h1.006a.503.503 0 0 0 .503-.503v-1.006a.503.503 0 0 0-.503-.502h-1.006a.503.503 0 0 0-.503.502zm-12.069 0v1.006c0 .278.225.503.503.503h1.006a.503.503 0 0 0 .503-.503v-1.006a.503.503 0 0 0-.503-.502H3.885a.503.503 0 0 0-.503.502z" fill="#141827" fill-rule="nonzero"/></svg>