<svg width="20" height="20" viewBox="0 0 256 256" version="1.1" xmlns="http://www.w3.org/2000/svg" xmlns:xlink="http://www.w3.org/1999/xlink" xml:space="preserve" xmlns:serif="http://www.serif.com/" style="fill-rule:evenodd;clip-rule:evenodd;stroke-linejoin:round;stroke-miterlimit:2;">
	<title>Pods icon</title>
	<g id="Logo" transform="matrix(16.0328,0,0,16.0339,17.3303,17.833)" fill="#a7aaad">
		<path d="M0.021,6.871C0.021,10.662 3.119,13.736 6.94,13.736C9.751,13.736 12.17,12.073 13.253,9.684C12.951,8.77 12.69,7.161 13.731,5.552C13.687,5.325 13.631,5.102 13.565,4.884C10.372,8.03 7.795,8.324 5.854,8.273C5.836,8.272 5.771,8.262 5.753,8.223C5.753,8.223 5.725,8.097 5.808,8.097C9.526,8.097 11.643,5.926 13.373,4.339C13.279,4.103 13.172,3.874 13.053,3.651C11.188,3.142 10.471,1.626 10.216,0.823C9.241,0.301 8.125,0.006 6.94,0.006C3.119,0.006 0.021,3.079 0.021,6.871ZM8.823,2.074C8.823,2.074 11.465,1.789 12.243,5.028C9.356,4.831 8.823,2.074 8.823,2.074ZM7.766,3.437C7.766,3.437 10.108,3.36 10.641,6.266C8.106,5.902 7.766,3.437 7.766,3.437ZM6.48,4.592C6.48,4.592 8.588,4.456 9.127,7.058C6.836,6.802 6.48,4.592 6.48,4.592ZM12.243,5.028C12.246,5.028 12.248,5.028 12.251,5.029L12.245,5.038C12.244,5.035 12.244,5.031 12.243,5.028ZM5.359,5.51C5.359,5.51 7.21,5.39 7.684,7.676C5.671,7.452 5.359,5.51 5.359,5.51ZM3.875,5.734C3.875,5.734 5.654,5.619 6.109,7.815C4.176,7.6 3.875,5.734 3.875,5.734ZM2.406,5.835C2.406,5.835 4.021,5.731 4.434,7.724C2.679,7.528 2.406,5.835 2.406,5.835ZM0.81,6.127C0.81,6.127 2.164,5.774 2.748,7.393C2.684,7.398 2.623,7.401 2.563,7.401C1.204,7.401 0.81,6.127 0.81,6.127ZM12.337,6.262C12.336,6.259 12.335,6.256 12.334,6.253L12.344,6.255C12.341,6.258 12.339,6.26 12.337,6.262C13.345,9.277 11.55,10.919 11.55,10.919C11.55,10.919 10.288,8.345 12.337,6.262ZM10.641,6.266C10.644,6.266 10.646,6.266 10.649,6.267L10.643,6.275C10.643,6.271 10.642,6.269 10.641,6.266ZM9.127,7.058C9.129,7.058 9.132,7.058 9.134,7.059L9.129,7.066C9.128,7.063 9.128,7.06 9.127,7.058ZM10.853,7.319C10.853,7.316 10.852,7.313 10.852,7.31L10.86,7.315C10.858,7.317 10.855,7.318 10.853,7.319C11.168,10.352 9.202,11.347 9.202,11.347C9.202,11.347 8.566,8.647 10.853,7.319ZM2.752,7.393L2.749,7.398C2.749,7.396 2.748,7.395 2.748,7.393L2.752,7.393ZM7.684,7.676C7.686,7.676 7.688,7.677 7.69,7.677L7.686,7.683C7.685,7.681 7.685,7.679 7.684,7.676ZM4.434,7.724C4.436,7.724 4.438,7.724 4.439,7.725L4.435,7.73C4.435,7.728 4.435,7.726 4.434,7.724ZM2.046,8.219C2.046,8.219 3.185,7.143 4.626,8.343C4.185,8.716 3.769,8.845 3.404,8.845C2.599,8.845 2.046,8.219 2.046,8.219ZM6.109,7.815C6.111,7.815 6.113,7.816 6.115,7.816L6.111,7.822C6.11,7.82 6.11,7.817 6.109,7.815ZM9.103,8.164L9.103,8.156L9.11,8.161C9.107,8.162 9.105,8.163 9.103,8.164C9.076,10.883 7.241,11.484 7.241,11.484C7.241,11.484 6.953,9.013 9.103,8.164ZM4.63,8.34L4.63,8.347C4.628,8.345 4.627,8.344 4.626,8.343C4.627,8.342 4.628,8.341 4.63,8.34ZM3.694,9.814C3.694,9.814 4.301,8.248 6.044,8.553C5.546,9.68 4.762,9.895 4.238,9.895C3.917,9.895 3.694,9.814 3.694,9.814ZM6.047,8.547L6.049,8.554C6.048,8.553 6.046,8.553 6.044,8.553C6.045,8.551 6.046,8.549 6.047,8.547ZM7.477,8.643C7.478,8.641 7.478,8.638 7.478,8.636L7.483,8.642C7.481,8.642 7.479,8.643 7.477,8.643C7.06,10.981 5.392,11.128 5.392,11.128C5.392,11.128 5.501,8.94 7.477,8.643Z" shape-rendering="geometricPrecision" />
	</g>
</svg>
