<svg width="179" height="56" viewBox="0 0 179 56" fill="none" xmlns="http://www.w3.org/2000/svg">
<mask id="mask0" mask-type="alpha" maskUnits="userSpaceOnUse" x="3" y="3" width="50" height="50">
<path fill-rule="evenodd" clip-rule="evenodd" d="M3.2959 27.9744C3.2959 41.6482 14.4705 52.7332 28.2547 52.7332V52.7332C38.3941 52.7332 47.1214 46.7356 51.028 38.1217V38.1217C49.94 34.8233 48.9984 29.0201 52.754 23.2195V23.2195C52.5933 22.4002 52.3919 21.5955 52.152 20.8075V20.8075C40.6357 32.1536 31.3377 33.2162 24.3372 33.0313V33.0313C24.2725 33.0292 24.037 32.9914 23.9745 32.8513V32.8513C23.9745 32.8513 23.8724 32.3976 24.1708 32.3976V32.3976C37.5827 32.3976 45.2212 24.5685 51.4618 18.8441V18.8441C51.1214 17.993 50.7346 17.1654 50.3047 16.3636V16.3636C43.5773 14.5275 40.992 9.06107 40.0743 6.16219V6.16219C36.5562 4.28207 32.531 3.21521 28.2547 3.21521V3.21521C14.4705 3.21521 3.2959 14.3002 3.2959 27.9744V27.9744ZM35.0491 10.6763C35.0491 10.6763 44.5776 9.64764 47.3838 21.3286V21.3286C36.9715 20.6162 35.0491 10.6763 35.0491 10.6763V10.6763ZM31.2367 15.5914C31.2367 15.5914 39.6844 15.3115 41.6075 25.792V25.792C32.4624 24.4792 31.2367 15.5914 31.2367 15.5914V15.5914ZM26.5964 19.7566C26.5964 19.7566 34.1988 19.2643 36.1443 28.6488V28.6488C27.8804 27.7269 26.5964 19.7566 26.5964 19.7566V19.7566ZM47.3838 21.3286C47.3947 21.3293 47.4045 21.3299 47.4153 21.3308V21.3308L47.3924 21.3649C47.3896 21.3528 47.3867 21.3407 47.3838 21.3286V21.3286ZM22.551 23.0666C22.551 23.0666 29.2309 22.6333 30.9407 30.8794V30.8794C23.6794 30.0698 22.551 23.0666 22.551 23.0666V23.0666ZM17.1989 23.8752C17.1989 23.8752 23.6159 23.4598 25.258 31.3805V31.3805C18.2834 30.6027 17.1989 23.8752 17.1989 23.8752V23.8752ZM11.9014 24.2396C11.9014 24.2396 17.7252 23.8629 19.2157 31.0512V31.0512C12.8853 30.3451 11.9014 24.2396 11.9014 24.2396V24.2396ZM6.14158 25.2918C6.14158 25.2918 11.0273 24.0174 13.1322 29.8588V29.8588C12.9032 29.8773 12.6812 29.8862 12.4657 29.8862V29.8862C7.56391 29.886 6.14158 25.2918 6.14158 25.2918V25.2918ZM47.7248 25.7782C47.7211 25.7674 47.7172 25.7561 47.7138 25.7455V25.7455L47.7477 25.7548C47.7401 25.7625 47.7325 25.7703 47.7248 25.7782V25.7782C51.3618 36.6538 44.8841 42.5731 44.8841 42.5731V42.5731C44.8841 42.5731 40.3325 33.2929 47.7248 25.7782V25.7782ZM41.6075 25.792C41.6165 25.7931 41.6256 25.7945 41.6346 25.7958V25.7958L41.6134 25.8241C41.6116 25.8131 41.6097 25.8029 41.6075 25.792V25.792ZM36.1443 28.6488C36.1524 28.6498 36.1611 28.6506 36.169 28.6517V28.6517L36.1504 28.6774C36.1483 28.6675 36.1465 28.6586 36.1443 28.6488V28.6488ZM42.3699 29.5919C42.3688 29.5813 42.3676 29.57 42.3666 29.5593V29.5593L42.3954 29.5772C42.3869 29.5823 42.3786 29.587 42.3699 29.5919V29.5919C43.508 40.5287 36.4143 44.1179 36.4143 44.1179V44.1179C36.4143 44.1179 34.122 34.3796 42.3699 29.5919V29.5919ZM13.148 29.8574L13.1385 29.8763C13.1365 29.8704 13.1341 29.8643 13.1323 29.8588V29.8588C13.1375 29.8583 13.1428 29.8579 13.148 29.8574V29.8574ZM30.9407 30.8794C30.9478 30.88 30.9546 30.8809 30.9619 30.8816V30.8816L30.946 30.9049C30.9441 30.8964 30.9424 30.8878 30.9407 30.8794V30.8794ZM19.2157 31.0513C19.222 31.0521 19.2286 31.0528 19.2349 31.0534V31.0534L19.2203 31.0731C19.2188 31.0657 19.2174 31.0587 19.2157 31.0513V31.0513ZM10.5998 32.8382C10.5998 32.8382 14.7087 28.957 19.9063 33.2845V33.2845C18.3189 34.6302 16.8165 35.0933 15.5005 35.0933V35.0933C12.5963 35.0933 10.5998 32.8382 10.5998 32.8382V32.8382ZM25.258 31.3805C25.2649 31.3812 25.2719 31.382 25.2788 31.3827V31.3827L25.2632 31.4054C25.2615 31.3973 25.2597 31.3886 25.258 31.3805V31.3805ZM36.0576 32.6376C36.0578 32.628 36.0578 32.6177 36.058 32.6081V32.6081L36.0817 32.6282C36.0736 32.6314 36.0658 32.6344 36.0576 32.6376V32.6376C35.9602 42.443 29.3421 44.6108 29.3421 44.6108V44.6108C29.3421 44.6108 28.3013 35.7003 36.0576 32.6376V32.6376ZM19.9212 33.2717V33.297C19.9161 33.2928 19.9112 33.2887 19.9063 33.2845V33.2845C19.911 33.2801 19.9161 33.2759 19.9212 33.2717V33.2717ZM16.5444 38.5907C16.5444 38.5907 18.7347 32.9394 25.0247 34.0403V34.0403C23.2264 38.1076 20.3977 38.8808 18.508 38.8808V38.8808C17.3498 38.8808 16.5444 38.5907 16.5444 38.5907V38.5907ZM25.0336 34.0203L25.0429 34.0435C25.0368 34.0425 25.0308 34.0413 25.0247 34.0403V34.0403C25.0278 34.0335 25.0307 34.027 25.0336 34.0203V34.0203ZM30.193 34.3658C30.1945 34.3576 30.1961 34.349 30.1976 34.3408V34.3408L30.2154 34.3625C30.2079 34.3636 30.2005 34.3648 30.193 34.3658V34.3658C28.6881 42.7963 22.6704 43.3269 22.6704 43.3269V43.3269C22.6704 43.3269 23.0649 35.4369 30.193 34.3658V34.3658Z" fill="white"/>
</mask>
<g mask="url(#mask0)">
<path fill-rule="evenodd" clip-rule="evenodd" d="M1.60083 1.53354H54.4489V54.4149H1.60083V1.53354Z" fill="#95BF3B"/>
</g>
<path fill-rule="evenodd" clip-rule="evenodd" d="M28.1944 1.80059C13.6454 1.80059 1.80934 13.5421 1.80934 27.9743C1.80934 42.4066 13.6454 54.1481 28.1944 54.1481C42.7434 54.1481 54.5798 42.4066 54.5798 27.9743C54.5798 13.5421 42.7434 1.80059 28.1944 1.80059M28.1944 55.8725C12.6872 55.8725 0.071228 43.3573 0.071228 27.9743C0.071228 12.5911 12.6872 0.0760193 28.1944 0.0760193C43.7016 0.0760193 56.3179 12.5911 56.3179 27.9743C56.3179 43.3573 43.7016 55.8725 28.1944 55.8725" fill="#95BF3B"/>
<path fill-rule="evenodd" clip-rule="evenodd" d="M72.3452 35.9868L70.5761 50.3498H61.0227L66.2712 7.72867H80.4833C83.0387 7.72867 85.2255 8.03582 87.0438 8.65013C88.8621 9.26444 90.3561 10.1128 91.5257 11.1951C92.6953 12.2775 93.5553 13.5548 94.1057 15.0272C94.6561 16.4996 94.9313 18.0841 94.9313 19.7808C94.9313 22.1015 94.5725 24.2516 93.855 26.231C93.1376 28.2104 92.0417 29.9217 90.5674 31.3649C89.0931 32.808 87.2257 33.9391 84.9651 34.7582C82.7045 35.5772 80.0312 35.9868 76.945 35.9868H72.3452ZM74.9989 14.8371L73.2593 28.8199H77.8885C79.2645 28.8199 80.4194 28.62 81.3531 28.2202C82.2868 27.8204 83.0436 27.2549 83.6235 26.5235C84.2034 25.7922 84.6211 24.9195 84.8766 23.9054C85.1322 22.8913 85.2599 21.7797 85.2599 20.5706C85.2599 19.732 85.1469 18.9617 84.9208 18.2596C84.6948 17.5576 84.3459 16.953 83.8741 16.446C83.4023 15.9389 82.8077 15.544 82.0902 15.2612C81.3727 14.9785 80.5226 14.8371 79.5397 14.8371H74.9989ZM106.267 44.0898C107.289 44.0898 108.203 43.7826 109.009 43.1683C109.815 42.554 110.498 41.7154 111.058 40.6526C111.619 39.5897 112.051 38.3514 112.356 36.9375C112.66 35.5236 112.813 34.0171 112.813 32.4179C112.813 30.2142 112.513 28.6395 111.913 27.6936C111.314 26.7478 110.336 26.2749 108.98 26.2749C107.957 26.2749 107.043 26.582 106.237 27.1963C105.431 27.8107 104.748 28.6443 104.188 29.6974C103.628 30.7506 103.195 31.9889 102.891 33.4125C102.586 34.8362 102.434 36.3475 102.434 37.9467C102.434 40.1114 102.734 41.6764 103.333 42.6418C103.933 43.6071 104.911 44.0898 106.267 44.0898V44.0898ZM105.441 50.8179C103.731 50.8179 102.134 50.5351 100.65 49.9696C99.1658 49.404 97.8783 48.5801 96.7873 47.4977C95.6963 46.4154 94.8412 45.0795 94.222 43.4901C93.6028 41.9007 93.2932 40.0724 93.2932 38.0052C93.2932 35.314 93.7404 32.8421 94.6348 30.5897C95.5292 28.3372 96.7332 26.3919 98.2468 24.7537C99.7604 23.1156 101.515 21.8382 103.51 20.9216C105.505 20.0051 107.604 19.5468 109.805 19.5468C111.515 19.5468 113.108 19.8295 114.582 20.3951C116.056 20.9606 117.339 21.7846 118.43 22.8669C119.521 23.9493 120.381 25.2852 121.01 26.8746C121.639 28.464 121.953 30.2923 121.953 32.3595C121.953 35.0117 121.506 37.464 120.612 39.7165C119.717 41.969 118.513 43.9191 117 45.5671C115.486 47.215 113.732 48.5021 111.737 49.4284C109.741 50.3547 107.643 50.8179 105.441 50.8179V50.8179ZM145.424 50.3499C144.854 50.3499 144.377 50.2767 143.994 50.1305C143.611 49.9842 143.306 49.7843 143.08 49.5308C142.854 49.2773 142.697 48.975 142.608 48.624C142.52 48.2729 142.475 47.8926 142.475 47.4831V44.9381C141.08 46.7713 139.537 48.2095 137.846 49.2529C136.156 50.2962 134.357 50.8179 132.45 50.8179C131.192 50.8179 130.042 50.5985 129 50.1597C127.959 49.7209 127.059 49.0335 126.302 48.0974C125.546 47.1613 124.956 45.9668 124.533 44.5139C124.111 43.0611 123.899 41.3205 123.899 39.2923C123.899 37.5372 124.086 35.8259 124.46 34.1585C124.833 32.4911 125.354 30.9261 126.022 29.4634C126.691 28.0008 127.487 26.6601 128.411 25.4412C129.335 24.2223 130.352 23.179 131.462 22.3111C132.573 21.4433 133.748 20.7656 134.986 20.2781C136.224 19.7905 137.502 19.5468 138.819 19.5468C140.077 19.5468 141.212 19.7564 142.225 20.1757C143.237 20.595 144.127 21.1459 144.893 21.8285L146.839 6.55856H155.803L150.319 50.3499H145.424ZM136.106 43.9143C136.735 43.9143 137.389 43.6803 138.067 43.2122C138.745 42.7442 139.404 42.1006 140.043 41.2815C140.682 40.4625 141.276 39.502 141.827 38.4001C142.377 37.2983 142.849 36.1136 143.242 34.8459L144.186 27.4742C143.615 27.0257 142.982 26.7039 142.284 26.5089C141.586 26.3139 140.922 26.2164 140.293 26.2164C139.232 26.2164 138.254 26.5674 137.36 27.2695C136.465 27.9715 135.694 28.893 135.045 30.0339C134.396 31.1747 133.89 32.4765 133.526 33.9391C133.163 35.4017 132.981 36.8936 132.981 38.4148C132.981 40.3455 133.266 41.7447 133.836 42.6125C134.406 43.4804 135.163 43.9143 136.106 43.9143V43.9143ZM176.641 26.3919C176.366 26.7429 176.11 26.9965 175.874 27.1525C175.639 27.3085 175.324 27.3865 174.931 27.3865C174.538 27.3865 174.15 27.2987 173.766 27.1232C173.383 26.9477 172.97 26.7478 172.528 26.5235C172.086 26.2993 171.584 26.0994 171.024 25.9239C170.464 25.7483 169.82 25.6606 169.093 25.6606C167.736 25.6606 166.768 25.919 166.188 26.4358C165.609 26.9526 165.319 27.6205 165.319 28.4396C165.319 28.9661 165.481 29.4147 165.805 29.7852C166.129 30.1558 166.557 30.4873 167.088 30.7798C167.619 31.0723 168.223 31.3405 168.901 31.5843C169.579 31.828 170.272 32.1011 170.98 32.4033C171.688 32.7056 172.38 33.0518 173.059 33.4418C173.737 33.8318 174.341 34.3096 174.872 34.8752C175.403 35.4407 175.83 36.1135 176.155 36.8936C176.479 37.6737 176.641 38.6 176.641 39.6726C176.641 41.1938 176.336 42.632 175.727 43.9874C175.118 45.3428 174.243 46.5226 173.103 47.527C171.963 48.5313 170.582 49.3309 168.96 49.9257C167.338 50.5205 165.515 50.8179 163.491 50.8179C162.527 50.8179 161.574 50.7204 160.63 50.5254C159.687 50.3304 158.797 50.0671 157.962 49.7356C157.127 49.404 156.365 49.0091 155.677 48.5508C154.989 48.0925 154.429 47.6001 153.996 47.0736L156.237 43.7388C156.512 43.3487 156.832 43.0416 157.195 42.8173C157.559 42.593 158.006 42.4809 158.537 42.4809C159.028 42.4809 159.451 42.5979 159.805 42.8319C160.159 43.0659 160.542 43.3195 160.955 43.5925C161.368 43.8655 161.859 44.119 162.429 44.3531C162.999 44.5871 163.746 44.7041 164.67 44.7041C165.967 44.7041 166.931 44.4164 167.56 43.8411C168.189 43.2658 168.503 42.5882 168.503 41.8081C168.503 41.2035 168.341 40.7062 168.017 40.3162C167.692 39.9262 167.265 39.5897 166.734 39.307C166.203 39.0242 165.604 38.7707 164.935 38.5464C164.267 38.3221 163.579 38.0735 162.871 37.8005C162.164 37.5274 161.476 37.2105 160.807 36.8497C160.139 36.489 159.539 36.0355 159.009 35.4895C158.478 34.9434 158.05 34.2706 157.726 33.4711C157.402 32.6715 157.24 31.7061 157.24 30.575C157.24 29.1709 157.5 27.8058 158.021 26.4797C158.542 25.1535 159.318 23.9786 160.35 22.9547C161.382 21.9309 162.665 21.1069 164.198 20.4829C165.731 19.8588 167.52 19.5468 169.565 19.5468C171.609 19.5468 173.432 19.8978 175.034 20.5999C176.636 21.3019 177.958 22.16 179 23.1741L176.641 26.3919Z" fill="#95BF3B"/>
</svg>
