<svg width="600" height="447" viewBox="0 0 600 447" fill="none" xmlns="http://www.w3.org/2000/svg">
<rect width="600" height="447" fill="#8B8B96" fill-opacity="0.1"/>
<g filter="url(#filter0_d)">
<rect x="40" y="200" width="451" height="35" rx="9" fill="white" fill-opacity="0.8"/>
<rect x="40.5" y="200.5" width="450" height="34" rx="8.5" stroke="#DCDDDF"/>
</g>
<rect x="46" y="185" width="191" height="5" rx="2.5" fill="#26261B" fill-opacity="0.4"/>
<g filter="url(#filter1_d)">
<rect x="40" y="265" width="520" height="101" rx="9" fill="white" fill-opacity="0.8"/>
<rect x="40.5" y="265.5" width="519" height="100" rx="8.5" stroke="#DCDDDF"/>
</g>
<rect x="47" y="250" width="99" height="5" rx="2.5" fill="#26261B" fill-opacity="0.4"/>
<g filter="url(#filter2_d)">
<rect x="40" y="135" width="250" height="35" rx="9" fill="white" fill-opacity="0.8"/>
<rect x="40.5" y="135.5" width="249" height="34" rx="8.5" stroke="#DCDDDF"/>
</g>
<rect x="47" y="120" width="99" height="5" rx="2.5" fill="#26261B" fill-opacity="0.4"/>
<path d="M263.547 76H262.416L258.121 69.4258V76H256.99V67.4688H258.121L262.428 74.0723V67.4688H263.547V76ZM265.088 72.7715C265.088 72.1504 265.209 71.5918 265.451 71.0957C265.697 70.5996 266.037 70.2168 266.471 69.9473C266.908 69.6777 267.406 69.543 267.965 69.543C268.828 69.543 269.525 69.8418 270.057 70.4395C270.592 71.0371 270.859 71.832 270.859 72.8242V72.9004C270.859 73.5176 270.74 74.0723 270.502 74.5645C270.268 75.0527 269.93 75.4336 269.488 75.707C269.051 75.9805 268.547 76.1172 267.977 76.1172C267.117 76.1172 266.42 75.8184 265.885 75.2207C265.354 74.623 265.088 73.832 265.088 72.8477V72.7715ZM266.178 72.9004C266.178 73.6035 266.34 74.168 266.664 74.5938C266.992 75.0195 267.43 75.2324 267.977 75.2324C268.527 75.2324 268.965 75.0176 269.289 74.5879C269.613 74.1543 269.775 73.5488 269.775 72.7715C269.775 72.0762 269.609 71.5137 269.277 71.084C268.949 70.6504 268.512 70.4336 267.965 70.4336C267.43 70.4336 266.998 70.6465 266.67 71.0723C266.342 71.498 266.178 72.1074 266.178 72.9004ZM280.551 72.9004C280.551 73.8652 280.33 74.6426 279.889 75.2324C279.447 75.8223 278.85 76.1172 278.096 76.1172C277.326 76.1172 276.721 75.873 276.279 75.3848V78.4375H275.195V69.6602H276.186L276.238 70.3633C276.68 69.8164 277.293 69.543 278.078 69.543C278.84 69.543 279.441 69.8301 279.883 70.4043C280.328 70.9785 280.551 71.7773 280.551 72.8008V72.9004ZM279.467 72.7773C279.467 72.0625 279.314 71.498 279.01 71.084C278.705 70.6699 278.287 70.4629 277.756 70.4629C277.1 70.4629 276.607 70.7539 276.279 71.3359V74.3652C276.604 74.9434 277.1 75.2324 277.768 75.2324C278.287 75.2324 278.699 75.0273 279.004 74.6172C279.312 74.2031 279.467 73.5898 279.467 72.7773ZM284.998 70.6328C284.834 70.6055 284.656 70.5918 284.465 70.5918C283.754 70.5918 283.271 70.8945 283.018 71.5V76H281.934V69.6602H282.988L283.006 70.3926C283.361 69.8262 283.865 69.543 284.518 69.543C284.729 69.543 284.889 69.5703 284.998 69.625V70.6328ZM288.514 76.1172C287.654 76.1172 286.955 75.8359 286.416 75.2734C285.877 74.707 285.607 73.9512 285.607 73.0059V72.8066C285.607 72.1777 285.727 71.6172 285.965 71.125C286.207 70.6289 286.543 70.2422 286.973 69.9648C287.406 69.6836 287.875 69.543 288.379 69.543C289.203 69.543 289.844 69.8145 290.301 70.3574C290.758 70.9004 290.986 71.6777 290.986 72.6895V73.1406H286.691C286.707 73.7656 286.889 74.2715 287.236 74.6582C287.588 75.041 288.033 75.2324 288.572 75.2324C288.955 75.2324 289.279 75.1543 289.545 74.998C289.811 74.8418 290.043 74.6348 290.242 74.377L290.904 74.8926C290.373 75.709 289.576 76.1172 288.514 76.1172ZM288.379 70.4336C287.941 70.4336 287.574 70.5938 287.277 70.9141C286.98 71.2305 286.797 71.6758 286.727 72.25H289.902V72.168C289.871 71.6172 289.723 71.1914 289.457 70.8906C289.191 70.5859 288.832 70.4336 288.379 70.4336ZM294.256 74.5293L295.826 69.6602H296.934L294.66 76H293.834L291.537 69.6602H292.645L294.256 74.5293ZM299.154 76H298.07V69.6602H299.154V76ZM297.982 67.9785C297.982 67.8027 298.035 67.6543 298.141 67.5332C298.25 67.4121 298.41 67.3516 298.621 67.3516C298.832 67.3516 298.992 67.4121 299.102 67.5332C299.211 67.6543 299.266 67.8027 299.266 67.9785C299.266 68.1543 299.211 68.3008 299.102 68.418C298.992 68.5352 298.832 68.5938 298.621 68.5938C298.41 68.5938 298.25 68.5352 298.141 68.418C298.035 68.3008 297.982 68.1543 297.982 67.9785ZM303.525 76.1172C302.666 76.1172 301.967 75.8359 301.428 75.2734C300.889 74.707 300.619 73.9512 300.619 73.0059V72.8066C300.619 72.1777 300.738 71.6172 300.977 71.125C301.219 70.6289 301.555 70.2422 301.984 69.9648C302.418 69.6836 302.887 69.543 303.391 69.543C304.215 69.543 304.855 69.8145 305.312 70.3574C305.77 70.9004 305.998 71.6777 305.998 72.6895V73.1406H301.703C301.719 73.7656 301.9 74.2715 302.248 74.6582C302.6 75.041 303.045 75.2324 303.584 75.2324C303.967 75.2324 304.291 75.1543 304.557 74.998C304.822 74.8418 305.055 74.6348 305.254 74.377L305.916 74.8926C305.385 75.709 304.588 76.1172 303.525 76.1172ZM303.391 70.4336C302.953 70.4336 302.586 70.5938 302.289 70.9141C301.992 71.2305 301.809 71.6758 301.738 72.25H304.914V72.168C304.883 71.6172 304.734 71.1914 304.469 70.8906C304.203 70.5859 303.844 70.4336 303.391 70.4336ZM312.871 74.5059L314.09 69.6602H315.174L313.328 76H312.449L310.908 71.1953L309.408 76H308.529L306.689 69.6602H307.768L309.016 74.4062L310.492 69.6602H311.365L312.871 74.5059ZM320.436 76H319.352V69.6602H320.436V76ZM319.264 67.9785C319.264 67.8027 319.316 67.6543 319.422 67.5332C319.531 67.4121 319.691 67.3516 319.902 67.3516C320.113 67.3516 320.273 67.4121 320.383 67.5332C320.492 67.6543 320.547 67.8027 320.547 67.9785C320.547 68.1543 320.492 68.3008 320.383 68.418C320.273 68.5352 320.113 68.5938 319.902 68.5938C319.691 68.5938 319.531 68.5352 319.422 68.418C319.316 68.3008 319.264 68.1543 319.264 67.9785ZM325.867 74.3184C325.867 74.0254 325.756 73.7988 325.533 73.6387C325.314 73.4746 324.93 73.334 324.379 73.2168C323.832 73.0996 323.396 72.959 323.072 72.7949C322.752 72.6309 322.514 72.4355 322.357 72.209C322.205 71.9824 322.129 71.7129 322.129 71.4004C322.129 70.8809 322.348 70.4414 322.785 70.082C323.227 69.7227 323.789 69.543 324.473 69.543C325.191 69.543 325.773 69.7285 326.219 70.0996C326.668 70.4707 326.893 70.9453 326.893 71.5234H325.803C325.803 71.2266 325.676 70.9707 325.422 70.7559C325.172 70.541 324.855 70.4336 324.473 70.4336C324.078 70.4336 323.77 70.5195 323.547 70.6914C323.324 70.8633 323.213 71.0879 323.213 71.3652C323.213 71.627 323.316 71.8242 323.523 71.957C323.73 72.0898 324.104 72.2168 324.643 72.3379C325.186 72.459 325.625 72.6035 325.961 72.7715C326.297 72.9395 326.545 73.1426 326.705 73.3809C326.869 73.6152 326.951 73.9023 326.951 74.2422C326.951 74.8086 326.725 75.2637 326.271 75.6074C325.818 75.9473 325.23 76.1172 324.508 76.1172C324 76.1172 323.551 76.0273 323.16 75.8477C322.77 75.668 322.463 75.418 322.24 75.0977C322.021 74.7734 321.912 74.4238 321.912 74.0488H322.996C323.016 74.4121 323.16 74.7012 323.43 74.916C323.703 75.127 324.062 75.2324 324.508 75.2324C324.918 75.2324 325.246 75.1504 325.492 74.9863C325.742 74.8184 325.867 74.5957 325.867 74.3184ZM335.254 76C335.191 75.875 335.141 75.6523 335.102 75.332C334.598 75.8555 333.996 76.1172 333.297 76.1172C332.672 76.1172 332.158 75.9414 331.756 75.5898C331.357 75.2344 331.158 74.7852 331.158 74.2422C331.158 73.582 331.408 73.0703 331.908 72.707C332.412 72.3398 333.119 72.1562 334.029 72.1562H335.084V71.6582C335.084 71.2793 334.971 70.9785 334.744 70.7559C334.518 70.5293 334.184 70.416 333.742 70.416C333.355 70.416 333.031 70.5137 332.77 70.709C332.508 70.9043 332.377 71.1406 332.377 71.418H331.287C331.287 71.1016 331.398 70.7969 331.621 70.5039C331.848 70.207 332.152 69.9727 332.535 69.8008C332.922 69.6289 333.346 69.543 333.807 69.543C334.537 69.543 335.109 69.7266 335.523 70.0938C335.938 70.457 336.152 70.959 336.168 71.5996V74.5176C336.168 75.0996 336.242 75.5625 336.391 75.9062V76H335.254ZM333.455 75.1738C333.795 75.1738 334.117 75.0859 334.422 74.9102C334.727 74.7344 334.947 74.5059 335.084 74.2246V72.9238H334.234C332.906 72.9238 332.242 73.3125 332.242 74.0898C332.242 74.4297 332.355 74.6953 332.582 74.8867C332.809 75.0781 333.1 75.1738 333.455 75.1738ZM339.865 74.5293L341.436 69.6602H342.543L340.27 76H339.443L337.146 69.6602H338.254L339.865 74.5293ZM347.406 76C347.344 75.875 347.293 75.6523 347.254 75.332C346.75 75.8555 346.148 76.1172 345.449 76.1172C344.824 76.1172 344.311 75.9414 343.908 75.5898C343.51 75.2344 343.311 74.7852 343.311 74.2422C343.311 73.582 343.561 73.0703 344.061 72.707C344.564 72.3398 345.271 72.1562 346.182 72.1562H347.236V71.6582C347.236 71.2793 347.123 70.9785 346.896 70.7559C346.67 70.5293 346.336 70.416 345.895 70.416C345.508 70.416 345.184 70.5137 344.922 70.709C344.66 70.9043 344.529 71.1406 344.529 71.418H343.439C343.439 71.1016 343.551 70.7969 343.773 70.5039C344 70.207 344.305 69.9727 344.688 69.8008C345.074 69.6289 345.498 69.543 345.959 69.543C346.689 69.543 347.262 69.7266 347.676 70.0938C348.09 70.457 348.305 70.959 348.32 71.5996V74.5176C348.32 75.0996 348.395 75.5625 348.543 75.9062V76H347.406ZM345.607 75.1738C345.947 75.1738 346.27 75.0859 346.574 74.9102C346.879 74.7344 347.1 74.5059 347.236 74.2246V72.9238H346.387C345.059 72.9238 344.395 73.3125 344.395 74.0898C344.395 74.4297 344.508 74.6953 344.734 74.8867C344.961 75.0781 345.252 75.1738 345.607 75.1738ZM351.197 76H350.113V69.6602H351.197V76ZM350.025 67.9785C350.025 67.8027 350.078 67.6543 350.184 67.5332C350.293 67.4121 350.453 67.3516 350.664 67.3516C350.875 67.3516 351.035 67.4121 351.145 67.5332C351.254 67.6543 351.309 67.8027 351.309 67.9785C351.309 68.1543 351.254 68.3008 351.145 68.418C351.035 68.5352 350.875 68.5938 350.664 68.5938C350.453 68.5938 350.293 68.5352 350.184 68.418C350.078 68.3008 350.025 68.1543 350.025 67.9785ZM354.115 76H353.031V67H354.115V76ZM359.77 76C359.707 75.875 359.656 75.6523 359.617 75.332C359.113 75.8555 358.512 76.1172 357.812 76.1172C357.188 76.1172 356.674 75.9414 356.271 75.5898C355.873 75.2344 355.674 74.7852 355.674 74.2422C355.674 73.582 355.924 73.0703 356.424 72.707C356.928 72.3398 357.635 72.1562 358.545 72.1562H359.6V71.6582C359.6 71.2793 359.486 70.9785 359.26 70.7559C359.033 70.5293 358.699 70.416 358.258 70.416C357.871 70.416 357.547 70.5137 357.285 70.709C357.023 70.9043 356.893 71.1406 356.893 71.418H355.803C355.803 71.1016 355.914 70.7969 356.137 70.5039C356.363 70.207 356.668 69.9727 357.051 69.8008C357.438 69.6289 357.861 69.543 358.322 69.543C359.053 69.543 359.625 69.7266 360.039 70.0938C360.453 70.457 360.668 70.959 360.684 71.5996V74.5176C360.684 75.0996 360.758 75.5625 360.906 75.9062V76H359.77ZM357.971 75.1738C358.311 75.1738 358.633 75.0859 358.938 74.9102C359.242 74.7344 359.463 74.5059 359.6 74.2246V72.9238H358.75C357.422 72.9238 356.758 73.3125 356.758 74.0898C356.758 74.4297 356.871 74.6953 357.098 74.8867C357.324 75.0781 357.615 75.1738 357.971 75.1738ZM367.75 72.9004C367.75 73.8691 367.527 74.6484 367.082 75.2383C366.637 75.8242 366.039 76.1172 365.289 76.1172C364.488 76.1172 363.869 75.834 363.432 75.2676L363.379 76H362.383V67H363.467V70.3574C363.904 69.8145 364.508 69.543 365.277 69.543C366.047 69.543 366.65 69.834 367.088 70.416C367.529 70.998 367.75 71.7949 367.75 72.8066V72.9004ZM366.666 72.7773C366.666 72.0391 366.523 71.4688 366.238 71.0664C365.953 70.6641 365.543 70.4629 365.008 70.4629C364.293 70.4629 363.779 70.7949 363.467 71.459V74.2012C363.799 74.8652 364.316 75.1973 365.02 75.1973C365.539 75.1973 365.943 74.9961 366.232 74.5938C366.521 74.1914 366.666 73.5859 366.666 72.7773ZM370.299 76H369.215V67H370.299V76ZM374.67 76.1172C373.811 76.1172 373.111 75.8359 372.572 75.2734C372.033 74.707 371.764 73.9512 371.764 73.0059V72.8066C371.764 72.1777 371.883 71.6172 372.121 71.125C372.363 70.6289 372.699 70.2422 373.129 69.9648C373.562 69.6836 374.031 69.543 374.535 69.543C375.359 69.543 376 69.8145 376.457 70.3574C376.914 70.9004 377.143 71.6777 377.143 72.6895V73.1406H372.848C372.863 73.7656 373.045 74.2715 373.393 74.6582C373.744 75.041 374.189 75.2324 374.729 75.2324C375.111 75.2324 375.436 75.1543 375.701 74.998C375.967 74.8418 376.199 74.6348 376.398 74.377L377.061 74.8926C376.529 75.709 375.732 76.1172 374.67 76.1172ZM374.535 70.4336C374.098 70.4336 373.73 70.5938 373.434 70.9141C373.137 71.2305 372.953 71.6758 372.883 72.25H376.059V72.168C376.027 71.6172 375.879 71.1914 375.613 70.8906C375.348 70.5859 374.988 70.4336 374.535 70.4336ZM378.367 77.6992L377.752 77.2773C378.119 76.7656 378.311 76.2383 378.326 75.6953V74.7168H379.387V75.5664C379.387 75.9609 379.289 76.3555 379.094 76.75C378.902 77.1445 378.66 77.4609 378.367 77.6992ZM385.809 74.4121L387.285 69.6602H388.445L385.896 76.9785C385.502 78.0332 384.875 78.5605 384.016 78.5605L383.811 78.543L383.406 78.4668V77.5879L383.699 77.6113C384.066 77.6113 384.352 77.5371 384.555 77.3887C384.762 77.2402 384.932 76.9688 385.064 76.5742L385.305 75.9297L383.043 69.6602H384.227L385.809 74.4121ZM389.037 72.7715C389.037 72.1504 389.158 71.5918 389.4 71.0957C389.646 70.5996 389.986 70.2168 390.42 69.9473C390.857 69.6777 391.355 69.543 391.914 69.543C392.777 69.543 393.475 69.8418 394.006 70.4395C394.541 71.0371 394.809 71.832 394.809 72.8242V72.9004C394.809 73.5176 394.689 74.0723 394.451 74.5645C394.217 75.0527 393.879 75.4336 393.438 75.707C393 75.9805 392.496 76.1172 391.926 76.1172C391.066 76.1172 390.369 75.8184 389.834 75.2207C389.303 74.623 389.037 73.832 389.037 72.8477V72.7715ZM390.127 72.9004C390.127 73.6035 390.289 74.168 390.613 74.5938C390.941 75.0195 391.379 75.2324 391.926 75.2324C392.477 75.2324 392.914 75.0176 393.238 74.5879C393.562 74.1543 393.725 73.5488 393.725 72.7715C393.725 72.0762 393.559 71.5137 393.227 71.084C392.898 70.6504 392.461 70.4336 391.914 70.4336C391.379 70.4336 390.947 70.6465 390.619 71.0723C390.291 71.498 390.127 72.1074 390.127 72.9004ZM400.082 75.373C399.66 75.8691 399.041 76.1172 398.225 76.1172C397.549 76.1172 397.033 75.9219 396.678 75.5312C396.326 75.1367 396.148 74.5547 396.145 73.7852V69.6602H397.229V73.7559C397.229 74.7168 397.619 75.1973 398.4 75.1973C399.229 75.1973 399.779 74.8887 400.053 74.2715V69.6602H401.137V76H400.105L400.082 75.373ZM411.379 74.5059L412.598 69.6602H413.682L411.836 76H410.957L409.416 71.1953L407.916 76H407.037L405.197 69.6602H406.275L407.523 74.4062L409 69.6602H409.873L411.379 74.5059ZM415.967 76H414.883V69.6602H415.967V76ZM414.795 67.9785C414.795 67.8027 414.848 67.6543 414.953 67.5332C415.062 67.4121 415.223 67.3516 415.434 67.3516C415.645 67.3516 415.805 67.4121 415.914 67.5332C416.023 67.6543 416.078 67.8027 416.078 67.9785C416.078 68.1543 416.023 68.3008 415.914 68.418C415.805 68.5352 415.645 68.5938 415.434 68.5938C415.223 68.5938 415.062 68.5352 414.953 68.418C414.848 68.3008 414.795 68.1543 414.795 67.9785ZM418.885 76H417.801V67H418.885V76ZM421.803 76H420.719V67H421.803V76ZM430.211 74.3184C430.211 74.0254 430.1 73.7988 429.877 73.6387C429.658 73.4746 429.273 73.334 428.723 73.2168C428.176 73.0996 427.74 72.959 427.416 72.7949C427.096 72.6309 426.857 72.4355 426.701 72.209C426.549 71.9824 426.473 71.7129 426.473 71.4004C426.473 70.8809 426.691 70.4414 427.129 70.082C427.57 69.7227 428.133 69.543 428.816 69.543C429.535 69.543 430.117 69.7285 430.562 70.0996C431.012 70.4707 431.236 70.9453 431.236 71.5234H430.146C430.146 71.2266 430.02 70.9707 429.766 70.7559C429.516 70.541 429.199 70.4336 428.816 70.4336C428.422 70.4336 428.113 70.5195 427.891 70.6914C427.668 70.8633 427.557 71.0879 427.557 71.3652C427.557 71.627 427.66 71.8242 427.867 71.957C428.074 72.0898 428.447 72.2168 428.986 72.3379C429.529 72.459 429.969 72.6035 430.305 72.7715C430.641 72.9395 430.889 73.1426 431.049 73.3809C431.213 73.6152 431.295 73.9023 431.295 74.2422C431.295 74.8086 431.068 75.2637 430.615 75.6074C430.162 75.9473 429.574 76.1172 428.852 76.1172C428.344 76.1172 427.895 76.0273 427.504 75.8477C427.113 75.668 426.807 75.418 426.584 75.0977C426.365 74.7734 426.256 74.4238 426.256 74.0488H427.34C427.359 74.4121 427.504 74.7012 427.773 74.916C428.047 75.127 428.406 75.2324 428.852 75.2324C429.262 75.2324 429.59 75.1504 429.836 74.9863C430.086 74.8184 430.211 74.5957 430.211 74.3184ZM435.338 76.1172C434.479 76.1172 433.779 75.8359 433.24 75.2734C432.701 74.707 432.432 73.9512 432.432 73.0059V72.8066C432.432 72.1777 432.551 71.6172 432.789 71.125C433.031 70.6289 433.367 70.2422 433.797 69.9648C434.23 69.6836 434.699 69.543 435.203 69.543C436.027 69.543 436.668 69.8145 437.125 70.3574C437.582 70.9004 437.811 71.6777 437.811 72.6895V73.1406H433.516C433.531 73.7656 433.713 74.2715 434.061 74.6582C434.412 75.041 434.857 75.2324 435.396 75.2324C435.779 75.2324 436.104 75.1543 436.369 74.998C436.635 74.8418 436.867 74.6348 437.066 74.377L437.729 74.8926C437.197 75.709 436.4 76.1172 435.338 76.1172ZM435.203 70.4336C434.766 70.4336 434.398 70.5938 434.102 70.9141C433.805 71.2305 433.621 71.6758 433.551 72.25H436.727V72.168C436.695 71.6172 436.547 71.1914 436.281 70.8906C436.016 70.5859 435.656 70.4336 435.203 70.4336ZM441.701 76.1172C440.842 76.1172 440.143 75.8359 439.604 75.2734C439.064 74.707 438.795 73.9512 438.795 73.0059V72.8066C438.795 72.1777 438.914 71.6172 439.152 71.125C439.395 70.6289 439.73 70.2422 440.16 69.9648C440.594 69.6836 441.062 69.543 441.566 69.543C442.391 69.543 443.031 69.8145 443.488 70.3574C443.945 70.9004 444.174 71.6777 444.174 72.6895V73.1406H439.879C439.895 73.7656 440.076 74.2715 440.424 74.6582C440.775 75.041 441.221 75.2324 441.76 75.2324C442.143 75.2324 442.467 75.1543 442.732 74.998C442.998 74.8418 443.23 74.6348 443.43 74.377L444.092 74.8926C443.561 75.709 442.764 76.1172 441.701 76.1172ZM441.566 70.4336C441.129 70.4336 440.762 70.5938 440.465 70.9141C440.168 71.2305 439.984 71.6758 439.914 72.25H443.09V72.168C443.059 71.6172 442.91 71.1914 442.645 70.8906C442.379 70.5859 442.02 70.4336 441.566 70.4336ZM449.588 76H448.504V69.6602H449.588V76ZM448.416 67.9785C448.416 67.8027 448.469 67.6543 448.574 67.5332C448.684 67.4121 448.844 67.3516 449.055 67.3516C449.266 67.3516 449.426 67.4121 449.535 67.5332C449.645 67.6543 449.699 67.8027 449.699 67.9785C449.699 68.1543 449.645 68.3008 449.535 68.418C449.426 68.5352 449.266 68.5938 449.055 68.5938C448.844 68.5938 448.684 68.5352 448.574 68.418C448.469 68.3008 448.416 68.1543 448.416 67.9785ZM452.799 68.125V69.6602H453.982V70.498H452.799V74.4297C452.799 74.6836 452.852 74.875 452.957 75.0039C453.062 75.1289 453.242 75.1914 453.496 75.1914C453.621 75.1914 453.793 75.168 454.012 75.1211V76C453.727 76.0781 453.449 76.1172 453.18 76.1172C452.695 76.1172 452.33 75.9707 452.084 75.6777C451.838 75.3848 451.715 74.9688 451.715 74.4297V70.498H450.561V69.6602H451.715V68.125H452.799ZM457.943 72.7715C457.943 72.1504 458.064 71.5918 458.307 71.0957C458.553 70.5996 458.893 70.2168 459.326 69.9473C459.764 69.6777 460.262 69.543 460.82 69.543C461.684 69.543 462.381 69.8418 462.912 70.4395C463.447 71.0371 463.715 71.832 463.715 72.8242V72.9004C463.715 73.5176 463.596 74.0723 463.357 74.5645C463.123 75.0527 462.785 75.4336 462.344 75.707C461.906 75.9805 461.402 76.1172 460.832 76.1172C459.973 76.1172 459.275 75.8184 458.74 75.2207C458.209 74.623 457.943 73.832 457.943 72.8477V72.7715ZM459.033 72.9004C459.033 73.6035 459.195 74.168 459.52 74.5938C459.848 75.0195 460.285 75.2324 460.832 75.2324C461.383 75.2324 461.82 75.0176 462.145 74.5879C462.469 74.1543 462.631 73.5488 462.631 72.7715C462.631 72.0762 462.465 71.5137 462.133 71.084C461.805 70.6504 461.367 70.4336 460.82 70.4336C460.285 70.4336 459.854 70.6465 459.525 71.0723C459.197 71.498 459.033 72.1074 459.033 72.9004ZM466.1 69.6602L466.135 70.457C466.619 69.8477 467.252 69.543 468.033 69.543C469.373 69.543 470.049 70.2988 470.061 71.8105V76H468.977V71.8047C468.973 71.3477 468.867 71.0098 468.66 70.791C468.457 70.5723 468.139 70.4629 467.705 70.4629C467.354 70.4629 467.045 70.5566 466.779 70.7441C466.514 70.9316 466.307 71.1777 466.158 71.4824V76H465.074V69.6602H466.1ZM476.143 68.125V69.6602H477.326V70.498H476.143V74.4297C476.143 74.6836 476.195 74.875 476.301 75.0039C476.406 75.1289 476.586 75.1914 476.84 75.1914C476.965 75.1914 477.137 75.168 477.355 75.1211V76C477.07 76.0781 476.793 76.1172 476.523 76.1172C476.039 76.1172 475.674 75.9707 475.428 75.6777C475.182 75.3848 475.059 74.9688 475.059 74.4297V70.498H473.904V69.6602H475.059V68.125H476.143ZM479.682 70.4277C480.162 69.8379 480.787 69.543 481.557 69.543C482.896 69.543 483.572 70.2988 483.584 71.8105V76H482.5V71.8047C482.496 71.3477 482.391 71.0098 482.184 70.791C481.98 70.5723 481.662 70.4629 481.229 70.4629C480.877 70.4629 480.568 70.5566 480.303 70.7441C480.037 70.9316 479.83 71.1777 479.682 71.4824V76H478.598V67H479.682V70.4277ZM487.838 76.1172C486.979 76.1172 486.279 75.8359 485.74 75.2734C485.201 74.707 484.932 73.9512 484.932 73.0059V72.8066C484.932 72.1777 485.051 71.6172 485.289 71.125C485.531 70.6289 485.867 70.2422 486.297 69.9648C486.73 69.6836 487.199 69.543 487.703 69.543C488.527 69.543 489.168 69.8145 489.625 70.3574C490.082 70.9004 490.311 71.6777 490.311 72.6895V73.1406H486.016C486.031 73.7656 486.213 74.2715 486.561 74.6582C486.912 75.041 487.357 75.2324 487.896 75.2324C488.279 75.2324 488.604 75.1543 488.869 74.998C489.135 74.8418 489.367 74.6348 489.566 74.377L490.229 74.8926C489.697 75.709 488.9 76.1172 487.838 76.1172ZM487.703 70.4336C487.266 70.4336 486.898 70.5938 486.602 70.9141C486.305 71.2305 486.121 71.6758 486.051 72.25H489.227V72.168C489.195 71.6172 489.047 71.1914 488.781 70.8906C488.516 70.5859 488.156 70.4336 487.703 70.4336ZM495.08 76V70.498H494.078V69.6602H495.08V69.0098C495.08 68.3301 495.262 67.8047 495.625 67.4336C495.988 67.0625 496.502 66.877 497.166 66.877C497.416 66.877 497.664 66.9102 497.91 66.9766L497.852 67.8555C497.668 67.8203 497.473 67.8027 497.266 67.8027C496.914 67.8027 496.643 67.9062 496.451 68.1133C496.26 68.3164 496.164 68.6094 496.164 68.9922V69.6602H497.518V70.498H496.164V76H495.08ZM501.783 70.6328C501.619 70.6055 501.441 70.5918 501.25 70.5918C500.539 70.5918 500.057 70.8945 499.803 71.5V76H498.719V69.6602H499.773L499.791 70.3926C500.146 69.8262 500.65 69.543 501.303 69.543C501.514 69.543 501.674 69.5703 501.783 69.625V70.6328ZM502.381 72.7715C502.381 72.1504 502.502 71.5918 502.744 71.0957C502.99 70.5996 503.33 70.2168 503.764 69.9473C504.201 69.6777 504.699 69.543 505.258 69.543C506.121 69.543 506.818 69.8418 507.35 70.4395C507.885 71.0371 508.152 71.832 508.152 72.8242V72.9004C508.152 73.5176 508.033 74.0723 507.795 74.5645C507.561 75.0527 507.223 75.4336 506.781 75.707C506.344 75.9805 505.84 76.1172 505.27 76.1172C504.41 76.1172 503.713 75.8184 503.178 75.2207C502.646 74.623 502.381 73.832 502.381 72.8477V72.7715ZM503.471 72.9004C503.471 73.6035 503.633 74.168 503.957 74.5938C504.285 75.0195 504.723 75.2324 505.27 75.2324C505.82 75.2324 506.258 75.0176 506.582 74.5879C506.906 74.1543 507.068 73.5488 507.068 72.7715C507.068 72.0762 506.902 71.5137 506.57 71.084C506.242 70.6504 505.805 70.4336 505.258 70.4336C504.723 70.4336 504.291 70.6465 503.963 71.0723C503.635 71.498 503.471 72.1074 503.471 72.9004ZM510.537 69.6602L510.572 70.457C511.057 69.8477 511.689 69.543 512.471 69.543C513.811 69.543 514.486 70.2988 514.498 71.8105V76H513.414V71.8047C513.41 71.3477 513.305 71.0098 513.098 70.791C512.895 70.5723 512.576 70.4629 512.143 70.4629C511.791 70.4629 511.482 70.5566 511.217 70.7441C510.951 70.9316 510.744 71.1777 510.596 71.4824V76H509.512V69.6602H510.537ZM517.604 68.125V69.6602H518.787V70.498H517.604V74.4297C517.604 74.6836 517.656 74.875 517.762 75.0039C517.867 75.1289 518.047 75.1914 518.301 75.1914C518.426 75.1914 518.598 75.168 518.816 75.1211V76C518.531 76.0781 518.254 76.1172 517.984 76.1172C517.5 76.1172 517.135 75.9707 516.889 75.6777C516.643 75.3848 516.52 74.9688 516.52 74.4297V70.498H515.365V69.6602H516.52V68.125H517.604ZM522.689 76.1172C521.83 76.1172 521.131 75.8359 520.592 75.2734C520.053 74.707 519.783 73.9512 519.783 73.0059V72.8066C519.783 72.1777 519.902 71.6172 520.141 71.125C520.383 70.6289 520.719 70.2422 521.148 69.9648C521.582 69.6836 522.051 69.543 522.555 69.543C523.379 69.543 524.02 69.8145 524.477 70.3574C524.934 70.9004 525.162 71.6777 525.162 72.6895V73.1406H520.867C520.883 73.7656 521.064 74.2715 521.412 74.6582C521.764 75.041 522.209 75.2324 522.748 75.2324C523.131 75.2324 523.455 75.1543 523.721 74.998C523.986 74.8418 524.219 74.6348 524.418 74.377L525.08 74.8926C524.549 75.709 523.752 76.1172 522.689 76.1172ZM522.555 70.4336C522.117 70.4336 521.75 70.5938 521.453 70.9141C521.156 71.2305 520.973 71.6758 520.902 72.25H524.078V72.168C524.047 71.6172 523.898 71.1914 523.633 70.8906C523.367 70.5859 523.008 70.4336 522.555 70.4336ZM527.447 69.6602L527.482 70.457C527.967 69.8477 528.6 69.543 529.381 69.543C530.721 69.543 531.396 70.2988 531.408 71.8105V76H530.324V71.8047C530.32 71.3477 530.215 71.0098 530.008 70.791C529.805 70.5723 529.486 70.4629 529.053 70.4629C528.701 70.4629 528.393 70.5566 528.127 70.7441C527.861 70.9316 527.654 71.1777 527.506 71.4824V76H526.422V69.6602H527.447ZM532.779 72.7773C532.779 71.8047 533.01 71.0234 533.471 70.4336C533.932 69.8398 534.535 69.543 535.281 69.543C536.023 69.543 536.611 69.7969 537.045 70.3047V67H538.129V76H537.133L537.08 75.3203C536.646 75.8516 536.043 76.1172 535.27 76.1172C534.535 76.1172 533.936 75.8164 533.471 75.2148C533.01 74.6133 532.779 73.8281 532.779 72.8594V72.7773ZM533.863 72.9004C533.863 73.6191 534.012 74.1816 534.309 74.5879C534.605 74.9941 535.016 75.1973 535.539 75.1973C536.227 75.1973 536.729 74.8887 537.045 74.2715V71.3594C536.721 70.7617 536.223 70.4629 535.551 70.4629C535.02 70.4629 534.605 70.668 534.309 71.0781C534.012 71.4883 533.863 72.0957 533.863 72.9004ZM539.84 75.4316C539.84 75.2441 539.895 75.0879 540.004 74.9629C540.117 74.8379 540.285 74.7754 540.508 74.7754C540.73 74.7754 540.898 74.8379 541.012 74.9629C541.129 75.0879 541.188 75.2441 541.188 75.4316C541.188 75.6113 541.129 75.7617 541.012 75.8828C540.898 76.0039 540.73 76.0645 540.508 76.0645C540.285 76.0645 540.117 76.0039 540.004 75.8828C539.895 75.7617 539.84 75.6113 539.84 75.4316Z" fill="black" fill-opacity="0.6"/>
<path d="M263.859 49.3516H259.359V54H257.016V42.625H264.422V44.5234H259.359V47.4609H263.859V49.3516ZM265.109 49.6953C265.109 48.8568 265.271 48.1094 265.594 47.4531C265.917 46.7969 266.38 46.2891 266.984 45.9297C267.594 45.5703 268.299 45.3906 269.102 45.3906C270.242 45.3906 271.172 45.7396 271.891 46.4375C272.615 47.1354 273.018 48.0833 273.102 49.2812L273.117 49.8594C273.117 51.1562 272.755 52.1979 272.031 52.9844C271.307 53.7656 270.336 54.1562 269.117 54.1562C267.898 54.1562 266.924 53.7656 266.195 52.9844C265.471 52.2031 265.109 51.1406 265.109 49.7969V49.6953ZM267.367 49.8594C267.367 50.6615 267.518 51.276 267.82 51.7031C268.122 52.125 268.555 52.3359 269.117 52.3359C269.664 52.3359 270.091 52.1276 270.398 51.7109C270.706 51.2891 270.859 50.6172 270.859 49.6953C270.859 48.9089 270.706 48.2995 270.398 47.8672C270.091 47.4349 269.659 47.2188 269.102 47.2188C268.549 47.2188 268.122 47.4349 267.82 47.8672C267.518 48.2943 267.367 48.9583 267.367 49.8594ZM279.258 47.6641C278.951 47.6224 278.68 47.6016 278.445 47.6016C277.591 47.6016 277.031 47.8906 276.766 48.4688V54H274.508V45.5469H276.641L276.703 46.5547C277.156 45.7786 277.784 45.3906 278.586 45.3906C278.836 45.3906 279.07 45.4245 279.289 45.4922L279.258 47.6641ZM282.469 45.5469L282.539 46.4922C283.138 45.7578 283.948 45.3906 284.969 45.3906C286.057 45.3906 286.805 45.8203 287.211 46.6797C287.805 45.8203 288.651 45.3906 289.75 45.3906C290.667 45.3906 291.349 45.6589 291.797 46.1953C292.245 46.7266 292.469 47.5286 292.469 48.6016V54H290.203V48.6094C290.203 48.1302 290.109 47.7812 289.922 47.5625C289.734 47.3385 289.404 47.2266 288.93 47.2266C288.253 47.2266 287.784 47.5495 287.523 48.1953L287.531 54H285.273V48.6172C285.273 48.1276 285.177 47.7734 284.984 47.5547C284.792 47.3359 284.464 47.2266 284 47.2266C283.359 47.2266 282.896 47.4922 282.609 48.0234V54H280.352V45.5469H282.469Z" fill="black"/>
<g filter="url(#filter3_d)">
<rect x="443" y="383" width="117" height="30" rx="9" fill="#95BF3B"/>
</g>
<mask id="mask0" mask-type="alpha" maskUnits="userSpaceOnUse" x="43" y="34" width="50" height="50">
<path fill-rule="evenodd" clip-rule="evenodd" d="M43.2959 58.9744C43.2959 72.6482 54.4705 83.7332 68.2547 83.7332V83.7332C78.3941 83.7332 87.1214 77.7356 91.028 69.1217V69.1217C89.94 65.8233 88.9984 60.0201 92.754 54.2195V54.2195C92.5933 53.4002 92.3919 52.5955 92.152 51.8075V51.8075C80.6357 63.1536 71.3377 64.2162 64.3372 64.0313V64.0313C64.2725 64.0292 64.037 63.9914 63.9745 63.8513V63.8513C63.9745 63.8513 63.8724 63.3976 64.1708 63.3976V63.3976C77.5827 63.3976 85.2212 55.5685 91.4618 49.8441V49.8441C91.1214 48.993 90.7346 48.1654 90.3047 47.3636V47.3636C83.5773 45.5275 80.992 40.0611 80.0743 37.1622V37.1622C76.5562 35.2821 72.531 34.2152 68.2547 34.2152V34.2152C54.4705 34.2152 43.2959 45.3002 43.2959 58.9744V58.9744ZM75.0491 41.6763C75.0491 41.6763 84.5776 40.6476 87.3838 52.3286V52.3286C76.9715 51.6162 75.0491 41.6763 75.0491 41.6763V41.6763ZM71.2367 46.5914C71.2367 46.5914 79.6844 46.3115 81.6075 56.792V56.792C72.4624 55.4792 71.2367 46.5914 71.2367 46.5914V46.5914ZM66.5964 50.7566C66.5964 50.7566 74.1988 50.2643 76.1443 59.6488V59.6488C67.8804 58.7269 66.5964 50.7566 66.5964 50.7566V50.7566ZM87.3838 52.3286C87.3947 52.3293 87.4045 52.3299 87.4153 52.3308V52.3308L87.3924 52.3649C87.3896 52.3528 87.3867 52.3407 87.3838 52.3286V52.3286ZM62.551 54.0666C62.551 54.0666 69.2309 53.6333 70.9407 61.8794V61.8794C63.6794 61.0698 62.551 54.0666 62.551 54.0666V54.0666ZM57.1989 54.8752C57.1989 54.8752 63.6159 54.4598 65.258 62.3805V62.3805C58.2834 61.6027 57.1989 54.8752 57.1989 54.8752V54.8752ZM51.9014 55.2396C51.9014 55.2396 57.7252 54.8629 59.2157 62.0512V62.0512C52.8853 61.3451 51.9014 55.2396 51.9014 55.2396V55.2396ZM46.1416 56.2918C46.1416 56.2918 51.0273 55.0174 53.1322 60.8588V60.8588C52.9032 60.8773 52.6812 60.8862 52.4657 60.8862V60.8862C47.5639 60.886 46.1416 56.2918 46.1416 56.2918V56.2918ZM87.7248 56.7782C87.7211 56.7674 87.7172 56.7561 87.7138 56.7455V56.7455L87.7477 56.7548C87.7401 56.7625 87.7325 56.7703 87.7248 56.7782V56.7782C91.3618 67.6538 84.8841 73.5731 84.8841 73.5731V73.5731C84.8841 73.5731 80.3325 64.2929 87.7248 56.7782V56.7782ZM81.6075 56.792C81.6165 56.7931 81.6256 56.7945 81.6346 56.7958V56.7958L81.6134 56.8241C81.6116 56.8131 81.6097 56.8029 81.6075 56.792V56.792ZM76.1443 59.6488C76.1524 59.6498 76.1611 59.6506 76.169 59.6517V59.6517L76.1504 59.6774C76.1483 59.6675 76.1465 59.6586 76.1443 59.6488V59.6488ZM82.3699 60.5919C82.3688 60.5813 82.3676 60.57 82.3666 60.5593V60.5593L82.3954 60.5772C82.3869 60.5823 82.3786 60.587 82.3699 60.5919V60.5919C83.508 71.5287 76.4143 75.1179 76.4143 75.1179V75.1179C76.4143 75.1179 74.122 65.3796 82.3699 60.5919V60.5919ZM53.148 60.8574L53.1385 60.8763C53.1365 60.8704 53.1341 60.8643 53.1323 60.8588V60.8588C53.1375 60.8583 53.1428 60.8579 53.148 60.8574V60.8574ZM70.9407 61.8794C70.9478 61.88 70.9546 61.8809 70.9619 61.8816V61.8816L70.946 61.9049C70.9441 61.8964 70.9424 61.8878 70.9407 61.8794V61.8794ZM59.2157 62.0513C59.222 62.0521 59.2286 62.0528 59.2349 62.0534V62.0534L59.2203 62.0731C59.2188 62.0657 59.2174 62.0587 59.2157 62.0513V62.0513ZM50.5998 63.8382C50.5998 63.8382 54.7087 59.957 59.9063 64.2845V64.2845C58.3189 65.6302 56.8165 66.0933 55.5005 66.0933V66.0933C52.5963 66.0933 50.5998 63.8382 50.5998 63.8382V63.8382ZM65.258 62.3805C65.2649 62.3812 65.2719 62.382 65.2788 62.3827V62.3827L65.2632 62.4054C65.2615 62.3973 65.2597 62.3886 65.258 62.3805V62.3805ZM76.0576 63.6376C76.0578 63.628 76.0578 63.6177 76.058 63.6081V63.6081L76.0817 63.6282C76.0736 63.6314 76.0658 63.6344 76.0576 63.6376V63.6376C75.9602 73.443 69.3421 75.6108 69.3421 75.6108V75.6108C69.3421 75.6108 68.3013 66.7003 76.0576 63.6376V63.6376ZM59.9212 64.2717V64.297C59.9161 64.2928 59.9112 64.2887 59.9063 64.2845V64.2845C59.911 64.2801 59.9161 64.2759 59.9212 64.2717V64.2717ZM56.5444 69.5907C56.5444 69.5907 58.7347 63.9394 65.0247 65.0403V65.0403C63.2264 69.1076 60.3977 69.8808 58.508 69.8808V69.8808C57.3498 69.8808 56.5444 69.5907 56.5444 69.5907V69.5907ZM65.0336 65.0203L65.0429 65.0435C65.0368 65.0425 65.0308 65.0413 65.0247 65.0403V65.0403C65.0278 65.0335 65.0307 65.027 65.0336 65.0203V65.0203ZM70.193 65.3658C70.1945 65.3576 70.1961 65.349 70.1976 65.3408V65.3408L70.2154 65.3625C70.2079 65.3636 70.2005 65.3648 70.193 65.3658V65.3658C68.6881 73.7963 62.6704 74.3269 62.6704 74.3269V74.3269C62.6704 74.3269 63.0649 66.4369 70.193 65.3658V65.3658Z" fill="white"/>
</mask>
<g mask="url(#mask0)">
<path fill-rule="evenodd" clip-rule="evenodd" d="M41.6008 32.5335H94.4489V85.4149H41.6008V32.5335Z" fill="#95BF3B"/>
</g>
<path fill-rule="evenodd" clip-rule="evenodd" d="M68.1944 32.8006C53.6454 32.8006 41.8093 44.5421 41.8093 58.9743C41.8093 73.4066 53.6454 85.1481 68.1944 85.1481C82.7434 85.1481 94.5798 73.4066 94.5798 58.9743C94.5798 44.5421 82.7434 32.8006 68.1944 32.8006M68.1944 86.8725C52.6872 86.8725 40.0712 74.3573 40.0712 58.9743C40.0712 43.5911 52.6872 31.076 68.1944 31.076C83.7016 31.076 96.3179 43.5911 96.3179 58.9743C96.3179 74.3573 83.7016 86.8725 68.1944 86.8725" fill="#95BF3B"/>
<path fill-rule="evenodd" clip-rule="evenodd" d="M112.345 66.9868L110.576 81.3498H101.023L106.271 38.7287H120.483C123.039 38.7287 125.226 39.0358 127.044 39.6501C128.862 40.2644 130.356 41.1128 131.526 42.1951C132.695 43.2775 133.555 44.5548 134.106 46.0272C134.656 47.4996 134.931 49.0841 134.931 50.7808C134.931 53.1015 134.573 55.2516 133.855 57.231C133.138 59.2104 132.042 60.9217 130.567 62.3649C129.093 63.808 127.226 64.9391 124.965 65.7582C122.705 66.5772 120.031 66.9868 116.945 66.9868H112.345ZM114.999 45.8371L113.259 59.8199H117.889C119.265 59.8199 120.419 59.62 121.353 59.2202C122.287 58.8204 123.044 58.2549 123.623 57.5235C124.203 56.7922 124.621 55.9195 124.877 54.9054C125.132 53.8913 125.26 52.7797 125.26 51.5706C125.26 50.732 125.147 49.9617 124.921 49.2596C124.695 48.5576 124.346 47.953 123.874 47.446C123.402 46.9389 122.808 46.544 122.09 46.2612C121.373 45.9785 120.523 45.8371 119.54 45.8371H114.999ZM146.267 75.0898C147.289 75.0898 148.203 74.7826 149.009 74.1683C149.815 73.554 150.498 72.7154 151.058 71.6526C151.619 70.5897 152.051 69.3514 152.356 67.9375C152.66 66.5236 152.813 65.0171 152.813 63.4179C152.813 61.2142 152.513 59.6395 151.913 58.6936C151.314 57.7478 150.336 57.2749 148.98 57.2749C147.957 57.2749 147.043 57.582 146.237 58.1963C145.431 58.8107 144.748 59.6443 144.188 60.6974C143.628 61.7506 143.195 62.9889 142.891 64.4125C142.586 65.8362 142.434 67.3475 142.434 68.9467C142.434 71.1114 142.734 72.6764 143.333 73.6418C143.933 74.6071 144.911 75.0898 146.267 75.0898V75.0898ZM145.441 81.8179C143.731 81.8179 142.134 81.5351 140.65 80.9696C139.166 80.404 137.878 79.5801 136.787 78.4977C135.696 77.4154 134.841 76.0795 134.222 74.4901C133.603 72.9007 133.293 71.0724 133.293 69.0052C133.293 66.314 133.74 63.8421 134.635 61.5897C135.529 59.3372 136.733 57.3919 138.247 55.7537C139.76 54.1156 141.515 52.8382 143.51 51.9216C145.505 51.0051 147.604 50.5468 149.805 50.5468C151.515 50.5468 153.108 50.8295 154.582 51.3951C156.056 51.9606 157.339 52.7846 158.43 53.8669C159.521 54.9493 160.381 56.2852 161.01 57.8746C161.639 59.464 161.953 61.2923 161.953 63.3595C161.953 66.0117 161.506 68.464 160.612 70.7165C159.717 72.969 158.513 74.9191 157 76.5671C155.486 78.215 153.732 79.5021 151.737 80.4284C149.741 81.3547 147.643 81.8179 145.441 81.8179V81.8179ZM185.424 81.3499C184.854 81.3499 184.377 81.2767 183.994 81.1305C183.611 80.9842 183.306 80.7843 183.08 80.5308C182.854 80.2773 182.697 79.975 182.608 79.624C182.52 79.2729 182.475 78.8926 182.475 78.4831V75.9381C181.08 77.7713 179.537 79.2095 177.846 80.2529C176.156 81.2962 174.357 81.8179 172.45 81.8179C171.192 81.8179 170.042 81.5985 169 81.1597C167.959 80.7209 167.059 80.0335 166.302 79.0974C165.546 78.1613 164.956 76.9668 164.533 75.5139C164.111 74.0611 163.899 72.3205 163.899 70.2923C163.899 68.5372 164.086 66.8259 164.46 65.1585C164.833 63.4911 165.354 61.9261 166.022 60.4634C166.691 59.0008 167.487 57.6601 168.411 56.4412C169.335 55.2223 170.352 54.179 171.462 53.3111C172.573 52.4433 173.748 51.7656 174.986 51.2781C176.224 50.7905 177.502 50.5468 178.819 50.5468C180.077 50.5468 181.212 50.7564 182.225 51.1757C183.237 51.595 184.127 52.1459 184.893 52.8285L186.839 37.5586H195.803L190.319 81.3499H185.424ZM176.106 74.9143C176.735 74.9143 177.389 74.6803 178.067 74.2122C178.745 73.7442 179.404 73.1006 180.043 72.2815C180.682 71.4625 181.276 70.502 181.827 69.4001C182.377 68.2983 182.849 67.1136 183.242 65.8459L184.186 58.4742C183.615 58.0257 182.982 57.7039 182.284 57.5089C181.586 57.3139 180.922 57.2164 180.293 57.2164C179.232 57.2164 178.254 57.5674 177.36 58.2695C176.465 58.9715 175.694 59.893 175.045 61.0339C174.396 62.1747 173.89 63.4765 173.526 64.9391C173.163 66.4017 172.981 67.8936 172.981 69.4148C172.981 71.3455 173.266 72.7447 173.836 73.6125C174.406 74.4804 175.163 74.9143 176.106 74.9143V74.9143ZM216.641 57.3919C216.366 57.7429 216.11 57.9965 215.874 58.1525C215.639 58.3085 215.324 58.3865 214.931 58.3865C214.538 58.3865 214.15 58.2987 213.766 58.1232C213.383 57.9477 212.97 57.7478 212.528 57.5235C212.086 57.2993 211.584 57.0994 211.024 56.9239C210.464 56.7483 209.82 56.6606 209.093 56.6606C207.736 56.6606 206.768 56.919 206.188 57.4358C205.609 57.9526 205.319 58.6205 205.319 59.4396C205.319 59.9661 205.481 60.4147 205.805 60.7852C206.129 61.1558 206.557 61.4873 207.088 61.7798C207.619 62.0723 208.223 62.3405 208.901 62.5843C209.579 62.828 210.272 63.1011 210.98 63.4033C211.688 63.7056 212.38 64.0518 213.059 64.4418C213.737 64.8318 214.341 65.3096 214.872 65.8752C215.403 66.4407 215.83 67.1135 216.155 67.8936C216.479 68.6737 216.641 69.6 216.641 70.6726C216.641 72.1938 216.336 73.632 215.727 74.9874C215.118 76.3428 214.243 77.5226 213.103 78.527C211.963 79.5313 210.582 80.3309 208.96 80.9257C207.338 81.5205 205.515 81.8179 203.491 81.8179C202.527 81.8179 201.574 81.7204 200.63 81.5254C199.687 81.3304 198.797 81.0671 197.962 80.7356C197.127 80.404 196.365 80.0091 195.677 79.5508C194.989 79.0925 194.429 78.6001 193.996 78.0736L196.237 74.7388C196.512 74.3487 196.832 74.0416 197.195 73.8173C197.559 73.593 198.006 73.4809 198.537 73.4809C199.028 73.4809 199.451 73.5979 199.805 73.8319C200.159 74.0659 200.542 74.3195 200.955 74.5925C201.368 74.8655 201.859 75.119 202.429 75.3531C202.999 75.5871 203.746 75.7041 204.67 75.7041C205.967 75.7041 206.931 75.4164 207.56 74.8411C208.189 74.2658 208.503 73.5882 208.503 72.8081C208.503 72.2035 208.341 71.7062 208.017 71.3162C207.692 70.9262 207.265 70.5897 206.734 70.307C206.203 70.0242 205.604 69.7707 204.935 69.5464C204.267 69.3221 203.579 69.0735 202.871 68.8005C202.164 68.5274 201.476 68.2105 200.807 67.8497C200.139 67.489 199.539 67.0355 199.009 66.4895C198.478 65.9434 198.05 65.2706 197.726 64.4711C197.402 63.6715 197.24 62.7061 197.24 61.575C197.24 60.1709 197.5 58.8058 198.021 57.4797C198.542 56.1535 199.318 54.9786 200.35 53.9547C201.382 52.9309 202.665 52.1069 204.198 51.4829C205.731 50.8588 207.52 50.5468 209.565 50.5468C211.609 50.5468 213.432 50.8978 215.034 51.5999C216.636 52.3019 217.958 53.16 219 54.1741L216.641 57.3919Z" fill="#95BF3B"/>
<defs>
<filter id="filter0_d" x="35" y="197" width="461" height="45" filterUnits="userSpaceOnUse" color-interpolation-filters="sRGB">
<feFlood flood-opacity="0" result="BackgroundImageFix"/>
<feColorMatrix in="SourceAlpha" type="matrix" values="0 0 0 0 0 0 0 0 0 0 0 0 0 0 0 0 0 0 127 0"/>
<feOffset dy="2"/>
<feGaussianBlur stdDeviation="2.5"/>
<feColorMatrix type="matrix" values="0 0 0 0 0 0 0 0 0 0 0 0 0 0 0 0 0 0 0.06 0"/>
<feBlend mode="normal" in2="BackgroundImageFix" result="effect1_dropShadow"/>
<feBlend mode="normal" in="SourceGraphic" in2="effect1_dropShadow" result="shape"/>
</filter>
<filter id="filter1_d" x="35" y="262" width="530" height="111" filterUnits="userSpaceOnUse" color-interpolation-filters="sRGB">
<feFlood flood-opacity="0" result="BackgroundImageFix"/>
<feColorMatrix in="SourceAlpha" type="matrix" values="0 0 0 0 0 0 0 0 0 0 0 0 0 0 0 0 0 0 127 0"/>
<feOffset dy="2"/>
<feGaussianBlur stdDeviation="2.5"/>
<feColorMatrix type="matrix" values="0 0 0 0 0 0 0 0 0 0 0 0 0 0 0 0 0 0 0.06 0"/>
<feBlend mode="normal" in2="BackgroundImageFix" result="effect1_dropShadow"/>
<feBlend mode="normal" in="SourceGraphic" in2="effect1_dropShadow" result="shape"/>
</filter>
<filter id="filter2_d" x="35" y="132" width="260" height="45" filterUnits="userSpaceOnUse" color-interpolation-filters="sRGB">
<feFlood flood-opacity="0" result="BackgroundImageFix"/>
<feColorMatrix in="SourceAlpha" type="matrix" values="0 0 0 0 0 0 0 0 0 0 0 0 0 0 0 0 0 0 127 0"/>
<feOffset dy="2"/>
<feGaussianBlur stdDeviation="2.5"/>
<feColorMatrix type="matrix" values="0 0 0 0 0 0 0 0 0 0 0 0 0 0 0 0 0 0 0.06 0"/>
<feBlend mode="normal" in2="BackgroundImageFix" result="effect1_dropShadow"/>
<feBlend mode="normal" in="SourceGraphic" in2="effect1_dropShadow" result="shape"/>
</filter>
<filter id="filter3_d" x="438" y="380" width="127" height="40" filterUnits="userSpaceOnUse" color-interpolation-filters="sRGB">
<feFlood flood-opacity="0" result="BackgroundImageFix"/>
<feColorMatrix in="SourceAlpha" type="matrix" values="0 0 0 0 0 0 0 0 0 0 0 0 0 0 0 0 0 0 127 0"/>
<feOffset dy="2"/>
<feGaussianBlur stdDeviation="2.5"/>
<feColorMatrix type="matrix" values="0 0 0 0 0 0 0 0 0 0 0 0 0 0 0 0 0 0 0.06 0"/>
<feBlend mode="normal" in2="BackgroundImageFix" result="effect1_dropShadow"/>
<feBlend mode="normal" in="SourceGraphic" in2="effect1_dropShadow" result="shape"/>
</filter>
</defs>
</svg>
