<svg width="22" height="21" xmlns="http://www.w3.org/2000/svg"><g fill="none" fill-rule="evenodd"><path stroke="#141827" stroke-linejoin="round" d="M13.921 11.632H17.5l3.588 8.421H1l3.488-8.421h4.016"/><path d="M11.32 15.506c.2-.248 4.93-6.108 4.93-9.04 0-3.015-2.305-5.468-5.138-5.468-2.833 0-5.138 2.453-5.138 5.467 0 2.933 4.729 8.793 4.93 9.041a.268.268 0 0 0 .208.101c.08 0 .155-.037.207-.101zm-4.797-9.04c0-2.693 2.058-4.883 4.589-4.883 2.53 0 4.588 2.19 4.588 4.882 0 2.387-3.667 7.22-4.588 8.397-.922-1.177-4.589-6.009-4.589-8.397z" stroke="#141827" stroke-width=".4" fill="#141827" fill-rule="nonzero"/><path d="M12.85 6.477c0-1.007-.78-1.826-1.738-1.826-.96 0-1.74.819-1.74 1.826 0 1.007.78 1.826 1.74 1.826.959 0 1.739-.82 1.739-1.826zm-3.15 0c0-.817.633-1.482 1.412-1.482.778 0 1.41.665 1.41 1.482s-.632 1.482-1.41 1.482c-.779 0-1.412-.665-1.412-1.482z" stroke="#000" stroke-width=".7" fill="#000" fill-rule="nonzero"/></g></svg>