<?xml version="1.0" encoding="UTF-8"?>
<svg width="256px" height="256px" viewBox="0 0 256 256" version="1.1" xmlns="http://www.w3.org/2000/svg" xmlns:xlink="http://www.w3.org/1999/xlink">
    <!-- Generator: Sketch 43.2 (39069) - http://www.bohemiancoding.com/sketch -->
    <title>icon</title>
    <desc>Created with Sketch.</desc>
    <defs>
        <path d="M0.267054794,87.9461075 C0.267054794,136.476783 39.918677,175.819398 88.8300031,175.819398 L88.8300031,175.819398 C124.808419,175.819398 155.775949,154.532988 169.638137,123.960632 L169.638137,123.960632 C165.777271,112.253822 162.436079,91.6573822 175.762353,71.0698948 L175.762353,71.0698948 C175.192155,68.1619936 174.477603,65.3060191 173.626517,62.5091338 L173.626517,62.5091338 C132.762321,102.778672 99.7696261,106.55023 74.9293199,105.893684 L74.9293199,105.893684 C74.6995566,105.886521 73.8641081,105.752228 73.6421639,105.255044 L73.6421639,105.255044 C73.6421639,105.255044 73.2800761,103.644716 74.3386717,103.644716 L74.3386717,103.644716 C121.929159,103.644716 149.033416,75.8579047 171.177311,55.5407948 L171.177311,55.5407948 C169.96955,52.520087 168.596985,49.5829396 167.071645,46.7371118 L167.071645,46.7371118 C143.200314,40.2205958 134.026621,20.819069 130.770237,10.5303986 L130.770237,10.5303986 C118.286628,3.85750531 104.004008,0.071026324 88.8300031,0.071026324 L88.8300031,0.071026324 C39.918677,0.071026324 0.267054794,39.4136412 0.267054794,87.9461075 L0.267054794,87.9461075 Z M112.938916,26.551908 C112.938916,26.551908 146.749617,22.9009162 156.707031,64.3588025 L156.707031,64.3588025 C119.760241,61.8305041 112.938916,26.551908 112.938916,26.551908 L112.938916,26.551908 Z M99.4111472,43.9963313 C99.4111472,43.9963313 129.386845,43.0031565 136.210576,80.2000602 L136.210576,80.2000602 C103.760411,75.5409721 99.4111472,43.9963313 99.4111472,43.9963313 L99.4111472,43.9963313 Z M82.9457756,58.7793565 C82.9457756,58.7793565 109.921919,57.0323476 116.825044,90.3395156 L116.825044,90.3395156 C87.5019469,87.0675298 82.9457756,58.7793565 82.9457756,58.7793565 L82.9457756,58.7793565 Z M156.707031,64.3588025 C156.745526,64.3611899 156.780411,64.3635774 156.818906,64.3665617 L156.818906,64.3665617 L156.737707,64.4877242 C156.727482,64.4447503 156.717257,64.4017764 156.707031,64.3588025 L156.707031,64.3588025 Z M68.5909789,70.5273492 C68.5909789,70.5273492 92.2938963,68.9892413 98.3609722,98.2562649 L98.3609722,98.2562649 C72.5949964,95.3829815 68.5909789,70.5273492 68.5909789,70.5273492 L68.5909789,70.5273492 Z M49.6000148,73.3970514 C49.6000148,73.3970514 72.3700448,71.9228076 78.1965308,100.034907 L78.1965308,100.034907 C53.4482503,97.2744304 49.6000148,73.3970514 49.6000148,73.3970514 L49.6000148,73.3970514 Z M30.8027255,74.6904468 C30.8027255,74.6904468 51.4675939,73.3534807 56.7563615,98.8662556 L56.7563615,98.8662556 C34.293685,96.3600411 30.8027255,74.6904468 30.8027255,74.6904468 L30.8027255,74.6904468 Z M10.3646131,78.4249989 C10.3646131,78.4249989 27.7009202,73.9019949 35.1700337,94.6339223 L35.1700337,94.6339223 C34.3574413,94.6995769 33.5695094,94.7312105 32.805035,94.7312105 L32.805035,94.7312105 C15.4115878,94.7306136 10.3646131,78.4249989 10.3646131,78.4249989 L10.3646131,78.4249989 Z M157.917199,80.1511177 C157.903966,80.1129186 157.890132,80.072929 157.878103,80.0353269 L157.878103,80.0353269 L157.998398,80.0681542 C157.971331,80.0956097 157.944265,80.1230653 157.917199,80.1511177 L157.917199,80.1511177 C170.822441,118.750642 147.837083,139.759512 147.837083,139.759512 L147.837083,139.759512 C147.837083,139.759512 131.686283,106.822398 157.917199,80.1511177 L157.917199,80.1511177 Z M136.210576,80.2000602 C136.242454,80.2042382 136.274934,80.2090131 136.306812,80.213788 L136.306812,80.213788 L136.231628,80.3140604 C136.225011,80.2752645 136.218395,80.2388561 136.210576,80.2000602 L136.210576,80.2000602 Z M116.825044,90.3395156 C116.853915,90.3430967 116.88459,90.346081 116.91286,90.3496622 L116.91286,90.3496622 L116.846698,90.4409818 C116.83948,90.405767 116.832864,90.3741335 116.825044,90.3395156 L116.825044,90.3395156 Z M138.91601,93.6867057 C138.911799,93.6491035 138.907589,93.6091139 138.90398,93.5709149 L138.90398,93.5709149 L139.006231,93.6347789 C138.976157,93.6526847 138.946685,93.6693968 138.91601,93.6867057 L138.91601,93.6867057 C142.954311,132.503487 117.783194,145.242267 117.783194,145.242267 L117.783194,145.242267 C117.783194,145.242267 109.649451,110.679306 138.91601,93.6867057 L138.91601,93.6867057 Z M35.2259709,94.6291474 L35.1922883,94.6959958 C35.1850706,94.6751057 35.17665,94.6536187 35.1700337,94.6339223 L35.1700337,94.6339223 C35.1886795,94.6321317 35.2073252,94.630938 35.2259709,94.6291474 L35.2259709,94.6291474 Z M98.3609722,98.2562649 C98.3862342,98.2586523 98.4102932,98.2616366 98.4361566,98.264024 L98.4361566,98.264024 L98.3796179,98.3469876 C98.3730017,98.3165477 98.366987,98.2861078 98.3609722,98.2562649 L98.3609722,98.2562649 Z M56.7563615,98.8662556 C56.778616,98.8692399 56.8020736,98.8716274 56.8243281,98.8740148 L56.8243281,98.8740148 L56.7726013,98.9438474 C56.767188,98.9175856 56.7623762,98.8925175 56.7563615,98.8662556 L56.7563615,98.8662556 Z M26.1840008,105.208489 C26.1840008,105.208489 40.763749,91.4335597 59.2067697,106.792555 L59.2067697,106.792555 C53.5739585,111.568627 48.2430877,113.212379 43.5732376,113.212379 L43.5732376,113.212379 C33.2681706,113.212379 26.1840008,105.208489 26.1840008,105.208489 L26.1840008,105.208489 Z M78.1965308,100.034907 C78.2211913,100.037295 78.2458518,100.040279 78.2705122,100.042666 L78.2705122,100.042666 L78.2151766,100.123243 C78.2091618,100.094593 78.2025456,100.063557 78.1965308,100.034907 L78.1965308,100.034907 Z M116.517691,104.496435 C116.518292,104.462414 116.518292,104.426005 116.518894,104.391984 L116.518894,104.391984 L116.6031,104.463011 C116.574229,104.474351 116.546562,104.485094 116.517691,104.496435 L116.517691,104.496435 C116.171843,139.297543 92.6884637,146.991663 92.6884637,146.991663 L92.6884637,146.991663 C92.6884637,146.991663 88.9954087,115.366447 116.517691,104.496435 L116.517691,104.496435 Z M59.2596994,106.747193 L59.2596994,106.836722 C59.2416552,106.821801 59.2242124,106.807476 59.2067697,106.792555 L59.2067697,106.792555 C59.2236109,106.777036 59.2416552,106.762115 59.2596994,106.747193 L59.2596994,106.747193 Z M47.2777207,125.625274 C47.2777207,125.625274 55.0493761,105.567798 77.3689016,109.474843 L77.3689016,109.474843 C70.9878558,123.910496 60.950445,126.654857 54.2452043,126.654857 L54.2452043,126.654857 C50.1353273,126.654857 47.2777207,125.625274 47.2777207,125.625274 L47.2777207,125.625274 Z M77.4001782,109.403817 L77.4332594,109.486183 C77.4116063,109.482602 77.3905547,109.478424 77.3689016,109.474843 L77.3689016,109.474843 C77.3797281,109.450968 77.3899532,109.427691 77.4001782,109.403817 L77.4001782,109.403817 Z M95.707867,110.630364 C95.7132803,110.601117 95.7186936,110.570678 95.7241069,110.541431 L95.7241069,110.541431 L95.7872617,110.618426 C95.7607968,110.622604 95.7343319,110.626782 95.707867,110.630364 L95.707867,110.630364 C90.3679741,140.551546 69.0150186,142.434638 69.0150186,142.434638 L69.0150186,142.434638 C69.0150186,142.434638 70.4146504,114.431764 95.707867,110.630364 L95.707867,110.630364 Z" id="path-1"></path>
    </defs>
    <g id="WordPress-Icons-and-Banners" stroke="none" stroke-width="1" fill="none" fill-rule="evenodd">
        <g id="icon">
            <rect id="Rectangle" fill="#95BF3B" x="0" y="0" width="256.015625" height="256.015625"></rect>
            <g id="pods-circle-white" transform="translate(26.881641, 26.881641)">
                <g id="pods-circle" transform="translate(1.585938, 1.585938)">
                    <g id="inner-logo" transform="translate(11.257557, 11.240875)">
                        <mask id="mask-2" fill="white">
                            <use xlink:href="#path-1"></use>
                        </mask>
                        <g id="Clip-2"></g>
                        <polygon id="Fill-1" fill="#FFFFFF" mask="url(#mask-2)" points="-5.74769282 -5.89757234 181.7765 -5.89757234 181.7765 181.787997 -5.74769282 181.787997"></polygon>
                    </g>
                    <path d="M99.8734954,6.25344907 C48.2483151,6.25344907 6.2497384,48.2525344 6.2497384,99.8761594 C6.2497384,151.500386 48.2483151,193.499471 99.8734954,193.499471 C151.498676,193.499471 193.498455,151.500386 193.498455,99.8761594 C193.498455,48.2525344 151.498676,6.25344907 99.8734954,6.25344907 M99.8734954,199.667598 C44.8481783,199.667598 0.0822161937,154.900856 0.0822161937,99.8761594 C0.0822161937,44.8508611 44.8481783,0.0847206326 99.8734954,0.0847206326 C154.898813,0.0847206326 199.665978,44.8508611 199.665978,99.8761594 C199.665978,154.900856 154.898813,199.667598 99.8734954,199.667598" id="Fill-4" fill="#FFFFFF"></path>
                </g>
            </g>
        </g>
    </g>
</svg>