<?xml version="1.0" encoding="UTF-8" standalone="no"?>
<svg width="100%" height="100%" viewBox="0 0 256 256" version="1.1" xmlns="http://www.w3.org/2000/svg" xmlns:xlink="http://www.w3.org/1999/xlink" xml:space="preserve" xmlns:serif="http://www.serif.com/" style="fill-rule:evenodd;clip-rule:evenodd;stroke-linejoin:round;stroke-miterlimit:2;">
	<title>Pods icon</title>
	<rect id="Background" x="0" y="0" width="100%" height="100%" style="fill:rgb(149,191,59);"/>
	<g id="Logo" transform="matrix(1,0,0,1,39.9853,40.3985)">
		<path d="M0.267,87.946C0.267,136.477 39.919,175.819 88.83,175.819C124.808,175.819 155.776,154.533 169.638,123.961C165.777,112.254 162.436,91.657 175.762,71.07C175.192,68.162 174.478,65.306 173.627,62.509C132.762,102.779 99.77,106.55 74.929,105.894C74.7,105.887 73.864,105.752 73.642,105.255C73.642,105.255 73.28,103.645 74.339,103.645C121.929,103.645 149.033,75.858 171.177,55.541C169.97,52.52 168.597,49.583 167.072,46.737C143.2,40.221 134.027,20.819 130.77,10.53C118.287,3.858 104.004,0.071 88.83,0.071C39.919,0.071 0.267,39.414 0.267,87.946ZM112.939,26.552C112.939,26.552 146.75,22.901 156.707,64.359C119.76,61.831 112.939,26.552 112.939,26.552ZM99.411,43.996C99.411,43.996 129.387,43.003 136.211,80.2C103.76,75.541 99.411,43.996 99.411,43.996ZM82.946,58.779C82.946,58.779 109.922,57.032 116.825,90.34C87.502,87.068 82.946,58.779 82.946,58.779ZM156.707,64.359C156.746,64.361 156.78,64.364 156.819,64.367L156.738,64.488C156.727,64.445 156.717,64.402 156.707,64.359ZM68.591,70.527C68.591,70.527 92.294,68.989 98.361,98.256C72.595,95.383 68.591,70.527 68.591,70.527ZM49.6,73.397C49.6,73.397 72.37,71.923 78.197,100.035C53.448,97.274 49.6,73.397 49.6,73.397ZM30.803,74.69C30.803,74.69 51.468,73.353 56.756,98.866C34.294,96.36 30.803,74.69 30.803,74.69ZM10.365,78.425C10.365,78.425 27.701,73.902 35.17,94.634C34.357,94.7 33.57,94.731 32.805,94.731C15.412,94.731 10.365,78.425 10.365,78.425ZM157.917,80.151C157.904,80.113 157.89,80.073 157.878,80.035L157.998,80.068C157.971,80.096 157.944,80.123 157.917,80.151C170.822,118.751 147.837,139.76 147.837,139.76C147.837,139.76 131.686,106.822 157.917,80.151ZM136.211,80.2C136.242,80.204 136.275,80.209 136.307,80.214L136.232,80.314C136.225,80.275 136.218,80.239 136.211,80.2ZM116.825,90.34C116.854,90.343 116.885,90.346 116.913,90.35L116.847,90.441C116.839,90.406 116.833,90.374 116.825,90.34ZM138.916,93.687C138.912,93.649 138.908,93.609 138.904,93.571L139.006,93.635C138.976,93.653 138.947,93.669 138.916,93.687C142.954,132.503 117.783,145.242 117.783,145.242C117.783,145.242 109.649,110.679 138.916,93.687ZM35.226,94.629L35.192,94.696C35.185,94.675 35.177,94.654 35.17,94.634C35.189,94.632 35.207,94.631 35.226,94.629ZM98.361,98.256C98.386,98.259 98.41,98.262 98.436,98.264L98.38,98.347C98.373,98.317 98.367,98.286 98.361,98.256ZM56.756,98.866C56.779,98.869 56.802,98.872 56.824,98.874L56.773,98.944C56.767,98.918 56.762,98.893 56.756,98.866ZM26.184,105.208C26.184,105.208 40.764,91.434 59.207,106.793C53.574,111.569 48.243,113.212 43.573,113.212C33.268,113.212 26.184,105.208 26.184,105.208ZM78.197,100.035C78.221,100.037 78.246,100.04 78.271,100.043L78.215,100.123C78.209,100.095 78.203,100.064 78.197,100.035ZM116.518,104.496C116.518,104.462 116.518,104.426 116.519,104.392L116.603,104.463C116.574,104.474 116.547,104.485 116.518,104.496C116.172,139.298 92.688,146.992 92.688,146.992C92.688,146.992 88.995,115.366 116.518,104.496ZM59.26,106.747L59.26,106.837C59.242,106.822 59.224,106.807 59.207,106.793C59.224,106.777 59.242,106.762 59.26,106.747ZM47.278,125.625C47.278,125.625 55.049,105.568 77.369,109.475C70.988,123.91 60.95,126.655 54.245,126.655C50.135,126.655 47.278,125.625 47.278,125.625ZM77.4,109.404L77.433,109.486C77.412,109.483 77.391,109.478 77.369,109.475C77.38,109.451 77.39,109.428 77.4,109.404ZM95.708,110.63C95.713,110.601 95.719,110.571 95.724,110.541L95.787,110.618C95.761,110.623 95.734,110.627 95.708,110.63C90.368,140.552 69.015,142.435 69.015,142.435C69.015,142.435 70.415,114.432 95.708,110.63Z" style="fill:white;"/>
	</g>
	<g id="Circle" transform="matrix(1,0,0,1,28.4676,28.4676)">
		<path d="M99.873,6.253C48.248,6.253 6.25,48.253 6.25,99.876C6.25,151.5 48.248,193.499 99.873,193.499C151.499,193.499 193.498,151.5 193.498,99.876C193.498,48.253 151.499,6.253 99.873,6.253M99.873,199.668C44.848,199.668 0.082,154.901 0.082,99.876C0.082,44.851 44.848,0.085 99.873,0.085C154.899,0.085 199.666,44.851 199.666,99.876C199.666,154.901 154.899,199.668 99.873,199.668" style="fill:white;"/>
	</g>
</svg>
