<svg height="49" viewBox="0 0 72 49" width="72" xmlns="http://www.w3.org/2000/svg"><g fill="none" fill-rule="evenodd" transform="translate(1.5 1)"><g fill-rule="nonzero" stroke="#0f1031" stroke-linecap="round" stroke-width="2.25"><path d="m68.340879.76204803c-12.1833605 12.53145647-12.1833605 32.98821247 0 45.51966897" stroke-linejoin="round" transform="matrix(-1 0 0 1 127.544238 0)"/><path d="m54.7200013 9.16151076c-7.7051523 7.92529954-7.7051523 20.79544404.065856 28.78848114" transform="matrix(-1 0 0 1 103.7352 0)"/><path d="m9.93651509.76204803c-12.1833605 12.53145647-12.1833605 32.98821247 0 45.51966897" stroke-linejoin="round"/><path d="m19.6674066 9.16151076c-7.7051523 7.92529954-7.7051523 20.79544404.065856 28.78848114"/></g><path d="m33.72188 22.9017711-6.1519432-.1756295 13.9557856-12.83568733-6.1077287 11.47118173 6.1519431.1756294-13.0936047 13.9029739z" fill="#3d54ff"/></g></svg>