<svg height="52" viewBox="0 0 92 52" width="92" xmlns="http://www.w3.org/2000/svg"><g fill="none" fill-rule="evenodd" transform="translate(.541964)"><ellipse cx="55.312756" cy="26.233071" fill="#3d54ff" rx="6.78526" ry="24.233071"/><path d="m55.3127556.875c4.6468233 0 7.7721095 10.8009582 7.9057955 24.4443852l.0044643.9136855c0 14.0717361-3.1601737 25.3580707-7.9102598 25.3580707-.3387437 0-.6694017-.0573974-.9914047-.1691092-.0621771-.0018485-.1248904-.0097015-.1874528-.0230875l-.118476-.0321427-24.9680302-8.2383286c-.3307922.84953-.7681367 1.6531315-1.3008316 2.3926729-2.0199708 2.8043298-5.2605904 4.5014718-8.7834108 4.5014718-5.9747425 0-10.81822829-4.8434858-10.81822829-10.8182283 0-.9725824.12865869-1.9284968.37930192-2.8488153l-6.87674901-2.2689039c-.42261628-.139453-.71952888-.5130005-.76607948-.9482387l-.00639464-.1201014v-11.6318739c0-.4292027.24362438-.8168951.62099737-1.0058235l.11711448-.0505584 52.36794795-19.17918113c.0636163-.02329875.1279786-.04049318.1924449-.05188114.3684676-.14762954.7484792-.22401243 1.1392509-.22401243zm0 2.25c-.1469428 0-.2943753.02984478-.4418238.08828681-.0011879.00098924-.0022241.00150333-.0032614.00201597l-.0687942.02881504c-2.5825566 1.186272-5.1463804 11.08396368-5.1463804 22.98895288l.0011777.4419232c.0666028 12.4941993 2.9462923 22.6661475 5.6590821 22.6661475 2.6808745 0 5.524745-9.9340161 5.6555681-22.2261528l.0046917-.8819179c0-12.6953747-2.9155549-23.1080707-5.6602598-23.1080707zm-4.3289118 1.51920879-47.8588438 17.52679121v10.033l47.967457 15.8295467c-2.2328112-4.2667187-3.5981217-11.9696395-3.685497-20.8867905l-.0044642-.9136855c0-9.1562388 1.3379806-17.13317122 3.581348-21.58886191zm-40.5889226 34.56018101c0 4.7321018 3.8361265 8.5682283 8.5682283 8.5682283 2.7915395 0 5.3562106-1.3431417 6.957722-3.5665233.3990864-.5540525.7304033-1.1531115.9865702-1.7850796l-16.2428317-5.3588626c-.1782798.692864-.2696888 1.4108585-.2696888 2.1422372zm58.9409659-2.9328057c.3446466-.5169698 1.0431246-.6566654 1.5600943-.3120189l11.631874 7.7545827.0983319.0734884c.4351113.3634818.535357 1.0041008.2136869 1.4866059-.3446465.5169698-1.0431245.6566654-1.5600943.3120188l-11.6318739-7.7545826-.0983319-.0734884c-.4351113-.3634818-.535357-1.0041008-.213687-1.4866059zm19.5567103-11.1635134c.6213203 0 1.125.5036797 1.125 1.125 0 .579899-.438761 1.0573199-1.0024189 1.1183987l-.1225811.0066013h-17.2168395c-.6213203 0-1.125-.5036796-1.125-1.125 0-.579899.438761-1.0573198 1.0024189-1.1183986l.1225811-.0066014zm-4.5334232-17.91617145c.3216701.48250512.2214243 1.12312409-.213687 1.48660587l-.0983319.07348843-11.6318739 7.75458265c-.5169698.3446465-1.2154478.2049509-1.5600943-.3120189-.3216701-.4825051-.2214244-1.1231241.2136869-1.4866058l.0983319-.0734885 11.631874-7.75458261c.5169698-.34464652 1.2154478-.20495091 1.5600943.31201886z" fill="#0f1031" fill-rule="nonzero"/><path d="m34.8083209 24.7045451-6.1519431-.1756295 13.9557856-12.8356873-6.1077288 11.4711817 6.1519432.1756294-13.0936047 13.902974z" fill="#3d54ff"/></g></svg>