<svg height="90" viewBox="0 0 82 90" width="82" xmlns="http://www.w3.org/2000/svg"><g fill="none" fill-rule="evenodd" transform="translate(.5)"><path d="m16.166104 79.284389c.3708501.4419619.3438096 1.0853796-.0430249 1.4948051l-.095639.0901309-13.24592059 11.1146471c-.47595899.399377-1.18555904.3372951-1.58493606-.1386639-.37085008-.441962-.34380952-1.0853797.04302492-1.4948052l.09563902-.0901309 13.24592061-11.1146471c.475959-.399377 1.185559-.337295 1.584936.138664zm4.0940823-78.409389c2.8978653 0 4.6500531.48498444 5.6203928 1.62734799.7317536.8614804.8805731 1.6126957.8393969 3.30264202l-.0375106 1.14254537c.0349442.10865188.0538162.22451136.0538162.34477863v61.09667779c0 .2318748-.0716488.4580855-.2051424.6476782l-5.3510953 7.5998332c-.4481142.6364291-1.3916011.6364291-1.8397152 0l-5.3510954-7.5998332c-.1334935-.1895927-.2051424-.4158034-.2051424-.6476782v-61.09667779c0-.12026727.018872-.23612675.0538162-.34477863-.0029085-.16099378-.0095182-.34706954-.0198508-.60635055-.0827705-2.07700073.0168082-2.8912084.8217371-3.83883684.9703397-1.14236355 2.7225275-1.62734799 5.6203929-1.62734799zm2.8238137 64.56-2.0482194 2.4341832c-.4199479.4990507-1.1652581.5318175-1.6279773.098727l-.0946072-.0999355-1.6741961-1.9949747-1.5956427 2.174 2.8114401 3.9926803c.1929588-.531028.6783178-.9217276 1.261425-.9774469l.1439639-.006843c.6458963 0 1.1961157.4096419 1.4050266.9832944l2.7771444-3.9466848zm1.402-57.018h-8.452l-.0006427 55.84.6396365-.8705335c.4315602-.5879618 1.2999064-.6161728 1.7687199-.0574626l1.7332863 2.0669961 2.2786653-2.7063178c.4892851-.5814486 1.3888968-.5143501 1.7959194.0984207l.0665304.1137795.1692422.3321176zm-4.2258137-5.292c-2.2984275 0-3.4733866.3252145-3.9055337.83397355-.2575894.30325536-.3317166.70903233-.3035709 1.8352911l.0122756.37273535h8.393l.0129335-.37273535c.0281457-1.12625877-.0459815-1.53203574-.3035709-1.8352911-.413358-.48663909-1.50634-.80534706-3.6120787-.83214088z" fill="#0f1031" fill-rule="nonzero" transform="matrix(.76604444 .64278761 -.64278761 .76604444 60.044424 .631355)"/><path d="m23.8582322 31.5772348-6.1519432-.1756295 13.9557856-12.8356873-6.1077287 11.4711817 6.1519431.1756294-13.0936047 13.9029739z" fill="#3d54ff"/></g></svg>