<svg height="67" viewBox="0 0 77 67" width="77" xmlns="http://www.w3.org/2000/svg"><g fill="none" fill-rule="evenodd" transform="translate(.711207 -.5)"><path d="m74.8415213 21.289469v-6.3639746c.0692026-4.0756679-3.2197412-7.41469247-7.295409-7.40836384l-43.2743778.07197956c-3.994628.00546336-7.2398649 3.22975738-7.2717345 7.22620648v6.4741524z" fill="#3d54ff"/><g fill-rule="nonzero"><path d="m61.6956722.875c.579899 0 1.0573199.43876095 1.1183987 1.00241886l.0066013.12258114-.0006364 4.391 4.7246775-.00013573c4.6198495-.00573816 8.3631847 3.71029753 8.4223303 8.27990323v40.3335803c0 5.0396027-4.0860433 9.1248847-9.1256432 9.1248847l-29.8162643-.0019166c-.6213203-.0001106-1.1249102-.50388-1.1247996-1.1252003.0001107-.6213204.5038801-1.1249103 1.1252004-1.1247996l29.8158933.0019165c3.7178559.0000517 6.7464776-2.9510376 6.8711016-6.6385471l.0039895-.2363518-.0001198-40.3267165c-.0636494-3.2652541-2.6757554-5.91789171-5.9413141-6.03286708l-.2288661-.00387998-4.7261855.00012996.0006364 4.5907612c0 .6213203-.5036796 1.125-1.125 1.125-.579899 0-1.0573199-.438761-1.1183986-1.0024189l-.0066014-.1225811-.0006364-4.5907612-28.601.003.0001237 4.5877612c0 .6213203-.5036797 1.125-1.125 1.125-.579899 0-1.0573199-.438761-1.1183986-1.0024189l-.0066014-.1225811-.0001237-4.5877612-5.4457627.00106368c-3.2864001.00449474-5.9982604 2.66139402-6.1424447 5.94492952l-.0058285.2248247.0036423 8.2162692c.0002754.6213203-.5031809 1.1252232-1.1245012 1.1254986-.5798989.0002571-1.0575143-.4382922-1.1188429-1.001923l-.0066557-.1225782-.0036066-8.2257389c.0361866-4.5378008 3.6550217-8.26463866 8.1417171-8.40706572l.2548725-.00421514 5.4474104-.00106474.0001237-4.394c0-.62132034.5036797-1.125 1.125-1.125.579899 0 1.0573199.43876095 1.1183987 1.00241886l.0066013.12258114-.0001237 4.394 28.601-.003.0006364-4.391c0-.62132034.5036797-1.125 1.125-1.125z" fill="#0f1031"/><path d="m40.8449849 50.9309813c4.3023976 0 6.8121296-2.0555899 6.8121296-5.0433661 0-2.1990032-1.027795-3.4658203-2.8204607-4.0155711 1.6970568-.5975552 2.5097319-1.8643723 2.5097319-3.776549 0-2.7726563-2.2707098-4.7565396-6.3340854-4.7565396-4.2545932 0-6.6209119 2.2229054-6.6209119 5.5692147v.3346309h2.3424165v-.2629243c0-2.0794922 1.5297414-3.5614291 4.2067888-3.5614291 2.6531452 0 3.9916689 1.2190126 3.9916689 2.9160695 0 1.7687634-1.0755994 2.748754-3.4419181 2.748754h-2.2707098v1.8643723h2.2707098c2.3902209 0 3.6809402.6453597 3.6809402 2.7009496 0 1.9121768-1.6731546 3.1789938-4.350202 3.1789938-2.9877762 0-4.3502021-1.1234038-4.3502021-3.6809402v-.3346309h-2.3902209v.454142c0 3.8721579 2.0316878 5.6648235 6.7643252 5.6648235zm18.7643723-.3346309v-2.2468076h-3.6092336v-14.747663h-1.9121767c-.3346309 1.8643723-1.1712082 2.7009496-3.1550916 2.7965584v1.8165679h2.748754v10.1345367h-3.6092335v2.2468076z" fill="#0f1031"/><path d="m15.5738029 44.9682963c8.276296 0 14.9855596 6.7092636 14.9855596 14.9855596 0 8.2762961-29.97111922 8.2762961-29.97111922 0 0-8.276296 6.70926357-14.9855596 14.98555962-14.9855596zm0-15.299452c4.138148 0 7.4927798 3.3546318 7.4927798 7.4927798s-3.3546318 7.4927798-7.4927798 7.4927798-7.49277982-3.3546318-7.49277982-7.4927798 3.35463182-7.4927798 7.49277982-7.4927798z" stroke="#0f1031" stroke-linecap="round" stroke-linejoin="round" stroke-width="2.25"/></g></g></svg>