<svg height="67" viewBox="0 0 102 67" width="102" xmlns="http://www.w3.org/2000/svg"><g fill="none" transform="translate(-.583333 -.5)"><path d="m78.250003 1.68749998h23.125v17.25167472c-6.4042793 0-11.4874238 4.3644744-11.4874238 9.7483253 0 5.2803174 4.885384 9.580086 11.1193198 9.743509l.368104.003991v17.2525h-23.125z" fill="#3d54ff"/><path d="m53.0625 35.5252579-7.5309985 5.5813985 2.9810188-8.8871522-7.6354319-5.4376582 9.3733695.0888363 2.8120421-8.9420561 2.8120421 8.9420561 9.3733695-.0888363-7.6354319 5.4376582 2.9810188 8.8871522z" fill="#3d54ff" stroke="#3d54ff" stroke-linecap="round" stroke-linejoin="round"/><path d="m17.5377923 27.1401612c4.8678117 0 8.8139528 3.9461411 8.8139528 8.8139528 0 3.0779232-1.5776862 5.787358-3.9684813 7.3637273 6.749305 2.0683245 11.6574341 8.3504554 11.6574341 15.7789413 0 9.9929828-33.00581123 9.9929828-33.00581123 0 0-7.4281204 4.90764622-13.7099987 11.65740943-15.7801056-2.3907705-1.575205-3.96845663-4.2846398-3.96845663-7.362563 0-4.8678117 3.94614113-8.8139528 8.81395283-8.8139528zm0 17.7037158c-7.87166243 0-14.25290563 6.3812432-14.25290563 14.2529056 0 6.9929828 28.50581123 6.9929828 28.50581123 0 0-7.8716624-6.3812432-14.2529056-14.2529056-14.2529056zm83.8372107-44.343877c.579899 0 1.05732.43876095 1.118399 1.00241886l.006601.12258114v17.2516747c0 .6213203-.50368 1.125-1.125 1.125-5.5599533 0-10.0113363 3.8965715-10.0113363 8.6233253 0 4.7267556 4.4513827 8.6233275 10.0113363 8.6233275.579899 0 1.05732.4387609 1.118399 1.0024188l.006601.1225812v17.2516725c0 .579899-.438761 1.0573199-1.002419 1.1183987l-.122581.0066013h-59.1769428c-.6213204 0-1.125-.5036797-1.125-1.125 0-.579899.4387609-1.0573199 1.0024188-1.1183987l.1225812-.0066013 58.0519398-.001v-15.047l-.104604-.0077284c-6.0686844-.5363362-10.8719712-5.0001862-11.0278251-10.5413299l-.0039042-.2779417c0-5.6691977 4.8619005-10.2739944 11.0317293-10.8192694l.104604-.0087306v-15.048l-56.1395437.00073624-.0559684.01043813-.0569038.00763849-.1225811.00660135-25.125003-.00041421.000003 18.4314452c0 .579899-.438761 1.0573199-1.0024189 1.1183987l-.1225811.0066013c-.579899 0-1.0573199-.4387609-1.1183987-1.0024188l-.0066013-.1225812v-19.55603099c0-.57989899.4387609-1.05731986 1.0024188-1.11839865l.1225812-.00660135 26.0145466.00026377.1128722-.01807663.1225812-.00660135zm-83.8372107 28.8901612c-3.6251711 0-6.5639528 2.9387818-6.5639528 6.5639528 0 3.6251711 2.9387817 6.5639528 6.5639528 6.5639528 3.625171 0 6.5639528-2.9387817 6.5639528-6.5639528 0-3.625171-2.9387818-6.5639528-6.5639528-6.5639528z" fill="#0f1031"/></g></svg>