<svg height="66" viewBox="0 0 81 66" width="81" xmlns="http://www.w3.org/2000/svg"><g fill="none" fill-rule="evenodd" transform="translate(1.333333 1)"><path d="m54.5205941 1.74658203h17.5v13.80133977c-4.8628341 0-8.80494 3.4915795-8.80494 7.7986611 0 4.2242531 3.7919443 7.664068 8.5254349 7.7948063l.2795051.0031928v13.8020017h-17.5z" fill="#3d54ff" fill-rule="nonzero" transform="matrix(.93969262 -.34202014 .34202014 .93969262 -4.169318 23.047789)"/><path d="m72.6465025 9.30087199c.579899 0 1.0573199.43876094 1.1183986 1.00241881l.0066014.1225812v13.8013397c0 .6213204-.5036797 1.125-1.125 1.125-3.6857613 0-6.6736611 2.9878999-6.6736611 6.6736611 0 3.6857613 2.9878998 6.6736612 6.6736611 6.6736612.579899 0 1.0573199.4387609 1.1183986 1.0024188l.0066014.1225812v13.8013397c0 .579899-.438761 1.0573199-1.0024189 1.1183987l-.1225811.0066013h-50.2773957c-.6213203 0-1.125-.5036797-1.125-1.125 0-.579899.438761-1.0573199 1.0024189-1.1183987l.1225811-.0066013 49.1518932-.0008737v-11.622l-.1701087-.0218364c-4.2297842-.6152037-7.4977173-4.1974481-7.6242454-8.5671793l-.0038045-.2631115c0-4.488366 3.31367-8.202783 7.6280499-8.8302907l.1701087-.0225821v-11.623l-15.3100763.000872c-.579899 0-1.0573199-.438761-1.1183987-1.0024189l-.0066013-.1225811c0-.579899.4387609-1.05731988 1.0024188-1.11839867l.1225812-.00660134zm-24.2266765 0c.6213204 0 1.125.50367965 1.125 1.12500001 0 .579899-.4387609 1.0573199-1.0024188 1.1183986l-.1225812.0066014-41.648826-.000872v11.623l.17111373.0225821c4.22978417.6152037 7.49771727 4.1974481 7.62424527 8.5671793l.0038046.2631114c0 4.4883661-3.31367 8.2027831-7.62804987 8.8302908l-.17111373.0218364v11.622l7.85006.0008737c.5798989 0 1.0573198.4387609 1.1183986 1.0024189l.0066014.1225811c0 .579899-.438761 1.0573199-1.0024189 1.1183987l-.1225811.0066013h-8.97455751c-.57989898 0-1.05731986-.4387609-1.11839865-1.0024189l-.00660135-.1225811v-13.8013397c0-.6213204.50367966-1.125 1.125-1.125 3.68576126 0 6.67366111-2.9878999 6.67366111-6.6736612 0-3.6857612-2.98789985-6.6736611-6.67366111-6.6736611-.57989898 0-1.05731986-.4387609-1.11839865-1.0024188l-.00660135-.1225812v-13.8013397c0-.579899.43876095-1.05731988 1.00241886-1.11839867l.12258114-.00660134z" fill="#0f1031" fill-rule="nonzero" transform="matrix(.93969262 -.34202014 .34202014 .93969262 -8.592671 15.320289)"/><path d="m39.4227214 29.0818054c-.0138535-.027535-.0151129-.0362961-.0201506-.0425541-.0176317-.021277-.0365228-.0425541-.0566734-.0625795-1.6246378-1.6345771-3.5880567-2.3567447-5.8889972-2.1639998-.6221481.0513152-1.2228863.207764-1.8059927.4280439-2.6548346 1.0125366-4.4469738 3.4869309-4.5705172 6.3092672-.0011381.0300382.0076778.0600764.0139748.1026305 4.1144897-1.5244372 8.2163854-3.0463711 12.3283563-4.5708082m7.7327723 2.7272155c-6.0804275 2.2541143-12.1532985 4.5057255-18.2450606 6.7648461.0377823.0450573.0617111.0775986.0919369.1088884.7405326.782244 1.6183408 1.3679883 2.6271275 1.7572329.7909089.3066397 1.6145625.4643401 2.4634043.4781076.541546.0087611 1.0805731-.0362961 1.6082655-.1602036 2.135958-.5031393 3.7379264-1.7046661 4.7870142-3.6246058.0642299-.1176495.0629705-.1189011.2052837-.1051336 1.9898665.186487 3.9809924.3729739 5.9721183.5619641.0264476.0025032.0541546.0100127.0931963.0175222-.0138535.0500637-.0251882.0951209-.0390417.1389266-1.1737694 3.7322426-3.9507666 6.7247952-7.6068314 8.1979171-.5717717.2290411-1.157397.4180312-1.7568757.5669705-.5516213.1351718-1.1082801.2428085-1.6750142.3041365-.4244209.0463088-.8501012.0750954-1.2783003.0813533-1.0113056.0175223-2.0100171-.0813533-2.9973938-.2966269-1.8702226-.4067669-3.5754626-1.1777466-5.1056448-2.3217002-1.9394901-1.4518449-3.3638819-3.2991923-4.2794723-5.5332812-.2556601-.6245436-.4596844-1.2653579-.6158511-1.9211913-.1372756-.5819895-.2392877-1.1714886-.2921829-1.7672456-.1964679-2.1752641.1146062-4.2791876.9835985-6.285487 1.4067601-3.2428708 3.7530393-5.5620678 7.0174279-6.9600943.5553994-.2365506 1.1284306-.4242891 1.7140559-.5782348.6473363-.1702163 1.3034884-.3041364 1.9709753-.3667159 3.3966265-.3216588 6.4846978.5056425 9.2327286 2.5156967 2.1132885 1.5469657 3.5993914 3.572039 4.5023877 6.0176467.2266937.6082729.4042704 1.2328165.5264331 1.8723792.0289664.1414297.0541546.284111.0806021.4255407.0062971.033793.0088159.0700891.015113.1113916" fill="#3d54ff" transform="matrix(.93969262 -.34202014 .34202014 .93969262 -9.5202 13.706105)"/></g></svg>