<svg height="66" viewBox="0 0 61 66" width="61" xmlns="http://www.w3.org/2000/svg"><g fill="none" fill-rule="evenodd" transform="translate(-.416667 -.5)"><path d="m40.8675453 32.7054452c0 6.3505556-5.1485926 11.5-11.5 11.5s-11.5-5.1494444-11.5-11.5c0-6.3514074 5.1485926-11.5 11.5-11.5s11.5 5.1485926 11.5 11.5z" fill="#3d54ff"/><path d="m25.4572683 46.6690582c.5417718.2067997.8313352.7869677.6873903 1.3353477l-.0375468.1168758-3.6053197 9.4451814c.6114218.4460757 1.1178676 1.0533201 1.4477892 1.794239.9754446 2.1916322.0497319 4.7463892-2.067823 5.8173411l-.2019909.0959983c-2.2599403 1.0058468-4.9062357-.0100622-5.9129688-2.2694674-1.0060164-2.2603211.0103415-4.9075209 2.2695237-5.9135055.7726638-.3438947 1.5905744-.4514296 2.3726833-.3537496l3.5960391-9.4184173.0498814-.1121676c.2580709-.504817.8605704-.7444757 1.4023422-.5376759zm-6.5058688 12.4775234c-1.1239812.5004943-1.6297932 1.8179292-1.1291977 2.9426689.5009821 1.1243509 1.8177701 1.6298639 2.9426689 1.1291976 1.1243509-.5009821 1.6298639-1.8177701 1.1291976-2.9426688-.5004943-1.1239812-1.8179291-1.6297932-2.9426688-1.1291977zm23.9143274-17.7047718.1124491.0625458.1067333.0766707 3.5255349 2.8532991c.2661032-.2004134.5588805-.3740724.8761726-.5153584 2.2600746-1.0059066 4.9072744.0104512 5.913259 2.2696335 1.0059272 2.2601207-.0099818 4.9064161-2.2698139 5.9133393-2.2599403 1.0058469-4.9062357-.0100621-5.9129688-2.2694673-.535669-1.2035429-.4979555-2.5167734-.0045438-3.6335217l-3.5433915-2.8691685-.0911194-.0822616c-.3996568-.4021384-.4402686-1.0492802-.0753829-1.4999922.3350992-.4139191.903427-.5278186 1.3630714-.3057187zm5.5359671 4.5326702c-1.1239812.5004943-1.6297932 1.8179292-1.1291977 2.9426689.5009821 1.1243509 1.8177701 1.6298639 2.9426689 1.1291976 1.1243509-.5009821 1.6298639-1.8177701 1.1291976-2.9426688-.5004943-1.1239812-1.8179291-1.6297932-2.9426688-1.1291977zm-19.0341487-25.8940348c6.9727277 0 12.625 5.6522723 12.625 12.625 0 6.9721573-5.6525536 12.625-12.625 12.625-6.9724465 0-12.625-5.6528427-12.625-12.625 0-6.9727277 5.6522722-12.625 12.625-12.625zm0 2.25c-5.7300871 0-10.375 4.644913-10.375 10.375 0 5.7295423 4.64522 10.375 10.375 10.375s10.375-4.6454577 10.375-10.375c0-5.730087-4.644913-10.375-10.375-10.375zm-20.03375364 7.3223853c.1294572.2908649.22542824.5881257.28957122.887465l4.19648672.2453153.1219871.0137426c.5591337.0938637.96929.5960725.9354533 1.1749835-.0338366.578911-.4997072 1.0299171-1.0659686 1.0580028l-.1227575-.0005624-4.16436799-.2440202c-.36687077 1.1944044-1.2288906 2.2297647-2.46021815 2.7784127-2.25994032 1.0058469-4.90623569-.0100621-5.91296887-2.2694674-1.0060164-2.260321.01034148-4.9075208 2.26952373-5.9135054 2.26007461-1.0059067 4.90727442.0104512 5.91325904 2.2696335zm-4.99818188-.2141205c-1.12398116.5004943-1.62979311 1.8179291-1.12919764 2.9426689.47920027 1.075466 1.70480895 1.5847364 2.79493754 1.1888276l.1473045-.0594399c1.12477773-.5011722 1.63029074-1.8179602 1.12962447-2.942859-.50049428-1.1239811-1.81792915-1.6297931-2.94266887-1.1291976zm56.12806832-15.3831417c.9754445 2.1916322.0497319 4.7463892-2.067823 5.8173411l-.2019909.0959983c-1.7598415.7832644-3.7539654.3405532-5.0257254-.9606363l-.1035332.0693546-9.8360809 5.7953494-.1089637.0565387c-.5166383.2335075-1.1370176.0449039-1.4313935-.4547217-.2943758-.4996255-.1587056-1.1336882.2959214-1.4724434l.1022616-.0679138 9.8360809-5.7953494.1336737-.0673528c-.5856888-2.1014067.4409857-4.3714777 2.494314-5.2857982 2.2600746-1.0059066 4.9072744.0104513 5.913259 2.2696335zm-33.269029-10.45292895c.9754445 2.19163222.0497318 4.74638918-2.067823 5.81734107l-.0622371.02981376 2.1739678 7.80431992.027911.1284187c.087519.5564266-.254024 1.1023807-.8098092 1.2571805-.5586354.1555936-1.1362749-.1389814-1.34635-.6655831l-.0392492-.1163151-2.2171364-7.96070198c-1.6213732-.09168051-3.1355056-1.06489344-3.8420567-2.65060179-1.0060164-2.26032104.0103415-4.90752085 2.2695238-5.91350546 2.2600746-1.00590664 4.9072744.01045124 5.913259 2.26963348zm28.2708471 10.23880845c-1.1239811.5004943-1.6297931 1.8179292-1.1291976 2.9426689.5009821 1.1243509 1.8177701 1.6298639 2.9426689 1.1291976 1.1243509-.5009821 1.6298639-1.8177701 1.1291976-2.9426688-.5004943-1.1239812-1.8179291-1.6297932-2.9426689-1.1291977zm-33.269029-10.45292892c-1.1239811.50049428-1.6297931 1.81792915-1.1291976 2.94266886.5009821 1.12435091 1.8177701 1.62986391 2.9426688 1.12919765 1.124351-.50098211 1.629864-1.81777009 1.1291977-2.94266887-.5004943-1.12398116-1.8179292-1.62979312-2.9426689-1.12919764z" fill="#0f1031" fill-rule="nonzero"/></g></svg>