<svg height="67" viewBox="0 0 76 67" width="76" xmlns="http://www.w3.org/2000/svg"><g fill="none" fill-rule="evenodd" transform="translate(-.25 -.5)"><path d="m55.4232228 54.6290323c5.5258264-2.2808563 15.9120306-9.7902273 20.0122611-15.9354839 0 0-2.7593983-2.4560374-8.2781947-7.3681122-1.4362714 1.8251315-3.6822418 3.0006262-6.20824 3.0006262-4.3367349 0-7.8530952-3.4641902-7.8530952-7.7365836 0-2.1366012 2.3001694-5.4713494 2.3001694-5.4713494l-7.0245087-6.7471617c-1.8842759 2.7470879-5.7718154 7.2560065-10.7362338 10.8903476-2.2856982 1.6733093-4.7996765 3.161223-7.4515194 4.2064266" fill="#3d54ff"/><path d="m13.3613573 1.0892253.1022508.08390325 7.8582716 7.24963971c.4559776.42066164.4853575 1.13105276.0656727 1.58792954-.910328.991-1.424321 2.286368-1.424321 3.6651578 0 2.9852928 2.4020202 5.4026907 5.3614752 5.4026907 1.5287566 0 2.9516941-.6462975 3.9614119-1.7622393.4197125-.463867 1.1372283-.4962526 1.5970231-.072083l4.0314611 3.7191016c.4566752.4212918.4853591 1.1330246.0640673 1.5896998-.4212917.4566751-1.1330246.4853591-1.5896998.0640673l-3.2589702-3.0070927-.0126383.0117496c-1.2619098 1.0300574-2.8302025 1.6368713-4.49745 1.7011159l-.2952051.0056808c-4.2053213 0-7.6114752-3.4279601-7.6114752-7.6526907 0-1.5148196.4409717-2.9627855 1.243144-4.19142417l.0756246-.11243143-6.252-5.768-.0507102.05898686c-6.19704059 7.12997144-9.73706645 14.65255774-10.05665616 21.21398004l-.0160203.4174958c-.1592231 5.6718615 2.12909135 8.2677919 6.17951953 8.8717275 8.72286193 1.2990644 17.62526753-2.2088685 27.36705703-9.4259677l.4863378-.3625488c5.0243311-3.9405374 8.425436-7.1914804 10.7128826-10.6298395.3602938-.5415732 1.095183-.6593421 1.6042454-.2825743l.0986236.0819683 7.2550676 6.7483797c.4771371.4438142.4785815 1.1989054.0031458 1.6445418l-.1895585.1829126c-1.2594567 1.2796322-1.979765 3.0088312-1.979765 4.8571816 0 3.7916451 3.0209663 6.8590103 6.7384935 6.8590103 2.1062854 0 4.0500404-.9898481 5.3208086-2.654282.3763367-.4929205 1.0727727-.5828034 1.5595119-.2246501l.1008986.0836213 7.2394458 6.7341866c.3996899.3717945.4747985.9768687.1781409 1.4351016-5.848702 9.0342139-21.0855424 18.0715836-29.43311 18.8938765-7.46882.7357302-12.5693608-.3149189-18.3679456-4.2136769l-.4029883-.2747061-.4260156-.2977198c-4.1531035-2.9353506-11.3263271-8.9208233-21.55414966-17.9798245-3.11510435-1.6244837-4.8853553-4.9234439-4.7397635-10.1097296.2105659-7.5310454 4.29433312-16.07185364 11.45926996-23.98646606.3897776-.43056042 1.036169-.48914899 1.4945915-.15575984zm35.1566427 14.9847747-.0393128.0560283c-2.314865 3.1347987-5.4846329 6.1236048-9.8686821 9.5986992l-.5502373.4334376c-9.8583677 7.410401-18.9952143 11.2655479-28.12070087 10.4039234l1.93687507 1.6930889c8.0436058 7.0064779 13.6881454 11.6008732 16.909901 13.7670648 5.3327096 3.5855203 9.9135694 4.5291214 16.8919426 3.8417036 7.3555009-.7245674 21.0878558-8.7179968 27.0345947-16.8205865l.2006197-.2803593-5.686-5.289-.1740108.1710426c-1.5664239 1.4792858-3.6183085 2.3612657-5.8192988 2.4351632l-.3010277.0050484c-4.9679092 0-8.9884935-4.0823364-8.9884935-9.1090103 0-2.1250345.7227329-4.1372324 2.0097166-5.7420408l.0501142-.0612031z" fill="#0f1031" fill-rule="nonzero"/><g fill="#fff"><path d="m56.5487652 43.6984442c-.9436647 1.022274-.8778888 2.6138383.146461 3.5556596 1.0252269.9418213 2.6222656.8753604 3.5659303-.1469136.9445418-1.022274.8787659-2.6138383-.1464609-3.5547851-1.0252269-.9409468-2.6213886-.8762349-3.5659304.1460391"/><path d="m48.9787884 36.9891838c-.9445526 1.022204-.8778989 2.6136593.1464626 3.5545417 1.0252386.9426313 2.6222954.8761749 3.5659709-.1460291.9445525-1.022204.8778988-2.6136594-.1473397-3.5554162-1.0252386-.9408824-2.6214183-.8753005-3.5650938.1469036"/><path d="m41.4081051 30.2796268c-.9436648 1.0223556-.8778889 2.6140471.146461 3.555069 1.0252269.9418965 2.6222655.8754303 3.5659303-.1469253.9445418-1.0214811.8787659-2.6140471-.146461-3.5550691s-2.6213885-.8754303-3.5659303.1469254"/></g><g fill-rule="nonzero" transform="translate(14.508153 41.717014)"><path d="m24.8571858 12.4286363c0 6.8638264-5.5641157 12.4279421-12.4288098 12.4279421-6.8638265 0-12.42794218-5.5641157-12.42794218-12.4279421 0-6.86382651 5.56411568-12.42880983 12.42794218-12.42880983 6.8646941 0 12.4288098 5.56498332 12.4288098 12.42880983" fill="#ffcf48"/><path d="m11.8486251 12.5235551-4.34596214-.1240712 9.85888764-9.06760848-4.3147275 8.10367078 4.3459622.1240712-9.24981088 9.8215795z" fill="#161b7d"/></g></g></svg>