<svg height="68" viewBox="0 0 68 68" width="68" xmlns="http://www.w3.org/2000/svg"><g fill="none" fill-rule="evenodd" transform="translate(.25 .5)"><path d="m0 2.2037037 9.54577706 10.8333333h47.77430774l8.8836189-10.8333333z"/><path d="m0 2.2037037 9.54577706 10.8333333h47.77430774l8.8836189-10.8333333z"/><g transform="translate(.203704)"><path d="m43.1948338 43.5825617-18.8208527 15.5568205-.7102561 6.711698h20.5013253v-13.2104372z" fill="#3d54ff" transform="matrix(1 0 0 -1 0 109.433642)"/><path d="m65.0532859.22857154c1.5060415 0 2.3602503 1.69094636 1.5076349 2.91436363l-.0878749.11686326-22.1940459 26.12720157.000143 35.6586541c0 1.4854715-1.6382186 2.3248218-2.8288362 1.5671454l-.1174925-.0811263-.114045-.0919845-17.5813789-15.2951001c-.3597268-.3116105-.5828067-.7494026-.627939-1.218433l-.0085026-.1771653-.0009488-20.3629903-22.20828245-26.1458779c-.91679441-1.1303931-.22353585-2.78135563 1.14304687-2.98967799l.14373409-.01632393.14830738-.00554864zm-.8692859 2.24942846h-61.089l7.3045402 8.5978116.0363615-.0045395.1225812-.0066014h38.3762249c.6213204 0 1.125.5036797 1.125 1.125 0 .579899-.4387609 1.0573199-1.0024188 1.1183987l-.1225812.0066013-36.6343787-.0000992 12.5370751 14.7587418c.1911732.2352902.320234.5128597.378377.807015l.0263052.178278.0088624.1810253-.0009488 20.3253684 16.779 14.597.000143-34.9223684c0-.3198466.0827727-.6326301.2435943-.9145186l.0868931-.1382594.09977-.1324481z" fill="#0f1031" fill-rule="nonzero"/><path d="m25.009627 43.490743h17.847279" stroke="#0f1031" stroke-linecap="round" stroke-linejoin="round" stroke-width="2.25"/></g></g></svg>