<svg height="67" viewBox="0 0 91 67" width="91" xmlns="http://www.w3.org/2000/svg"><g fill="none" fill-rule="evenodd" transform="translate(.083333 -.5)"><path d="m55.7078071 53.8617021 15.0717717-11.540375c.7023576-.5377914 1.6745762-.550297 2.3905343-.0307493l15.9454856 11.5711243v6.8151261c-.4969459 2.2538176-1.0608695 3.6961769-1.6917706 4.327078-.6309011.6309012-1.944205 1.0657693-3.9399118 1.3046044h-14.8770184z" fill="#3d54ff"/><path d="m84.1155987.875c3.307572 0 6.0028057 2.62173207 6.1209605 5.90045566l.0040395.22454434v54.3085106c0 3.307572-2.6217321 6.0028057-5.9004556 6.1209605l-.2245444.0040395h-77.1155987c-3.307572 0-6.00280567-2.621732-6.12096046-5.9004556l-.00403954-.2245444v-54.3085106c0-3.307572 2.62173207-6.00280567 5.90045566-6.12096046l.22454434-.00403954zm-52.8120625 33.9700069-.1317052.097278-28.046831 22.6507151v3.7155106c0 2.0732252 1.62815979 3.7661733 3.67559301 3.8699579l.19940699.0050421 58.764-.0005106-32.1310826-30.1493436c-.6424102-.6028009-1.6106146-.6728028-2.3293812-.1886495zm52.8120625-31.7200069h-77.1155987c-2.07322517 0-3.76617325 1.62815979-3.86995787 3.67559301l-.00504213.19940699v47.701l26.6331306-21.5091297c1.5447682-1.2476127 3.7486049-1.2123979 5.2504736.0551141l.1639164.1459033 33.8784794 31.7906229h15.0645987c2.0732252 0 3.7661733-1.6281598 3.8699579-3.675593l.0050421-.199407v-54.3085106c0-2.07322517-1.6281598-3.76617325-3.675593-3.86995787zm-27.3117019 13.2835199c4.4182781 0 8 3.581722 8 8s-3.5817219 8-8 8c-4.4182779 0-8-3.581722-8-8s3.5817221-8 8-8zm.0000001 2.25c-3.1756374 0-5.7500001 2.5743627-5.7500001 5.75s2.5743627 5.75 5.7500001 5.75c3.1756373 0 5.7499999-2.5743627 5.7499999-5.75 0-3.1756374-2.5743626-5.75-5.7499999-5.75z" fill="#0f1031" fill-rule="nonzero"/></g></svg>