<svg height="68" viewBox="0 0 69 68" width="69" xmlns="http://www.w3.org/2000/svg"><g fill="none" fill-rule="evenodd" transform="translate(-.333333 -.5)"><path d="m2 2h32.6483832c1.2146253 0 2.2756467.81031839 2.579303 1.96979125l7.5354717 28.81968245h-33.9766577" fill="#3d54ff"/><path d="m42.0995814 15.6842105h22.7228536l-6.8033246 15.2525374 8.9808896 15.5369363h-33.0635728l-2.8574798-11.8309985" fill="#3d54ff"/><path d="m34.6483832.875c1.6575134 0 3.1172732 1.06612992 3.6129129 2.62127715l.0547999.18892801 2.8756685 10.99873884 25.1716846.0002665-7.2234491 16.1937895 9.5930777 16.5956842h-35.5656575l-3.6036557-13.5597402h-17.155l9.4876598 32.7732407c.1727631.5968181-.1710014 1.220687-.7678195 1.3934501-.5570302.1612456-1.1376247-.1274618-1.3530244-.651908l-.0404257-.1159115-18.8263256-65.03791046-.02319694-.11955349-.01064504-.13093739.00094996-.07729456.01239462-.12140511.02327021-.11105203.02776887-.09066835.04386668-.10608478.05268117-.09803882.06231218-.0926188.06231824-.0764367.09244251-.09202274.1184835-.09217454.07436852-.04589153.08342874-.04279676.10840036-.0432734.1268599-.03478587.13865084-.0209112.09681658-.00395877zm28.6326168 15.808944h-21.5662355l4.1368031 15.8209436-7.1165805 12.9671124 26.5310129.001-8.3680241-14.4775905zm-28.6326168-13.559h-31.15261869l8.26199999 28.539056h31.5472355l-7.165611-27.40919272c-.1618922-.61816467-.7059243-1.06660963-1.3512693-1.12365489z" fill="#0f1031" fill-rule="nonzero"/><path d="m24.2190974 12.6825928h-3.7176953l1.1608071 3.8478527h3.7048788c1.2248896 0 1.9105714-.7440115 1.5681882-1.8985424-.3497069-1.1790395-1.4867119-1.9493103-2.7161788-1.9493103zm-9.4512403-3.71830709h8.9578057c4.0225446 0 6.9804056 2.59003549 7.8885449 5.69387659.9008156 3.0767066-.5355458 5.6159743-4.5196409 5.6159743h-4.3035917l1.7485344 5.7954123h-4.5461894z" fill="#fff"/></g></svg>