<svg width="391" height="83" xmlns="http://www.w3.org/2000/svg"><g fill="#0F1031" fill-rule="evenodd"><path d="M36.274 53.661c-2.682 1.088-5.163 1.675-6.967 1.578-2.337-.13-3.335-1.161-3.339-1.549-.002-.276.87-1.14 3.56-1.336.421-.03.866-.05 1.325-.05 1.838 0 3.883.303 5.42 1.357m5.017 23.7c-9.832 2.712-20.223.21-26.474-6.378-4.424-4.662-5.907-10.497-4.07-16.007 3.694-11.087 21.402-17.742 32.718-17.742.122 0 .243.001.363.003 4.217.054 7.137 1.073 7.621 2.661.272.89-.37 2.445-1.716 4.16-2.374 3.03-5.983 5.773-9.653 7.786-2.327-2.553-6.06-3.714-10.833-3.37-5.314.385-7.187 2.964-7.168 5.25.02 2.49 2.436 5.145 7.013 5.4 2.77.15 6.08-.702 9.403-2.157.488 1.914.337 4.425-.46 7.42a1.946 1.946 0 003.758 1.001c1.085-4.068 1.165-7.48.245-10.19 4.34-2.436 8.351-5.671 10.757-8.738 2.257-2.878 3.056-5.468 2.376-7.697-.494-1.62-1.656-2.903-3.408-3.814.133-14.618 2.725-24.716 5.058-24.73h.014c.343 0 .806.077 1.375.642 1.895 1.884 4.153 8.069 4.153 26.836 0 18.518-1.585 34.284-21.072 39.664M22.728 34.17c-.002-.05.004-.097-.002-.147l-.026-.216c-.28-3.992.2-7.138 1.417-8.825.604-.838 1.363-1.286 2.387-1.412 1.428-.173 2.59.196 3.565 1.133 1.89 1.816 2.992 5.743 2.887 10.04-3.239.798-6.556 1.937-9.707 3.402a41.867 41.867 0 01-.52-3.976m16.758-6.778c.716-.78 1.63-1.159 2.796-1.159 1.853 0 2.658.606 3.103 1.062 1.064 1.09 1.638 3.205 1.717 6.284a25.888 25.888 0 00-3.62-.235c-1.757 0-3.67.152-5.669.443-.086-2.822.503-5.121 1.673-6.395m21.465-19.29c-1.167-1.16-2.592-1.774-4.122-1.774h-.034c-5.126.031-6.894 7.679-7.779 13.428-.259 1.688-.46 3.41-.615 5.076-.077-.085-.152-.173-.231-.255-1.448-1.482-3.429-2.234-5.888-2.234-2.252 0-4.21.835-5.662 2.417a8.55 8.55 0 00-1.091 1.534c-.642-1.688-1.539-3.216-2.764-4.395-1.822-1.75-4.15-2.508-6.737-2.19-2.085.256-3.837 1.292-5.068 2.997l-.014.023C18.815 12.097 14.762-.741 7.69-.007 5.95.176 4.413 1.113 3.244 2.7-2.21 10.116.35 32.17 2.721 44.03a1.947 1.947 0 002.29 1.526 1.945 1.945 0 001.525-2.29C2.564 23.407 3.45 8.987 6.38 5.007c.688-.935 1.31-1.1 1.719-1.144C12 3.456 16.81 17.095 18.84 34.31c.163 2.132.486 4.128.797 5.68.001.007.005.013.006.02-5.846 3.37-10.67 7.978-12.589 13.736-2.306 6.917-.505 14.177 4.94 19.915 5.316 5.602 13.159 8.665 21.392 8.665 2.962 0 5.976-.398 8.939-1.215 22.098-6.1 23.928-24.017 23.928-43.414 0-16.596-1.684-26-5.301-29.596M102.82 29.566H85.49a.375.375 0 00-.375.375v2.973c0 .207.168.375.375.375h6.618v19.186c0 .206.168.375.375.375h3.378a.376.376 0 00.375-.375V33.289h6.584a.375.375 0 00.375-.375v-2.973a.375.375 0 00-.375-.375M114.822 35.377c-1.917 0-3.924.8-5.402 2.146V29.94a.376.376 0 00-.375-.375h-3.04a.376.376 0 00-.375.375v22.534c0 .207.168.375.375.375h3.04a.375.375 0 00.375-.375V40.944c.808-1.055 2.388-2.114 4.118-2.114 2.177 0 3.105.939 3.105 3.138v10.507c0 .207.168.375.375.375h3.04a.376.376 0 00.376-.375v-11.52c0-3.649-1.94-5.578-5.612-5.578M131.824 38.627c2.857 0 4.343 2.053 4.565 4.114h-9.145c.314-2.061 1.84-4.114 4.58-4.114m0-3.25c-4.875 0-8.55 3.836-8.55 8.922 0 5.273 3.627 8.956 8.82 8.956 2.763 0 5.12-.878 6.816-2.539a.373.373 0 00.044-.485l-1.42-1.994a.376.376 0 00-.276-.157.393.393 0 00-.298.113c-1.087 1.118-2.835 1.812-4.561 1.812-3.276 0-4.797-2.306-5.117-4.317h12.481a.376.376 0 00.375-.375v-.744c0-5.412-3.419-9.192-8.314-9.192M164.3 29.566h-15.135a.376.376 0 00-.375.375v22.534c0 .206.169.375.375.375H164.3a.376.376 0 00.375-.375v-2.973a.375.375 0 00-.375-.375h-11.382V42.85h11.145a.376.376 0 00.375-.375v-2.973a.375.375 0 00-.375-.375h-11.145V33.29H164.3a.375.375 0 00.375-.375v-2.973a.375.375 0 00-.375-.375M183.119 35.783h-3.278a.374.374 0 00-.348.236l-4.753 11.93-4.752-11.93a.373.373 0 00-.349-.236h-3.243a.375.375 0 00-.346.517l6.722 16.318c.058.14.194.232.346.232h3.278a.374.374 0 00.346-.232l6.723-16.318a.374.374 0 00-.346-.517M192.484 38.627c2.857 0 4.344 2.053 4.565 4.114h-9.145c.314-2.061 1.84-4.114 4.58-4.114m0-3.25c-4.874 0-8.55 3.836-8.55 8.922 0 5.273 3.627 8.956 8.82 8.956 2.763 0 5.12-.878 6.817-2.539a.373.373 0 00.043-.485l-1.419-1.994a.376.376 0 00-.277-.157.394.394 0 00-.297.113c-1.088 1.118-2.836 1.812-4.562 1.812-3.277 0-4.798-2.306-5.117-4.317h12.481a.376.376 0 00.375-.375v-.744c0-5.412-3.418-9.192-8.314-9.192M212.797 35.377c-2.702 0-4.603 1.414-5.402 2.143v-1.362a.375.375 0 00-.375-.375h-3.04a.375.375 0 00-.375.375v16.317c0 .207.168.375.375.375h3.04a.375.375 0 00.375-.375V40.944c.808-1.055 2.388-2.114 4.118-2.114 2.147 0 3.105.988 3.105 3.206v10.439c0 .207.168.375.375.375h3.04a.376.376 0 00.376-.375V41.023c0-3.693-1.94-5.646-5.612-5.646M230.45 49.416a.373.373 0 00-.277-.247.389.389 0 00-.357.115c-.225.25-.751.519-1.377.519-1.125 0-1.212-1.239-1.212-1.619v-8.982h2.936a.376.376 0 00.375-.375v-2.67a.376.376 0 00-.375-.375h-2.936v-4.084a.375.375 0 00-.375-.375h-3.04a.375.375 0 00-.375.375v4.084h-2.328a.376.376 0 00-.375.375v2.67c0 .206.168.375.375.375h2.328v9.658c0 2.834 1.512 4.395 4.26 4.395 1.493 0 2.616-.376 3.433-1.15a.375.375 0 00.097-.392l-.777-2.297zM240.62 42.346c-2.046-.477-3.494-.9-3.494-2 0-1.081 1.137-1.753 2.97-1.753 1.83 0 3.612.73 4.54 1.857.071.087.177.136.29.136h.023a.374.374 0 00.294-.174l1.35-2.128a.376.376 0 00-.057-.473c-1.675-1.592-3.913-2.434-6.474-2.434-4.53 0-6.591 2.699-6.591 5.206 0 3.804 3.496 4.614 6.306 5.264 2.002.453 3.659.936 3.659 2.27 0 1.225-1.173 1.956-3.138 1.956-2.178 0-4.22-1.145-5.197-2.21a.373.373 0 00-.276-.122l-.03.002a.38.38 0 00-.284.169l-1.453 2.23a.375.375 0 00.047.467c1.697 1.73 4.137 2.646 7.058 2.646 4.23 0 6.963-2.11 6.963-5.374 0-4.062-3.607-4.878-6.506-5.535M267.394 32.951c2.36 0 4.568 1.188 5.762 3.1.101.163.321.224.495.134l2.871-1.52a.376.376 0 00.136-.54c-2.181-3.271-5.298-4.93-9.264-4.93-6.801 0-11.93 5.171-11.93 12.03 0 6.858 5.129 12.03 11.93 12.03 3.925 0 7.04-1.658 9.263-4.928a.377.377 0 00-.135-.542l-2.872-1.52a.384.384 0 00-.494.133c-1.195 1.913-3.402 3.1-5.762 3.1-4.246 0-7.1-3.324-7.1-8.273 0-5.026 2.788-8.274 7.1-8.274M289.688 46.253v2.512c-.814 1.01-2.238 1.612-3.814 1.612-1.988 0-3.375-1.18-3.375-2.868 0-1.689 1.387-2.869 3.375-2.869 1.576 0 3 .603 3.814 1.613m-3.138-10.876c-2.737 0-5.076.934-6.952 2.777a.376.376 0 00-.054.467l1.317 2.095a.375.375 0 00.582.065c1.38-1.38 2.896-2.052 4.633-2.052 2.194 0 3.612 1.125 3.612 2.868v1.8c-1.255-1.07-2.967-1.635-4.963-1.635-2.914 0-6.05 1.788-6.05 5.713 0 3.755 3.117 5.78 6.05 5.78 1.944 0 3.656-.583 4.963-1.688v.908c0 .207.168.375.375.375h3.04a.375.375 0 00.375-.375V41.462c0-3.867-2.525-6.085-6.928-6.085M301.347 29.566h-3.04a.375.375 0 00-.375.375v22.534c0 .206.168.375.375.375h3.04a.376.376 0 00.375-.375V29.941a.375.375 0 00-.375-.375M313.678 38.627c2.857 0 4.343 2.053 4.565 4.114h-9.145c.314-2.061 1.84-4.114 4.58-4.114m0-3.25c-4.875 0-8.55 3.836-8.55 8.922 0 5.273 3.627 8.956 8.82 8.956 2.763 0 5.119-.878 6.816-2.539a.373.373 0 00.044-.485l-1.42-1.994a.376.376 0 00-.276-.157.401.401 0 00-.298.113c-1.087 1.118-2.835 1.812-4.561 1.812-3.276 0-4.797-2.306-5.117-4.317h12.481a.376.376 0 00.375-.375v-.744c0-5.412-3.419-9.192-8.314-9.192M333.99 35.377c-2.702 0-4.603 1.414-5.402 2.143v-1.362a.375.375 0 00-.375-.375h-3.04a.375.375 0 00-.375.375v16.317c0 .207.168.375.375.375h3.04a.375.375 0 00.375-.375V40.944c.808-1.055 2.388-2.114 4.118-2.114 2.147 0 3.105.988 3.105 3.206v10.439c0 .207.168.375.375.375h3.04a.376.376 0 00.376-.375V41.023c0-3.693-1.94-5.646-5.612-5.646M355.043 40.966V47.7c-.846 1.239-2.55 2.103-4.152 2.103-2.726 0-4.558-2.199-4.558-5.47 0-3.292 1.832-5.503 4.558-5.503 1.563 0 3.304.897 4.152 2.136m3.415-11.4h-3.04a.375.375 0 00-.375.375v7.57c-1.352-1.378-3.107-2.134-4.963-2.134-4.589 0-7.672 3.6-7.672 8.956 0 5.337 3.083 8.922 7.672 8.922 1.827 0 3.625-.766 4.963-2.107v1.327c0 .206.168.375.375.375h3.04a.376.376 0 00.375-.375V29.941a.375.375 0 00-.375-.375M373.354 46.253v2.512c-.814 1.01-2.238 1.612-3.814 1.612-1.988 0-3.375-1.18-3.375-2.868 0-1.689 1.387-2.869 3.375-2.869 1.576 0 3 .603 3.814 1.613m-3.138-10.876c-2.737 0-5.076.934-6.952 2.777a.376.376 0 00-.054.467l1.317 2.095a.375.375 0 00.582.065c1.38-1.38 2.896-2.052 4.633-2.052 2.194 0 3.612 1.125 3.612 2.868v1.8c-1.255-1.07-2.967-1.635-4.963-1.635-2.914 0-6.05 1.788-6.05 5.713 0 3.755 3.117 5.78 6.05 5.78 1.944 0 3.656-.583 4.963-1.688v.908c0 .207.168.375.375.375h3.04a.375.375 0 00.375-.375V41.462c0-3.867-2.525-6.085-6.928-6.085M390.35 35.411c-1.761 0-3.56.816-4.962 2.245v-1.499a.376.376 0 00-.375-.375h-3.04a.375.375 0 00-.376.375v16.317c0 .207.168.375.375.375h3.041a.376.376 0 00.375-.375V41.23c.704-1.099 2.564-2.095 3.916-2.095.37 0 .686.03.965.092a.375.375 0 00.457-.366v-3.074a.375.375 0 00-.375-.375"/></g></svg>