<svg height="67" viewBox="0 0 59 67" width="59" xmlns="http://www.w3.org/2000/svg"><g fill="none" fill-rule="evenodd" transform="translate(0 .5)"><path d="m51.719639 22.0140549.098758-5.1993865c.0608-3.5807998-2.8287999-6.5143996-6.4095996-6.5088942l-38.01999778.0632946c-3.50959979.0048-6.36079962 2.8375998-6.38879962 6.3487996l.00535317 4.9246862z" fill="#3d54ff" transform="matrix(.93969262 -.34202014 .34202014 .93969262 -3.934318 10.007201)"/><path d="m35.8709796.79985313.0481285.1129308 1.3111163 3.60546649 4.1279014-1.50998336c3.8782903-1.41839592 8.1584347.55468219 9.616637 4.38629145l.0827741.22742014 6.0734585 17.60866845c4.6744103 12.7791106-1.8951829 26.9283747-14.6738058 31.6026067-.583509.213439-1.2295631-.0865621-1.443002-.6700711-.213439-.583509.086562-1.229563.670071-1.443002 7.4211035-2.7145302 12.5376777-8.9458645 14.1535005-16.1264745-2.3270203 1.7997797-5.9765636 2.7982696-10.4020816 2.6781539l-.276107-.009373-.0307752.0622619-.1034889.220136c-.1261403.2806233-.2734198.6497602-.4652347 1.162224l-1.1002072 3.0042827-.1059195.2813519c-.4660805 1.2319987-.9137948 2.3311881-1.3946775 3.3995043-2.2610539 5.0230972-4.9595444 8.6769799-8.5585351 10.7270504-.0985038.0561101-.2019039.0957121-.3070022.1196829-.0571177.0338609-.1187813.0631161-.1839852.0869694l-15.223439 5.5690151c-1.0578999.375541-2.2154057-.1372418-2.6576538-1.1504499l-.0557966-.1412301-13.82607143-38.9480742c-1.3533538-3.8126351.55073319-7.9962152 4.27544298-9.4954516l.23030608-.08841 3.90369114-1.4280995-1.28431481-3.5297097c-.21250408-.5838502.08853139-1.22942281.67238153-1.44192688.5449268-.19833714 1.14362081.05067573 1.39379841.55945078l.0481285.1129308 1.2830064 3.526255 23.449-8.57899998-1.3134247-3.60892117c-.2125041-.58385014.0885314-1.22942278.6723815-1.44192686.5449268-.19833713 1.1436208.05067573 1.3937984.55945074zm6.4634105 4.25171422-.2033115.06978459-4.1308542 1.51089848 1.2939383 3.55341978c.212504.5838501-.0885314 1.2294227-.6723816 1.4419268-.5449268.1983372-1.1436207-.0506757-1.3937984-.5594507l-.0481284-.1129308-1.2926299-3.54996508-23.448 8.57899998 1.3220481 3.6326312c.2125041.5838501-.0885314 1.2294228-.6723815 1.4419268-.5449268.1983372-1.1436208-.0506757-1.3937984-.5594507l-.0481285-.1129308-1.3217397-3.6291765-3.89994273 1.4272393c-2.64705301.9675505-4.05305714 3.8383997-3.22792265 6.5077585l.06979557.2102819 13.78375191 38.8290254 15.0858328-5.5186506c.0447842-.0163832.0899369-.0297419.1352342-.04018.0046574-.0024847.0098658-.0055062.0151073-.0084919 3.0983222-1.7648778 5.5370009-5.0669632 7.6204642-9.6955298.4600522-1.0220397.8910022-2.080071 1.3419601-3.2720957l.4286631-1.1546435.6018315-1.6563671.3670011-.9898645c.8076951-2.13374 1.0996628-2.4593581 2.1515156-2.4017858 7.1725442.3942944 11.6769292-2.256562 11.558089-5.9063904-.0021749-.0667957.0015189-.1324207.0106168-.1963791-.076918-2.1824594-.4781874-4.389684-1.2316975-6.5579058l-.1245728-.3493103-6.0807328-17.62826323c-.9387889-2.72223528-3.8789619-4.1762194-6.595829-3.30413042z" fill="#0f1031" fill-rule="nonzero"/><g fill="#334aff"><path d="m41.3061994 27.2797481c.5237675 1.4320223 2.1093988 2.1676694 3.5414212 1.6439018 1.4320224-.5237675 2.1686948-2.1089207 1.6446536-3.5416948-.5237675-1.4320224-2.1089207-2.1686948-3.5416948-1.6446536-1.4317488.5245193-2.1681476 2.1104242-1.64438 3.5424466"/><path d="m28.9366193 31.8043825c.5237676 1.4320223 2.1096725 2.1684211 3.5416948 1.6446536 1.4320224-.5237676 2.1686948-2.1089207 1.6446537-3.5416949-.5237676-1.4320223-2.1089207-2.1686947-3.5416949-1.6446536-1.4320224.5237676-2.1684211 2.1096725-1.6446536 3.5416949"/><path d="m16.3993316 35.3855455c.0024035 1.5247999 1.2408034 2.7591998 2.7656033 2.7568033 1.5247999-.0032035 2.7591998-1.2408034 2.7568033-2.7664033-.0032035-1.524-1.2408034-2.7583999-2.7664033-2.7560034-1.5247999.0024035-2.7583998 1.2408034-2.7560033 2.7656034" transform="matrix(.93969262 -.34202014 .34202014 .93969262 -10.945543 8.687033)"/><path d="m33.3298592 42.5130825c.5237676 1.4320224 2.1093989 2.1676694 3.5414213 1.6439019 1.4320223-.5237676 2.167943-2.1086471 1.6439018-3.5414213-.5237675-1.4320223-2.1089207-2.1686947-3.5416948-1.6446536-1.4317488.5245193-2.1681476 2.1104243-1.6436283 3.542173"/><path d="m20.7111068 47.1292852c.5237675 1.4320223 2.1096724 2.1684211 3.5414212 1.6439018 1.4320224-.5237675 2.1686948-2.1089207 1.6439019-3.5414212-.5237676-1.4320224-2.1086471-2.167943-3.5414213-1.6439019-1.4320223.5237676-2.1676694 2.1093989-1.6439018 3.5414213"/></g></g></svg>