<svg height="68" viewBox="0 0 68 68" width="68" xmlns="http://www.w3.org/2000/svg"><g fill="none" transform="translate(0 -.5)"><path d="m2.2799461 53.996154h39.6542462v9.6119403c0 1.6568543-1.3431457 3-3 3h-33.6542462c-1.65685425 0-3-1.3431457-3-3z" fill="#3d54ff"/><path d="m38.0740735.50990878c2.7578834 0 5.0069789 2.17838047 5.1205039 4.90835904l.0044961.21664095v11.85552403c0 .6213204-.5036797 1.125-1.125 1.125-.579899 0-1.0573199-.4387609-1.1183987-1.0024188l-.0066013-.1225812v-11.85552403c0-1.53111084-1.1968817-2.782675-2.706072-2.8701195l-.168928-.0048805h-32.21413846c-1.53111084 0-2.78267501 1.19688164-2.8701195 2.70607192l-.0048805.16892808v57.00000003c0 1.5311108 1.19688163 2.782675 2.70607191 2.8701195l.16892809.0048805h32.21413846c1.5311108 0 2.782675-1.1968817 2.8701195-2.7060719l.0048805-.1689281v-15.0676426c0-.6213203.5036796-1.125 1.125-1.125.5798989 0 1.0573198.438761 1.1183986 1.0024189l.0066014.1225811v15.0676426c0 2.7578834-2.1783805 5.0069789-4.9083591 5.1205039l-.2166409.0044961h-32.21413846c-2.75788346 0-5.0069789-2.1783805-5.12050392-4.9083591l-.00449608-.2166409v-57.00000003c0-2.75788346 2.17838048-5.0069789 4.90835905-5.12050392l.21664095-.00449607zm20.6667483 14.22630072c.4454836-.433109 1.1577235-.4230775 1.5908325.022406 9.1030659 9.3631536 9.1030659 24.6302431 0 33.9933966-.433109.4454836-1.1453489.4555151-1.5908325.0224061-.4454835-.433109-.455515-1.1453489-.022406-1.5908325 8.2540506-8.4898806 8.2540506-22.3666631 0-30.8565438-.433109-.4454835-.4230775-1.1577235.022406-1.5908324zm-33.5257647 0c.4454835.4331089.4555151 1.1453489.0224061 1.5908324-8.2540507 8.4898807-8.2540507 22.3666632 0 30.8565438.433109.4454836.4230774 1.1577235-.0224061 1.5908325s-1.1577235.4230775-1.5908325-.0224061c-9.1030659-9.3631535-9.1030659-24.630243 0-33.9933966.433109-.4454835 1.145349-.455515 1.5908325-.022406zm26.431304 5.983179c.4454835-.433109 1.1577235-.4230775 1.5908325.0224061 5.9208944 6.0900628 5.9053026 15.9530129-.0469112 22.0752899-.4331089.4454836-1.1453489.4555151-1.5908324.0224061-.4454836-.433109-.4555151-1.1453489-.0224061-1.5908324 5.1042954-5.2501325 5.1176894-13.7227795.0469111-18.9384372-.433109-.4454836-.4230774-1.1577235.0224061-1.5908325zm-19.3368473 0c.4454836.433109.4555151 1.1453489.0224061 1.5908325-5.0707783 5.2156577-5.0573843 13.6883047.0469112 18.9384372.4331089.4454835.4230774 1.1577234-.0224061 1.5908324-.4454836.433109-1.1577235.4230775-1.5908325-.0224061-5.9522138-6.122277-5.9678056-15.9852271-.0469111-22.0752899.4331089-.4454836 1.1453489-.4555151 1.5908324-.0224061zm9.6684254 4.9434014c3.3003135 0 5.9757462 2.6754327 5.9757462 5.9757463 0 3.3003135-2.6754327 5.9757462-5.9757462 5.9757462-3.3003136 0-5.9757463-2.6754327-5.9757463-5.9757462 0-3.3003136 2.6754327-5.9757463 5.9757463-5.9757463zm0 2.25c-2.0576729 0-3.7257463 1.6680734-3.7257463 3.7257463 0 2.0576728 1.6680734 3.7257462 3.7257463 3.7257462 2.0576728 0 3.7257462-1.6680734 3.7257462-3.7257462 0-2.0576729-1.6680734-3.7257463-3.7257462-3.7257463z" fill="#0f1031" transform="translate(.140065 .365091)"/></g></svg>