<svg width="18" height="18" xmlns="http://www.w3.org/2000/svg"><path d="M17.254 2.483L15.282.51C14.942.17 14.5 0 14.023 0c-.476 0-.918.17-1.258.51L1.543 11.767c-.034.034-.034.034-.034.068 0 0 0 .034-.034.034-.034.034-.034.034-.034.068v.034c0 .034 0 .034-.034.034L.012 17.14a.57.57 0 0 0 .136.51c.102.102.238.17.374.17.034 0 .102 0 .136-.034l5.136-1.428c.034 0 .034 0 .034-.034h.034c.034 0 .034-.034.068-.034 0 0 .034 0 .034-.034.034-.034.034-.034.068-.034L17.254 4.999c.68-.68.68-1.836 0-2.516zM2.461 16.188l-.884-.885.578-2.176 2.448 2.448-2.142.613zm3.197-1.089l-1.123-1.122-.748-.748-1.122-1.122 9.522-9.522 1.122 1.122.748.748 1.123 1.122L5.658 15.1zM16.506 4.251l-.612.612L12.9 1.87l.612-.612a.692.692 0 0 1 .51-.204c.204 0 .374.068.51.204l1.973 1.973c.272.306.272.748 0 1.02z" fill="#8D949B"/></svg>