<svg height="58" viewBox="0 0 82 58" width="82" xmlns="http://www.w3.org/2000/svg"><g fill="none" fill-rule="evenodd" transform="translate(0 .621371)"><path d="m54.5499727 35.892875-6.1519431-.1756294 13.9557856-12.8356873-6.1077288 11.4711816 6.1519432.1756295-13.0936047 13.9029739z" fill="#3d54ff"/><path d="m80.806757 18.575839v-5.2197597c.0608-3.58079976-2.8287998-6.51439959-6.4095996-6.50886299l-38.0199978.0632634c-3.5095998.0048-6.3607996 2.83759983-6.3887996 6.34879959v5.3165597z" fill="#3d54ff"/><path d="m69.2570784.875c.579899 0 1.0573199.43876095 1.1183987 1.00241886l.0066013.12258114-.0000784 3.721 4.0137695.00009226c4.1295049-.00508862 7.4763557 3.31298198 7.536273 7.39406274v34.4822886c0 4.951091-3.9435308 8.9807941-8.8609743 9.1206633l-.2643494.003755-34.8154202-.0011827c-4.9506294-.0011503-8.9803381-3.9438619-9.1215169-8.8608608l-.0038263-.2643258-.0000344-.4550164c-.000047-.6213203.5035946-1.125038 1.1249149-1.125085.579899-.0000438 1.0573531.438681 1.1184745 1.0023343l.0066106.1225807.0000343.4547931c.0010186 3.717737 2.9521143 6.7461415 6.6393116 6.8715397l.2363314.0040403 34.8151587.0011826c3.7179936 0 6.7465789-2.9507499 6.8712773-6.6381407l.0039944-.2363445-.0001096-34.2603965c.048885-2.8790665-2.2166747-5.25123402-5.0696074-5.36185425l-.2150442-.0040287-4.0152675-.00009725.0000784 3.8969994c0 .6213204-.5036796 1.125-1.125 1.125-.579899 0-1.0573198-.4387609-1.1183986-1.0024188l-.0066014-.1225812-.0000784-3.8969994-24.856.002.00056 3.8949994c0 .6213204-.5036796 1.125-1.125 1.125-.579899 0-1.0573198-.4387609-1.1183986-1.0024188l-.0066014-.1225812-.00056-3.8939994-4.6473017.00081677c-2.8776329.00393567-5.2421775 2.38458263-5.2653383 5.28437753l.0015494 20.4982622c.000047.6213203-.5035946 1.125038-1.124915 1.125085-.6213203.0000469-1.125038-.5035946-1.125085-1.124915l-.0015136-20.5073182c.0323403-4.05546953 3.2628794-7.38688902 7.2721805-7.52128305l.2414732-.00420742 4.6489505-.00081783.00056-3.724c0-.62132034.5036797-1.125 1.125-1.125.579899 0 1.0573199.43876095 1.1183987 1.00241886l.0066013.12258114-.00056 3.723 24.856-.002.0000784-3.721c0-.62132034.5036797-1.125 1.125-1.125zm-32.7472495 33.9052027.0981235.0874196 5.6568542 5.6568543c.4079584.4079584.4370983 1.0512845.0874197 1.4928668l-.0874197.0981234-5.6568542 5.6568543c-.4393399.4393398-1.1516505.4393398-1.5909903 0-.4079584-.4079584-.4370983-1.0512845-.0874197-1.4928669l.0874197-.0981234 3.7360379-3.7373308-26.753.0009717c-.6213203 0-1.125-.5036797-1.125-1.125 0-.579899.4387609-1.0573199 1.0024189-1.1183987l.1225811-.0066013 26.751-.0009717-3.7340379-3.7353874c-.4079584-.4079584-.4370983-1.0512845-.0874197-1.4928669l.0874197-.0981234c.4079584-.4079584 1.0512845-.4370983 1.4928668-.0874196zm-17.2375755-14.7844889.0981234.0874196 5.6568543 5.6568543c.4079584.4079584.4370983 1.0512845.0874197 1.4928668l-.0874197.0981234-5.6568543 5.6568543c-.4393398.4393398-1.1516504.4393398-1.5909902 0-.4079584-.4079584-.4370983-1.0512845-.0874197-1.4928668l.0874197-.0981235 3.7346134-3.7368419-19.514.0004828c-.62132034 0-1.125-.5036796-1.125-1.125 0-.579899.43876095-1.0573198 1.00241886-1.1183986l.12258114-.0066014 19.514-.0004828-3.7346134-3.7358763c-.4079584-.4079584-.4370983-1.0512845-.0874197-1.4928668l.0874197-.0981235c.4079584-.4079584 1.0512845-.4370983 1.4928668-.0874196z" fill="#0f1031" fill-rule="nonzero"/></g></svg>