<svg height="67" viewBox="0 0 81 67" width="81" xmlns="http://www.w3.org/2000/svg"><g fill="none" fill-rule="evenodd" transform="translate(.333276 .621371)"><path d="m47.3924388 1.04445636c.307782-.27449544.7457226-.36091188 1.1394035-.21504976l30.3585616 11.2481066.120035.0523673c.6145741.3110445.8145343 1.1149037.3864763 1.6810475l-5.5433234 7.3303483.0005673 31.6959015c0 .4653648-.2865266.8826957-.7208205 1.0498876l-30.8441152 11.8741834c-.1163572.0447945-.2340936.0689555-.3498728.0747736h-.1757061c-.0771862-.0038787-.1552422-.0159099-.2331795-.0367721l-.1166933-.0380015-30.8441152-11.8741834c-.3948127-.1519926-.66750355-.5107117-.71382079-.9243127l-.00730374-.1255749v-14.8549478c0-.6213203.50398363-1.1249999 1.12530403-1.1249999.5798989 0 1.0573198.4387609 1.1183986 1.0024188l.0066013.1225811-.0008359 14.08177 28.594 11.008-.0004082-29.1417237-7.2138088 8.6294166c-.2789592.333672-.7220239.4737771-1.1366091.3697046l-.1233287-.0385977-30.50267225-11.4986712c-.74732682-.2817218-.9713011-1.2307209-.42879823-1.8168567l8.79547038-9.5035688c.0842052-.108375.1913363-.203446.3215624-.2780003.0076969-.0030233.0143821-.0068518.0211053-.0106113.0468355-.026763.0975103-.0501085.151181-.0704171l-.0995905.0432547c.0045879-.0022623.0091899-.0044926.0138055-.0066908.0198392-.009435.0401859-.0184141.0607891-.0267895.0096208-.0038897.0189978-.0075454.0284192-.0110737l30.5844747-11.57409878 6.1313129-6.99441622zm24.211153 21.27081994-28.594 9.331.0006113 31.4257237 28.594-11.007zm-60.2935918-.2572763-7.237 7.818 28.19 10.627 7.6245918-9.1197237zm29.4855918-11.3757237-26.4335918 10.0027237 27.522 8.961 27.454-8.958-26.2924082-9.9177237.0003789 13.9822282c0 .6213204-.5036796 1.125-1.1249999 1.125-.579899 0-1.0573199-.4387609-1.1183987-1.0024188l-.0066013-.1225812zm7.6809064-7.4742763-4.7479064 5.41627632 28.61 10.78999998 4.3509064-5.7532763z" fill="#0f1031" fill-rule="nonzero"/><path d="m57.2011536 42.4514426-5.7125187-.1781849 12.9589438-13.0224498-5.6714624 11.6380903 5.7125186.1781848-12.1583472 14.1052657z" fill="#3d54ff" transform="matrix(.9945219 -.10452846 .10452846 .9945219 -4.094644 6.292702)"/></g></svg>