<svg height="68" viewBox="0 0 88 68" width="88" xmlns="http://www.w3.org/2000/svg"><g fill="none" fill-rule="evenodd" transform="translate(-.166667 -.5)"><path d="m64.6649022 63.5660377c6.4641742-2.6681714 18.6140735-11.4527187 23.4105695-18.6415094 0 0-3.2279753-2.8731004-9.6839258-8.6193011-1.6801666 2.1350595-4.3075282 3.5101665-7.2624695 3.5101665-5.0731616 0-9.1866396-4.0524489-9.1866396-9.050343 0-2.4994203 2.6907641-6.4004465 2.6907641-6.4004465l-8.2173497-7.8929061c-2.2042474 3.2135745-6.751935 8.4881585-12.5593679 12.7396519-2.6738357 1.9574561-5.6147159 3.6980344-8.7168717 4.9207255" fill="#3d54ff"/><path d="m15.348282 1.0892253.1022508.08390325 9.1926951 8.48071061c.4559776.42066164.4853575 1.13105274.0656726 1.58792954-1.0970094 1.1942249-1.7165355 2.7555581-1.7165355 4.4167794 0 3.5974646 2.8951671 6.5111664 6.4629522 6.5111664 1.8429507 0 3.5587617-.7793205 4.7757622-2.1243515.4197125-.463867 1.1372283-.4962526 1.5970231-.072083l4.7160488 4.3506471c.4566752.4212918.4853591 1.1330246.0640674 1.5896998-.4212918.4566752-1.1330246.4853591-1.5896998.0640674l-3.9365189-3.6306943-.0562788.0490947c-1.4657196 1.2274603-3.3042235 1.9490629-5.2605658 2.0181545l-.3098382.0054653c-4.8136514 0-8.7129522-3.924264-8.7129522-8.7611664 0-1.7840454.5340713-3.4868239 1.5029229-4.9187234l.1007121-.1438247-7.58-6.993-.105346.12083894c-7.34172891 8.41571886-11.5336549 17.31110346-11.89698278 25.07431636l-.01670869.44661c-.18903315 6.7337583 2.5597919 9.8521053 7.39169417 10.572562 10.2814553 1.5311801 20.7559781-2.6049464 32.2099273-11.101918l.5193244-.3874329c5.8923371-4.6213066 9.8832538-8.4360208 12.5732117-12.4794118.3602939-.5415732 1.095183-.6593422 1.6042454-.2825744l.0986236.0819684 8.4870602 7.894331c.4771371.4438142.4785815 1.1989053.0031458 1.6445417l-.2272554.2193483c-1.5082155 1.5323759-2.3708361 3.6032151-2.3708361 5.8159925 0 4.5403703 3.6188338 8.2147856 8.0738037 8.2147856 2.5243536 0 4.8539727-1.1863475 6.3761839-3.1801181.3763367-.4929204 1.0727728-.5828034 1.559512-.2246501l.1008985.0836213 8.4687858 7.8777278c.3996898.3717945.4747984.9768687.1781408 1.4351016-6.8098013 10.5187785-24.581548 21.0596676-34.2895482 22.0159725-8.5143128.8387184-14.3700386-.3134778-20.9412654-4.61854l-.4204443-.2790843c-4.4736588-3.0079258-12.6764804-9.7812113-24.64715891-20.3459864l-1.52977053-1.3525177c-3.59672521-1.8638994-5.63597739-5.6615045-5.46739593-11.6667304.24490965-8.7593749 5.0024832-18.7093846 13.35584547-27.93676876.3897776-.43056042 1.036169-.48914899 1.4945915-.15575984zm41.211718 17.0877747-.1111948.1555625c-2.7082981 3.6907788-6.4351558 7.2078569-11.6112495 11.3078604l-.5994071.4720449-1.0954571.8127036c-11.2935589 8.2666706-21.7845075 12.4501927-32.2619309 11.2585712l2.6481662 2.3167518c8.9378418 7.7875315 15.3533522 13.0383268 19.2256987 15.7386487l.6429751.4406562c6.2778195 4.220978 11.680685 5.3339022 19.8857066 4.5256511 8.713033-.8582937 24.9744624-10.3494585 31.8920653-19.9346036l.2026275-.2858468-6.91-6.428-.0547173.0581293c-1.8332265 1.8638339-4.3067442 2.9801038-6.969569 3.0664232l-.3338064.0054052c-5.7053519 0-10.3238037-4.6893864-10.3238037-10.4647856 0-2.4571896.8407531-4.7826815 2.3367599-6.6320772l.1451365-.1730949z" fill="#0f1031" fill-rule="nonzero"/><g fill="#fff"><path d="m65.9815744 50.7793121c-1.1039097 1.1958677-1.0269643 3.0576976.1713318 4.1594508 1.199322 1.1017532 3.0675559 1.0240065 4.1714656-.1718612 1.1049357-1.1958677 1.0279903-3.0576976-.1713317-4.1584278-1.199322-1.1007303-3.06653-1.0250295-4.1714657.1708382"/><path d="m57.1261298 42.9307433c-1.1049482 1.1957858-1.026976 3.0574883.1713337 4.1581432 1.1993356 1.1027007 3.0675907 1.0249593 4.171513-.1708266 1.1049483-1.1957858 1.0269761-3.0574883-.1723596-4.1591661-1.1993356-1.1006549-3.0665648-1.0239364-4.1704871.1718495"/><path d="m48.2698588 35.0818275c-1.1039098 1.1959633-1.0269644 3.0579419.1713317 4.1587601 1.199322 1.1018412 3.0675559 1.0240882 4.1714656-.171875 1.1049357-1.1949401 1.0279903-3.0579419-.1713317-4.15876-1.199322-1.1008182-3.0665299-1.0240883-4.1714656.1718749"/></g></g></svg>